<svg preserveAspectRatio="none" width="90" height="88" overflow="visible" style="display: block;" viewBox="0 0 90 88" fill="none" xmlns="http://www.w3.org/2000/svg">
<g id="Group">
<path id="Vector" d="M89.9728 5.53231C90.2072 10.9729 88.8824 16.4647 85.9342 21.5577C83.6682 25.4734 80.4705 28.5364 77.0517 31.3943C75.6022 32.6059 74.1092 33.7661 72.5217 34.7878C72.0019 35.122 71.8602 35.5075 71.8508 36.1057C71.8111 38.7813 72.0889 41.4703 71.4992 44.125C70.783 47.3457 69.3108 50.1485 67.0032 52.4957C66.2378 53.2723 65.4667 53.2894 64.6881 52.5222C62.7132 50.5777 60.7704 48.599 58.8125 46.6354C58.3513 46.1721 58.2682 45.6043 58.2871 44.9795C58.3135 44.1592 58.2871 43.3369 58.2965 42.5166C58.3003 42.1083 58.1793 42.0229 57.7938 42.2128C57.4971 42.359 57.2854 42.5793 57.0662 42.7995C54.307 45.5644 51.5402 48.3217 48.7999 51.1056C46.6586 53.2799 45.3659 55.8739 45.0069 58.9407C44.9294 59.5978 45.073 59.5142 45.5625 59.4098C50.6519 58.3255 55.1366 61.0638 56.5389 66.1435C56.675 66.6373 56.847 66.7094 57.2684 66.7303C63.6562 67.0607 68.7532 71.4037 70.1045 77.6778C70.25 78.3501 70.2576 79.0527 70.3521 79.7382C70.4239 80.2547 70.2122 80.401 69.7227 80.3687C68.9744 80.3193 68.0313 80.5871 67.5305 80.2225C67.1223 79.9262 67.2583 78.8951 67.1261 78.1963C65.9808 72.1613 59.506 68.3178 53.6739 70.2548C52.8933 70.5149 52.5947 70.3212 52.4436 69.6053C52.4247 69.5142 52.3925 69.423 52.3585 69.3357C52.1544 68.8116 51.7027 68.2229 51.8142 67.7804C51.9182 67.3684 52.7157 67.3437 53.2222 67.1994C53.5945 67.093 53.602 66.8917 53.5283 66.5632C52.7951 63.2875 48.488 61.1549 45.5001 62.5811C45.0428 62.7994 45.0598 63.0843 45.1543 63.4964C45.6815 65.7827 46.6605 67.8393 48.2442 69.5712C48.6751 70.0421 48.7167 70.3042 48.2386 70.7789C46.5339 72.4747 46.5528 72.4937 45.1165 70.5472C40.2973 64.0167 40.8453 55.1029 46.4394 49.2199C47.4807 48.1242 48.5391 47.0456 49.6295 45.9993C50.0245 45.6214 50.034 45.3859 49.6503 45.0099C48.146 43.5287 46.6473 42.0418 45.1902 40.5132C44.7026 40.0024 44.4626 40.3176 44.1489 40.6442C41.9471 42.942 39.7946 45.2853 37.727 47.7065C32.8927 53.3692 28.4912 59.3528 24.4582 65.6175C21.75 69.8237 17.853 72.1538 12.9091 72.731C12.6294 72.7633 12.3421 72.7405 12.0624 72.7671C11.6731 72.8051 11.4539 72.6893 11.5144 72.2544C11.5181 72.224 11.5144 72.1917 11.5144 72.1594C11.5276 71.4037 11.2781 70.4618 11.6372 69.9529C11.9226 69.5484 12.9563 69.6927 13.6518 69.5598C16.8741 68.9445 19.4897 67.3304 21.4419 64.6794C22.058 63.8439 22.5626 62.9286 23.1617 62.0797C23.5189 61.5727 23.4093 61.2974 22.9387 60.9271C17.7925 56.8975 9.81913 59.9928 8.66819 66.4834C8.35636 68.2381 8.35447 68.1754 6.54774 68.2552C5.58957 68.297 5.31365 67.9741 5.50264 67.0949C5.53666 66.9411 5.55367 66.7835 5.58201 66.6278C5.86172 65.0839 5.69352 64.9244 4.16082 65.4029C3.69024 65.551 3.16107 65.739 2.83412 66.0771C2.2218 66.7113 1.76823 66.6468 1.26552 66.0068C1.15024 65.8606 0.991489 65.7485 0.849748 65.6232C-0.299301 64.6187 -0.304971 64.6111 0.966921 63.6692C2.57899 62.4766 4.39706 61.9848 6.37577 62.2089C6.87469 62.2658 7.0977 62.1272 7.35283 61.7417C9.93252 57.8621 13.5611 55.9689 18.1951 56.1246C20.4989 56.2024 22.6193 56.9639 24.4903 58.3331C25.0969 58.7774 25.422 58.7527 25.8794 58.09C32.1084 49.0946 39.3221 40.948 47.1349 33.3218C47.528 32.9382 48.1932 32.5261 47.9721 31.9792C47.819 31.6013 47.0612 31.8748 46.5774 31.8425C46.0444 31.8064 45.5077 31.8064 44.9747 31.8349C44.3586 31.8691 43.8862 31.6241 43.4666 31.2006C41.5786 29.3017 39.6774 27.4141 37.7988 25.5056C36.9144 24.6074 36.9238 23.8497 37.8348 22.9762C41.0098 19.9322 44.7952 18.3257 49.1854 18.206C50.788 18.1623 52.3925 18.1756 53.9951 18.2079C54.615 18.2212 55.0006 18.0465 55.3785 17.4977C58.2984 13.2516 61.498 9.2334 65.5934 6.06023C70.696 2.11228 76.5131 0.118362 82.9595 0.0158177C84.6887 -0.0107679 86.418 0.0025249 88.1472 0.0101208C89.4021 0.0158177 89.9653 0.596901 89.9728 1.87111C89.9785 2.94592 89.9728 4.01884 89.9728 5.53231ZM85.0195 16.5577C83.9139 16.2463 82.8272 16.0374 81.8558 15.5304C77.7737 13.3978 74.8311 10.2968 73.7274 5.68043C73.5894 5.10505 73.4194 4.95313 72.8184 5.23228C70.5524 6.28241 68.3923 7.50914 66.5383 9.18593C59.489 15.5589 54.496 23.3237 51.2189 32.2375C51.0261 32.7616 51.0923 33.0996 51.4854 33.487C53.1674 35.1448 54.8494 36.8045 56.4728 38.5193C56.9944 39.07 57.431 39.1345 58.1151 38.8782C65.9619 35.9424 72.8902 31.5539 78.8868 25.6822C81.5459 23.0788 83.6361 20.0841 85.0195 16.5577ZM84.0575 3.03707C81.8218 2.97061 79.6276 3.26495 77.4373 3.70361C76.5074 3.88971 76.4848 4.30748 76.6586 5.08226C77.2747 7.81297 78.9567 9.786 81.0318 11.497C82.2394 12.492 83.6361 13.0978 85.148 13.4548C85.7565 13.5991 86.0683 13.5004 86.2479 12.7636C86.9906 9.73283 86.9812 6.6565 86.966 3.57258C86.9642 3.15481 86.8092 3.02188 86.4104 3.03328C85.6261 3.05416 84.8418 3.03897 84.0575 3.03897V3.03707ZM68.7835 37.2128C66.3871 38.4775 64.055 39.7441 61.5963 40.7486C61.2504 40.8911 61.3033 41.1949 61.3014 41.4722C61.2977 42.3552 61.3241 43.2382 61.2939 44.1193C61.275 44.6263 61.4148 44.9985 61.789 45.3612C62.9192 46.4531 64.055 47.5469 65.0982 48.7205C65.6935 49.3908 65.9713 49.1687 66.3777 48.58C68.74 45.158 69.0934 41.3126 68.7854 37.2128H68.7835ZM52.9973 21.2406C51.4873 21.2406 50.1379 21.1722 48.798 21.2558C46.12 21.4229 43.6613 22.2793 41.4633 23.8535C41.0457 24.1536 40.8245 24.3454 41.3329 24.8258C42.5443 25.9671 43.6972 27.1748 44.8594 28.3693C45.1637 28.6807 45.4793 28.8421 45.9291 28.8269C46.8684 28.7966 47.8114 28.8174 48.7526 28.8231C49.0777 28.8231 49.3366 28.8023 49.4878 28.413C50.4403 25.9861 51.6517 23.6845 52.9954 21.2406H52.9973ZM54.4997 40.9556C54.4619 40.6784 54.2314 40.5379 54.0613 40.3651C53.0672 39.3567 52.0788 38.3408 51.0583 37.3571C50.4554 36.776 49.9546 35.7221 49.21 35.7487C48.4767 35.7753 48.0004 36.8387 47.3579 37.3837C46.9156 37.7578 46.9232 38.0312 47.3446 38.4357C48.4351 39.4801 49.4859 40.5663 50.5499 41.6393C51.6901 42.7888 52.8348 42.7774 53.9838 41.6051C54.1728 41.4114 54.4619 41.2804 54.4997 40.9537V40.9556Z" fill="var(--fill-0, #22396A)"/>
<path id="Vector_2" d="M14.37 87.9455C13.5838 88.1069 13.0433 87.955 12.824 86.7397C12.0908 82.6854 7.70245 80.6573 4.106 82.6474C3.45588 83.0082 3.1157 82.9892 2.80765 82.3398C2.79442 82.3113 2.76985 82.2904 2.75095 82.2638C1.84381 81.0637 2.07879 80.1667 3.45588 79.573C5.33253 78.7659 7.27155 78.5969 9.23514 79.1552C9.84746 79.3299 10.1669 79.2407 10.5373 78.6957C13.3286 74.5825 19.1608 73.1184 23.602 75.3307C24.2257 75.6402 24.2767 75.9099 23.9384 76.4359C23.5831 76.9904 23.3923 77.7652 22.899 78.0899C22.3604 78.445 21.7235 77.7879 21.1168 77.6189C18.1989 76.8043 14.9672 77.8354 13.1737 80.1636C12.7995 80.6497 12.7598 80.9421 13.2455 81.4036C14.7763 82.8563 15.6437 84.6774 15.9707 86.7644C16.154 87.936 16.1578 87.9436 15.0182 87.9436C14.8613 87.9436 14.7045 87.9436 14.3681 87.9436L14.37 87.9455Z" fill="var(--fill-0, #22396A)"/>
<path id="Vector_3" d="M37.848 72.7861C45.57 72.7785 50.6425 79.4344 48.8943 86.1054C48.7053 86.8232 48.4842 86.9676 47.8265 86.6523C47.2369 86.3694 46.4091 86.3694 46.0255 85.9383C45.604 85.4655 46.1842 84.7173 46.205 84.0773C46.3128 80.963 45.2034 78.4412 42.4536 76.867C39.6963 75.2889 36.9219 75.4389 34.312 77.2467C33.7186 77.6569 33.4256 77.6455 33.0609 77.0929C32.9758 76.9638 32.8492 76.8594 32.7434 76.7435C31.9408 75.8599 32.0341 75.0965 33.0231 74.4534C34.7542 73.333 36.6573 72.8032 37.8461 72.788L37.848 72.7861Z" fill="var(--fill-0, #22396A)"/>
<path id="Vector_4" d="M40.524 52.1006C39.77 51.7379 39.0046 51.379 38.2505 50.9992C38.0237 50.8853 38.1163 50.6897 38.2014 50.5131C39.5848 47.6685 41.6258 45.3365 43.8861 43.1774C44.0487 43.0236 44.1999 42.9856 44.3718 43.147C44.4399 43.2116 44.5022 43.2837 44.5703 43.3483C46.3392 44.9757 46.3487 44.9833 44.6421 46.6962C43.2115 48.1318 42.0114 49.7326 41.0664 51.529C40.9493 51.7531 40.9285 52.1101 40.524 52.1006Z" fill="var(--fill-0, #22396A)"/>
<path id="Vector_5" d="M38.5567 57.7842C38.4338 57.7577 38.3129 57.7311 38.19 57.7045C37.4927 57.5507 36.2642 57.7121 36.1868 57.2867C36.0299 56.4303 36.4513 55.4637 36.646 54.5446C36.7008 54.2863 36.8766 54.1781 37.1393 54.2579C37.2886 54.3034 37.4341 54.3604 37.5834 54.4041C39.7964 55.0402 39.8985 55.27 39.0896 57.4386C38.9706 57.7577 38.842 57.8279 38.5567 57.7842Z" fill="var(--fill-0, #22396A)"/>
<path id="Vector_6" d="M67.3717 13.6599C72.3799 13.6751 76.4035 17.773 76.394 22.849C76.3827 27.7616 72.2703 31.852 67.3547 31.8387C62.3144 31.8235 58.2852 27.7521 58.2965 22.6875C58.3078 17.7161 62.3994 13.6447 67.3717 13.6599ZM61.3033 22.7312C61.2939 26.0734 64.0021 28.8155 67.3188 28.8193C70.6412 28.8231 73.3664 26.1019 73.3797 22.7635C73.3929 19.4099 70.7093 16.7001 67.3623 16.6811C64.0342 16.664 61.3146 19.3795 61.3033 22.7293V22.7312Z" fill="var(--fill-0, #22396A)"/>
</g>
</svg>
