<svg preserveAspectRatio="none" width="100%" height="100%" overflow="visible" style="display: block;" viewBox="0 0 49 48" fill="none" xmlns="http://www.w3.org/2000/svg">
<g id="Group">
<path id="Vector" d="M2 28.5C4.075 30.105 7.1925 31.0425 10.75 31C14.3075 31.0425 17.425 30.105 19.5 28.5C21.575 26.895 24.6925 25.9575 28.25 26C31.8075 25.9575 34.925 26.895 37 28.5M14.5 1C13.7088 1.56793 13.0677 2.31993 12.6321 3.19106C12.1966 4.06219 11.9796 5.02626 12 6C11.9796 6.97374 12.1966 7.93781 12.6321 8.80894C13.0677 9.68007 13.7088 10.4321 14.5 11M24.5 1C23.7088 1.56793 23.0677 2.31993 22.6321 3.19106C22.1966 4.06219 21.9796 5.02626 22 6C21.9796 6.97374 22.1966 7.93781 22.6321 8.80894C23.0677 9.68007 23.7088 10.4321 24.5 11" stroke="var(--stroke-0, #22396A)" stroke-width="2" stroke-linecap="round" stroke-linejoin="round"/>
<path id="Vector_2" d="M2 18.5H37V31C37 34.9782 35.4196 38.7936 32.6066 41.6066C29.7936 44.4196 25.9782 46 22 46H17C13.0218 46 9.20644 44.4196 6.3934 41.6066C3.58035 38.7936 2 34.9782 2 31V18.5Z" stroke="var(--stroke-0, #22396A)" stroke-width="4" stroke-linecap="round" stroke-linejoin="round"/>
<path id="Vector_3" d="M36.365 35.315C37.4815 35.8275 38.7068 36.058 39.9332 35.986C41.1596 35.9141 42.3496 35.542 43.3985 34.9024C44.4474 34.2629 45.3232 33.3754 45.9488 32.3181C46.5744 31.2608 46.9307 30.0661 46.9863 28.8388C47.042 27.6115 46.7954 26.3894 46.2681 25.2798C45.7408 24.1702 44.949 23.2071 43.9623 22.4752C42.9756 21.7433 41.8242 21.265 40.6093 21.0823C39.3945 20.8996 38.1533 21.0181 36.995 21.4275" stroke="var(--stroke-0, #22396A)" stroke-width="4" stroke-linecap="round" stroke-linejoin="round"/>
</g>
</svg>
