<svg preserveAspectRatio="none" width="100%" height="100%" overflow="visible" style="display: block;" viewBox="0 0 42 44" fill="none" xmlns="http://www.w3.org/2000/svg">
<g id="Group">
<path id="Vector" d="M3.675 6.78C3.57664 6.7812 3.47911 6.7618 3.38869 6.72305C3.29828 6.6843 3.21697 6.62706 3.15 6.555C2.85 6.255 2.85 5.79 3.15 5.49C6.705 1.95 11.415 0 16.44 0C18.285 0 20.13 0.27 21.885 0.81C22.0732 0.868829 22.2306 0.9994 22.3233 1.17345C22.4159 1.3475 22.4363 1.55104 22.38 1.74C22.26 2.145 21.84 2.37 21.45 2.235C19.8239 1.75115 18.1366 1.50362 16.44 1.5C11.82 1.5 7.47 3.3 4.215 6.57C4.065 6.72 3.87 6.78 3.675 6.78Z" fill="var(--fill-0, #22396A)"/>
<path id="Vector_2" d="M0.75 21.72C0.33 21.72 0 21.39 0 20.97C0 11.91 7.38 4.53 16.44 4.53C16.86 4.53 17.19 4.86 17.19 5.28C17.19 5.7 16.86 6.03 16.44 6.03C8.205 6.03 1.5 12.735 1.5 20.97C1.5 21.39 1.17 21.72 0.75 21.72ZM30.465 21.72C30.465 22.14 30.795 22.47 31.215 22.47C33.45 22.47 35.595 21.795 37.41 20.505C38.8277 19.5086 39.9849 18.1857 40.7838 16.648C41.5827 15.1102 41.9998 13.4029 42 11.67C42 11.265 41.67 10.92 41.25 10.92C40.83 10.92 40.5 11.25 40.5 11.67C40.5 14.7 39.015 17.535 36.555 19.29C34.9898 20.3851 33.1253 20.9717 31.215 20.97C30.795 20.97 30.465 21.3 30.465 21.72Z" fill="var(--fill-0, #22396A)"/>
<path id="Vector_3" d="M6.75 19.6305L8.064 21H18.669C28.3335 21 36.045 29.2305 36.045 39.21V40.155C36.045 41.9445 34.647 43.53 32.763 43.53H21.876C12.21 43.53 4.5 35.2995 4.5 25.32V16.695C4.5 16.08 5.01 15.57 5.625 15.57C6.24 15.57 6.75 16.08 6.75 16.695V19.6305ZM21.876 40.53H32.763C32.7959 40.5288 32.8281 40.5209 32.8578 40.5067C32.8875 40.4925 32.9139 40.4723 32.9355 40.4475C33.0082 40.3677 33.0475 40.263 33.045 40.155V39.21C33.045 30.7395 26.535 24 18.669 24H7.722C7.906 24.173 8.112 24.323 8.34 24.45L26.19 34.2C26.73 34.5 26.94 35.175 26.64 35.73C26.445 36.105 26.055 36.315 25.665 36.315C25.485 36.315 25.305 36.27 25.125 36.18L7.548 26.58C8.1555 34.449 14.406 40.53 21.876 40.53ZM39 0.795C39 0.375 38.655 0.03 38.235 0.03C37.815 0.03 37.47 0.375 37.47 0.795V3.378L36.9945 3.75H29.5245C23.04 3.75 17.865 9.4275 17.865 16.05V16.695C17.865 17.787 18.723 18.72 19.8435 18.72H27.342C33.807 18.72 39 13.287 39 6.645V0.795ZM37.2015 5.25C37.014 5.583 36.735 5.865 36.39 6.06L24.27 12.675C23.895 12.87 23.76 13.335 23.97 13.71C24.0666 13.8879 24.2293 14.0206 24.423 14.0795C24.6166 14.1384 24.8257 14.1189 25.005 14.025L37.125 7.41C37.2496 7.33883 37.3708 7.26174 37.488 7.179C37.2195 12.7965 32.7555 17.22 27.342 17.22H19.842C19.605 17.22 19.365 17.013 19.365 16.695V16.05C19.365 10.1625 23.958 5.25 29.523 5.25H37.2015Z" fill="var(--fill-0, #22396A)"/>
</g>
</svg>
