<svg preserveAspectRatio="none" width="100%" height="100%" overflow="visible" style="display: block;" viewBox="0 0 90 90" fill="none" xmlns="http://www.w3.org/2000/svg">
<g id="Group">
<path id="Vector" d="M0.00922041 44.8793C0.00922041 33.3237 0.0257591 21.7663 3.22331e-05 10.2107C-0.00731831 6.76813 1.24227 3.96884 3.99505 1.89189C5.45964 0.789085 7.12087 0.0612326 8.9732 0.0538806C18.9993 0.0134444 29.0236 0.00976837 39.0498 0.00241633C42.7177 -0.00125969 46.3856 -0.00677372 50.0535 0.0373385C52.481 0.0667467 54.598 0.998618 56.3052 2.68407C61.4138 7.73125 66.4875 12.817 71.5428 17.9175C73.4558 19.8474 74.3415 22.2331 74.3415 24.9516C74.3415 32.2282 74.3544 39.5031 74.3195 46.7798C74.3158 47.526 74.5474 47.8274 75.2273 48.0701C83.2045 50.9006 88.19 56.5102 89.6564 64.7923C91.7734 76.7485 83.844 87.2307 72.8328 89.5503C71.2709 89.8793 69.6923 89.973 68.1009 89.973C48.815 89.973 29.5271 89.9326 10.2412 90.0024C5.18584 90.0208 1.44441 86.7528 0.360209 82.8121C0.0643494 81.735 0.0165709 80.6469 0.0147333 79.5496C0.011058 67.9941 0.0147333 56.4367 0.0147333 44.8811H0.00922041V44.8793ZM55.7428 86.0819L55.8108 85.8834C55.5095 85.6371 55.2026 85.3945 54.9067 85.1409C48.2949 79.4816 45.7094 72.2822 47.4716 63.8328C49.6529 53.3819 59.1553 46.539 69.2329 46.9783C70.5634 47.0371 70.4347 47.186 70.4384 45.8626C70.4586 38.8947 70.4513 31.925 70.4513 24.9571C70.4513 24.7439 70.4072 24.5307 70.4108 24.3174C70.42 23.6668 70.1389 23.4573 69.4681 23.4665C66.6272 23.5069 63.7843 23.4756 60.9434 23.4848C54.8516 23.5069 50.7022 18.6159 50.8566 13.3353C50.9319 10.7401 50.8694 8.13929 50.8694 5.54218C50.8694 3.90451 50.8694 3.89716 49.2505 3.89532C36.172 3.89165 23.0936 3.88797 10.0133 3.89165C6.44094 3.89165 3.91419 6.4428 3.91419 10.0177C3.91419 33.3384 3.91419 56.6591 3.91419 79.9797C3.91419 83.5473 6.45381 86.0764 10.0317 86.0764C24.9753 86.0764 39.9171 86.0783 54.8608 86.0801C55.1548 86.0801 55.4507 86.0801 55.7447 86.0801L55.7428 86.0819ZM68.4078 86.0783C77.9562 86.0893 85.9352 78.5185 86.0583 68.755C86.1833 58.8095 78.3329 50.8693 68.5328 50.8583C58.7529 50.8491 51.0017 58.589 50.886 68.1834C50.7665 78.1123 58.6334 86.0599 68.4078 86.0764V86.0783ZM67.2648 19.4835C63.1154 15.3241 58.955 11.1536 54.802 6.99053C54.802 6.99421 54.745 7.07324 54.7487 7.15044C54.8424 9.61888 54.6164 12.0947 54.892 14.5576C55.1677 17.0132 57.2644 19.285 59.7213 19.4467C62.2646 19.614 64.8263 19.4835 67.263 19.4835H67.2648Z" fill="var(--fill-0, #22396A)"/>
<path id="Vector_2" d="M46.913 43.0102C42.4862 43.0102 38.0593 43.0102 33.6306 43.0102C32.2119 43.0102 31.2564 42.2052 31.2747 41.0344C31.2931 39.8838 32.2138 39.1247 33.6049 39.1228C42.5211 39.1228 51.4354 39.1265 60.3516 39.1173C61.3329 39.1173 62.0606 39.4518 62.4557 40.3984C62.7792 41.1759 62.5568 41.8302 62.0423 42.4221C61.5498 42.9882 60.879 43.0102 60.1936 43.0102C55.7667 43.0047 51.3399 43.0084 46.9112 43.0102H46.913Z" fill="var(--fill-0, #22396A)"/>
<path id="Vector_3" d="M46.9222 31.2764C42.4641 31.2764 38.0078 31.2709 33.5497 31.2819C32.6916 31.2837 31.9969 31.0521 31.5541 30.2618C31.1718 29.5781 31.2104 28.9127 31.6239 28.2749C32.0613 27.5985 32.7173 27.3761 33.5056 27.3761C39.2446 27.3853 44.9853 27.3798 50.7243 27.3798C53.9916 27.3798 57.2571 27.3743 60.5244 27.3871C61.6049 27.3908 62.3749 28.0157 62.577 28.9917C62.7442 29.7949 62.2426 30.7286 61.4561 31.0999C60.993 31.3186 60.5005 31.2653 60.0172 31.2653C55.651 31.2709 51.2848 31.269 46.9185 31.269V31.2764H46.9222Z" fill="var(--fill-0, #22396A)"/>
<path id="Vector_4" d="M11.7701 45.0026C11.7701 44.1443 12.1615 43.591 12.8341 43.2492C13.6298 42.8466 14.3942 42.9955 15.0337 43.5727C15.7578 44.227 16.4505 44.9199 17.1066 45.6404C17.4888 46.0595 17.7204 46.0448 18.1136 45.6441C19.9678 43.7436 21.8514 41.8725 23.7294 39.9959C24.6391 39.0861 25.3668 38.8986 26.2562 39.3177C27.3422 39.8286 27.7208 41.0748 27.0813 42.0912C26.9214 42.3467 26.7101 42.5746 26.4951 42.7897C24.1227 45.1662 21.7503 47.5428 19.3706 49.9101C18.0585 51.2133 17.1617 51.2078 15.8588 49.9101C14.7342 48.7908 13.6151 47.6641 12.4941 46.541C12.0494 46.0963 11.715 45.6 11.7701 45.0026Z" fill="var(--fill-0, #22396A)"/>
<path id="Vector_5" d="M17.5439 31.2543C16.9651 31.3113 16.5167 30.9952 16.1179 30.6037C14.8794 29.3814 13.639 28.1609 12.428 26.9129C11.568 26.027 11.5386 24.8286 12.3012 24.0438C13.0454 23.2792 14.2821 23.3012 15.1716 24.1357C15.8386 24.7606 16.4928 25.4058 17.1047 26.084C17.4907 26.5123 17.7295 26.4755 18.121 26.073C20.0192 24.1302 21.9396 22.2095 23.8709 20.3016C25.1003 19.0867 26.7027 19.3679 27.265 20.8659C27.5535 21.636 27.3661 22.3142 26.8056 22.8785C24.1999 25.4958 21.5831 28.1021 18.9699 30.7121C18.5804 31.0999 18.1154 31.2856 17.5403 31.2525L17.5439 31.2543Z" fill="var(--fill-0, #22396A)"/>
<path id="Vector_6" d="M11.7701 64.5848C11.7572 63.7228 12.1578 63.1567 12.8745 62.7946C13.6573 62.3994 14.3814 62.5905 14.9951 63.1236C15.6843 63.7228 16.344 64.3642 16.9522 65.0461C17.4227 65.5736 17.7295 65.6049 18.2478 65.0682C20.1166 63.1364 22.0204 61.2396 23.9426 59.3612C25.0764 58.2528 26.6513 58.5635 27.2448 59.9567C27.5738 60.7286 27.3882 61.4197 26.8387 61.9767C24.2201 64.6289 21.5941 67.2775 18.9332 69.8875C18.1173 70.6888 17.0496 70.6318 16.2227 69.8305C14.9069 68.5549 13.6243 67.2444 12.3306 65.9468C11.9483 65.5626 11.737 65.0994 11.7701 64.5848Z" fill="var(--fill-0, #22396A)"/>
<path id="Vector_7" d="M41.0528 46.9675C43.5281 46.9675 46.0034 46.962 48.4805 46.9693C49.9929 46.9748 50.8529 47.6806 50.8639 48.8937C50.875 50.0958 49.969 50.8512 48.4989 50.853C43.6696 50.8567 38.8403 50.8549 34.011 50.853C33.7059 50.853 33.3972 50.8622 33.094 50.831C32.0649 50.7244 31.2619 49.8384 31.2821 48.8551C31.3041 47.8571 32.1164 46.9987 33.1675 46.9877C35.7953 46.9583 38.425 46.9785 41.0528 46.9785C41.0528 46.9748 41.0528 46.9711 41.0528 46.9675Z" fill="var(--fill-0, #22396A)"/>
<path id="Vector_8" d="M39.0498 23.4887C37.2507 23.4887 35.4517 23.4961 33.6526 23.4869C32.234 23.4777 31.2747 22.6616 31.2803 21.4945C31.2858 20.3274 32.2524 19.5223 33.671 19.5205C37.3298 19.5168 40.9885 19.5094 44.6472 19.5241C46.3672 19.5315 47.3982 20.864 46.7862 22.272C46.4003 23.1597 45.6487 23.4961 44.7189 23.4979C42.828 23.4998 40.9389 23.4979 39.0479 23.4979V23.4906L39.0498 23.4887Z" fill="var(--fill-0, #22396A)"/>
<path id="Vector_9" d="M37.1478 70.448C35.9589 70.448 34.7699 70.4646 33.581 70.4444C32.2303 70.4223 31.3005 69.597 31.2913 68.4575C31.2839 67.3345 32.2505 66.4963 33.5938 66.4908C35.9717 66.4816 38.3496 66.4779 40.7275 66.4908C42.1517 66.4982 42.9878 67.2297 43.0062 68.4299C43.0246 69.6742 42.1701 70.437 40.7128 70.4517C39.5239 70.4646 38.3349 70.4536 37.146 70.4536V70.448H37.1478Z" fill="var(--fill-0, #22396A)"/>
<path id="Vector_10" d="M37.1148 62.5887C35.8633 62.5887 34.6137 62.6053 33.3623 62.5832C32.1513 62.563 31.2619 61.6973 31.2803 60.6C31.2968 59.5468 32.1568 58.7271 33.3402 58.7179C35.9019 58.6976 38.4654 58.694 41.0271 58.7179C42.2436 58.7289 43.0062 59.5027 43.0154 60.6312C43.0246 61.7818 42.2105 62.5722 40.9591 62.5887C39.6783 62.6053 38.3974 62.5924 37.1148 62.5924V62.5869V62.5887Z" fill="var(--fill-0, #22396A)"/>
<path id="Vector_11" d="M60.0025 66.6213C60.6769 66.5625 61.1381 66.8823 61.5645 67.3106C62.7277 68.4814 63.924 69.6209 65.0615 70.8138C65.4621 71.2347 65.6716 71.1943 66.0612 70.8009C69.0051 67.8252 71.9765 64.877 74.9351 61.9142C75.3523 61.4951 75.7896 61.1201 76.4126 61.076C77.2854 61.0135 77.9856 61.3315 78.3715 62.1329C78.7684 62.9582 78.6324 63.7467 77.9837 64.401C76.3078 66.0975 74.619 67.7793 72.9339 69.4666C71.0559 71.3487 69.176 73.2308 67.2979 75.1129C66.0722 76.3425 65.078 76.3389 63.8432 75.1019C62.1599 73.4128 60.4656 71.7365 58.7988 70.0327C57.7643 68.9758 57.9113 67.5109 59.0763 66.8419C59.3759 66.6709 59.6919 66.579 60.0025 66.6195V66.6213Z" fill="var(--fill-0, #22396A)"/>
</g>
</svg>
