<svg preserveAspectRatio="none" width="100%" height="100%" overflow="visible" style="display: block;" viewBox="0 0 102 74" fill="none" xmlns="http://www.w3.org/2000/svg">
<g id="Group">
<path id="Vector" d="M102.005 73.0351C101.496 73.5992 101.001 74.2224 100.096 73.9049C99.1338 73.5696 99.0161 72.7866 99.02 71.9109C99.032 68.2364 99.02 64.5619 99.02 60.8895C99.0181 58.7041 98.2319 57.6726 96.0928 57.0552C94.1932 56.5069 92.2856 55.9843 90.394 55.4064C89.9391 55.2663 89.6537 55.3492 89.3424 55.6647C88.3906 56.6253 87.4408 57.5897 86.4471 58.5069C86.0441 58.8797 86.056 59.2998 86.056 59.7573C86.06 63.6941 86.062 67.6309 86.064 71.5677C86.064 71.8635 86.084 72.1613 86.054 72.4533C85.9563 73.396 85.2559 74.0548 84.4438 73.9897C83.6436 73.9246 83.0929 73.2816 83.0909 72.3408C83.0789 68.2403 83.059 64.1399 83.0989 60.0394C83.1069 59.2445 82.8834 58.6745 82.2928 58.1578C81.5984 57.5483 80.9658 56.8738 80.3093 56.2229C79.5378 55.459 78.6212 55.3373 77.5597 55.858C79.4872 57.9191 79.7706 60.4339 79.7127 63.0847C79.6469 66.1339 79.6968 69.1851 79.7027 72.2363C79.7027 72.9956 79.4294 73.5775 78.6951 73.8871C78.0945 74.1416 77.5876 73.9305 77.1486 73.5301C76.7496 73.1672 76.7117 72.682 76.7137 72.1712C76.7236 68.694 76.7196 65.2168 76.7176 61.7395C76.7176 58.9625 75.6302 57.4181 73.0042 56.4616C70.1848 55.434 67.3573 54.4301 64.5478 53.3788C63.9811 53.1658 63.6878 53.2309 63.3506 53.7555C62.2691 55.4438 61.1217 57.0888 60.0003 58.7534C58.6016 60.8323 56.5304 61.0611 54.7405 59.3057C54.108 58.6844 53.5393 58 52.8928 57.2919C52.4678 57.8146 52.5755 58.213 52.5755 58.5779C52.5715 62.9072 52.5755 67.2384 52.5795 71.5677C52.5795 72.0272 52.5835 72.4828 52.4398 72.9306C52.2084 73.6564 51.6896 74.0311 50.9533 73.9759C50.219 73.9207 49.7361 73.4749 49.6243 72.7314C49.5665 72.3448 49.5784 71.9464 49.5764 71.5539C49.5525 67.0609 49.5345 62.5679 49.5066 58.0749C49.5066 57.8935 49.5824 57.6785 49.2771 57.4734C48.6865 58.0375 48.0739 58.6134 47.4713 59.2011C45.5278 61.0966 43.5404 60.8875 42.0119 58.6252C40.9265 57.0178 39.809 55.4281 38.7655 53.793C38.4043 53.2289 38.077 53.1875 37.4884 53.4064C34.641 54.4636 31.7716 55.4616 28.9182 56.5069C26.5457 57.3767 25.3824 59.0256 25.3704 61.5226C25.3545 65.0984 25.3565 68.6743 25.3665 72.2501C25.3685 73.0114 25.147 73.609 24.3907 73.9029C23.6484 74.1909 22.8363 73.8063 22.537 73.0351C22.3794 72.6308 22.3674 72.2047 22.3674 71.7748C22.3674 68.3626 22.3614 64.9505 22.3634 61.5403C22.3634 60.2149 22.6268 58.9447 23.2174 57.7416C23.3372 57.497 23.826 57.1223 23.3292 56.9468C22.7924 56.7574 22.3574 55.9113 21.5992 56.5898C20.6913 57.3984 19.8911 58.3392 18.7518 58.8718C16.3373 60.0019 14.0746 59.7731 11.9675 58.142C11.6282 57.8797 11.2371 57.643 10.9937 57.3077C10.2494 56.2841 9.46325 56.2703 8.41767 56.9132C7.35413 57.568 6.18683 58.0611 5.05545 58.6075C3.6507 59.2859 3.02215 60.4141 3.02215 61.9309C3.02415 65.3745 3.02814 68.8202 3.01816 72.2639C3.01617 73.2757 2.46345 73.9246 1.62139 73.9779C0.825237 74.0272 0.0869451 73.4986 0.0909359 72.6288C0.112885 68.5362 -0.208372 64.4337 0.24059 60.351C0.438133 58.5424 1.54357 57.217 3.10396 56.3235C4.46881 55.5425 5.90149 54.8758 7.40601 54.1086C6.27064 53.434 5.12529 52.9271 4.18945 52.1126C3.71655 51.7023 3.2616 51.2724 2.80865 50.8424C1.75509 49.8365 1.45977 48.7793 2.06437 47.3218C2.89844 45.312 2.90044 43.1089 3.01816 40.959C3.1339 38.8348 3.07004 36.6909 3.44318 34.5904C4.52069 28.5392 9.25972 23.6952 15.8804 23.7169C21.2001 23.7327 25.0053 26.4348 27.308 31.1802C28.3496 33.3261 28.6109 35.6278 28.6828 37.9591C28.7626 40.5764 28.8185 43.1937 29.2954 45.7814C29.4271 46.4934 29.5867 47.1936 29.884 47.8504C30.301 48.7695 30.1115 49.5308 29.4809 50.298C28.3515 51.6708 26.9947 52.7398 25.4104 53.5445C25.119 53.6924 24.8357 53.8561 24.4645 54.0573C25.1609 54.6332 25.6857 54.8166 26.5677 54.3512C28.6987 53.2269 31.0653 52.6431 33.3121 51.7792C34.9184 51.1619 36.375 50.6136 37.646 49.1403C39.2603 47.2705 40.2819 45.5664 39.9826 43.0714C39.8609 42.0517 39.6833 41.2943 38.9031 40.5212C35.7824 37.4226 34.0184 33.6653 33.6772 29.269C33.5655 27.8272 33.5415 26.3874 33.5435 24.9456C33.5435 24.4723 33.4278 24.0443 33.2602 23.6123C31.5741 19.2495 31.4364 14.7467 32.5638 10.2971C34.0863 4.28939 39.7751 0.0607055 46.0446 0.0232311C53.4116 -0.0201602 60.7805 0.0094248 68.1475 0.0153418C69.5562 0.0153418 70.1269 0.59718 70.1269 1.99557C70.1309 6.98163 70.1429 11.9677 70.1209 16.9537C70.1109 19.2259 69.7677 21.4526 68.8638 23.563C68.6124 24.1528 68.5186 24.7405 68.5286 25.3736C68.5785 28.4584 68.5186 31.5234 67.3473 34.4622C66.3177 37.04 64.8012 39.2727 62.724 41.1247C62.319 41.4856 62.0815 41.8466 62.1514 42.385C62.1673 42.5132 62.1693 42.6493 62.1514 42.7775C61.7782 45.3435 62.3529 47.5486 64.6156 49.1146C64.7214 49.1876 64.8431 49.2961 64.8711 49.4105C65.2143 50.8049 66.4733 50.9627 67.5489 51.3552C69.2529 51.9765 70.9769 52.5445 72.665 53.2033C73.535 53.5425 74.3571 53.6865 75.247 53.3413C75.6461 53.1875 76.0652 53.0869 76.4782 52.9705C78.3978 52.4262 78.4856 52.2861 78.3 50.3079C78.2701 49.9825 78.1463 49.7694 77.8989 49.5683C74.8021 47.0397 73.3435 43.7795 73.5071 39.821C73.551 38.7441 73.3055 37.7974 72.8187 36.8191C70.3783 31.9218 73.118 25.8411 78.4037 24.1962C79.591 23.8273 80.7982 23.6853 82.0134 23.6735C86.2935 23.638 90.5756 23.6557 94.8577 23.6617C96.7413 23.6636 97.2601 24.1429 97.2162 25.9673C97.1464 28.8154 97.4417 31.6713 97.0287 34.5134C96.9249 35.2314 96.7433 35.9394 96.3782 36.5568C95.7317 37.6495 95.568 38.7993 95.6159 40.0379C95.7636 43.9116 94.4506 47.16 91.3019 49.5919C90.4499 50.2487 90.9128 51.1777 90.8809 51.9804C90.8549 52.5997 91.4875 52.6471 91.9604 52.7812C93.7023 53.2782 95.4403 53.793 97.1823 54.2881C99.6526 54.9902 101.239 56.5326 101.838 59.0295C101.857 59.1144 101.949 59.1814 102.007 59.2583V73.0371L102.005 73.0351ZM56.0415 2.95609C52.8908 2.95609 49.7381 2.95806 46.5874 2.95609C45.5897 2.95609 44.6059 3.05471 43.6382 3.29928C38.7535 4.52804 35.4691 8.30112 35.06 13.2793C34.7966 16.4883 34.7807 19.6953 36.1096 22.7366C36.4329 23.4782 36.5685 24.2218 36.5626 25.0226C36.5486 26.8529 36.5566 28.6773 36.8479 30.5037C37.9932 37.7007 45.025 43.957 53.7488 42.3732C58.8709 41.4442 63.6778 37.2254 64.9728 32.2689C65.5694 29.985 65.5834 27.6675 65.5435 25.3441C65.5255 24.348 65.6652 23.4171 66.0783 22.4861C66.8585 20.7268 67.1298 18.8393 67.1438 16.9321C67.1757 12.6028 67.1298 8.27548 67.1757 3.9462C67.1857 3.08429 66.8824 2.93242 66.0962 2.94031C62.746 2.97976 59.3957 2.95609 56.0435 2.96004L56.0415 2.95609ZM87.2772 26.6103C85.1701 26.7129 82.8155 26.4959 80.465 26.7484C76.3724 27.1902 73.6547 31.7226 75.4546 35.3793C76.2248 36.9434 76.572 38.4798 76.4942 40.1859C76.3964 42.2844 77.0449 44.1542 78.3179 45.8583C81.5405 50.1738 88.6281 49.8148 91.3977 45.1877C92.4173 43.4836 92.7166 41.6474 92.6428 39.7204C92.5909 38.3615 92.6907 37.0637 93.431 35.8408C93.7742 35.2728 93.9797 34.6002 94.0815 33.906C94.4067 31.6831 94.1513 29.4544 94.2491 27.2296C94.279 26.5413 93.8181 26.6142 93.3951 26.6142C91.4376 26.6083 89.4801 26.6123 87.2792 26.6123L87.2772 26.6103ZM25.7017 39.2253C25.6578 35.7106 25.2348 32.6022 22.9959 29.9258C19.4781 25.7188 12.4763 25.6596 8.91452 29.8074C6.60387 32.4977 6.15092 35.6574 6.12697 38.9847C6.12697 39.2372 6.16688 39.4837 6.44025 39.5212C7.59956 39.679 7.8011 40.4896 7.85497 41.4403C7.88091 41.8959 7.94476 42.3535 8.05451 42.7953C8.94046 46.3396 11.8218 48.7458 15.7288 48.9134C18.7059 49.0417 21.8107 47.5289 23.387 43.9708C23.9078 42.7933 23.8859 41.7835 23.0438 40.7125C20.6653 37.6928 17.4169 36.5193 13.7234 36.1919C13.2824 36.1524 13.0589 36.4148 12.8055 36.6672C12.1989 37.2727 11.6183 37.9059 10.9857 38.4818C10.4989 38.9255 9.90024 38.9492 9.31759 38.6613C8.7948 38.4029 8.56333 37.9532 8.58329 37.3713C8.6232 36.2649 11.8178 33.1584 12.9432 33.2018C17.9576 33.3872 22.3355 34.9395 25.6997 39.2253H25.7017ZM59.1643 45.2824C59.1683 43.6355 59.1862 43.6808 57.8094 44.2292C53.1681 46.0753 48.5269 46.095 43.9495 44.026C43.0974 43.6394 42.9997 43.7854 42.9298 44.6512C42.8281 45.8741 43.2072 46.6196 44.2907 47.2764C46.3778 48.5426 48.3652 49.9686 50.3726 51.3572C50.8295 51.6727 51.1428 51.7753 51.6636 51.4084C53.8226 49.8878 56.0036 48.3967 58.2244 46.9668C58.9547 46.4954 59.3498 45.9964 59.1643 45.2844V45.2824ZM60.4692 49.1008C60.2218 49.2113 60.0921 49.2487 59.9864 49.3197C57.9411 50.7024 55.9058 52.0968 53.8506 53.4656C53.4435 53.7358 53.5073 53.9192 53.8067 54.2111C54.7724 55.1519 55.7362 56.0927 56.662 57.071C57.0811 57.5148 57.2986 57.4359 57.6099 56.9645C58.8929 55.0257 60.2078 53.1066 61.5048 51.1777C61.6605 50.945 61.9698 50.7083 61.7084 50.4026C61.3113 49.9391 60.8683 49.515 60.4672 49.0988L60.4692 49.1008ZM44.9252 57.4931C45.0808 57.355 45.2026 57.2544 45.3143 57.144C46.2761 56.1973 47.2139 55.2289 48.2036 54.3117C48.6606 53.8877 48.5448 53.6609 48.0979 53.363C46.1504 52.0692 44.2049 50.7674 42.2773 49.444C41.8663 49.162 41.5251 49.0278 41.2258 49.517C40.9145 50.0258 39.8968 50.2329 40.5374 51.1619C41.8603 53.081 43.1533 55.0198 44.4623 56.9468C44.588 57.1302 44.7516 57.29 44.9272 57.4951L44.9252 57.4931ZM15.8265 56.6075C17.3829 56.6312 18.2569 55.6588 19.2087 54.7831C19.8772 54.1677 19.1169 53.6431 19.1768 53.0731C19.2067 52.7812 19.1429 52.4794 19.1768 52.1895C19.2486 51.6195 19.0591 51.4223 18.4724 51.5722C17.1435 51.9094 15.7946 51.9646 14.4377 51.7773C13.8571 51.6964 13.0589 51.3414 12.7536 51.5899C12.3186 51.941 12.606 52.7556 12.6 53.3689C12.596 53.7851 12.0952 54.1855 12.4683 54.574C13.4241 55.5701 14.342 56.6647 15.8245 56.6075H15.8265ZM87.8718 52.4183C87.8639 51.4952 87.7741 51.4203 86.8941 51.6155C85.3577 51.9548 83.8252 52.0041 82.2808 51.6313C81.9855 51.5603 81.5086 51.2901 81.3809 51.5603C81.1893 51.9666 81.0636 52.4893 81.297 52.9666C81.3669 53.1106 81.4926 53.2309 81.6103 53.3453C82.4344 54.152 83.2805 54.937 84.0806 55.7673C84.4418 56.1421 84.6653 56.1519 85.0304 55.7673C85.8226 54.9291 86.6567 54.1303 87.4907 53.3334C87.7721 53.0652 87.9716 52.793 87.8718 52.4242V52.4183ZM5.74386 45.31C5.46051 46.3849 5.25299 47.2389 5.00756 48.0831C4.88584 48.4973 4.9038 48.8168 5.24501 49.1383C6.36442 50.1955 7.6714 50.943 9.0961 51.511C9.2697 51.58 9.56302 51.6984 9.56502 51.4203C9.56901 50.8601 9.90024 50.1757 9.34353 49.7616C7.81307 48.6176 6.67171 47.1719 5.74585 45.312L5.74386 45.31ZM26.1127 45.1976C25.1709 47.2212 23.9617 48.6551 22.4213 49.8345C21.9105 50.2251 22.0302 50.9647 22.2397 51.3887C22.4871 51.8877 22.984 51.3631 23.3332 51.225C24.5104 50.7596 25.568 50.089 26.4699 49.1975C26.6714 48.9983 27.0186 48.8148 26.9049 48.4815C26.5697 47.5091 26.3901 46.4973 26.1127 45.1976Z" fill="var(--fill-0, #22396A)"/>
<path id="Vector_2" d="M92.6489 67.7196C92.6489 66.2443 92.6389 64.7671 92.6529 63.2917C92.6629 62.2602 93.2076 61.6389 94.0716 61.6232C94.9835 61.6054 95.618 62.2582 95.622 63.2858C95.636 66.27 95.64 69.2561 95.628 72.2422C95.624 73.2856 94.9975 73.9838 94.1335 73.9897C93.2615 73.9936 92.6629 73.3053 92.6549 72.2501C92.6429 70.7413 92.6529 69.2324 92.6509 67.7236L92.6489 67.7196Z" fill="var(--fill-0, #22396A)"/>
<path id="Vector_3" d="M9.3995 68.8024C9.3995 69.9819 9.40948 71.1594 9.39551 72.3388C9.38354 73.325 8.80687 73.964 7.94486 73.9838C7.10082 74.0035 6.44833 73.3704 6.43436 72.3783C6.40044 69.9563 6.40044 67.5323 6.42638 65.1102C6.43635 64.1477 7.10481 63.5521 7.99475 63.5896C8.82483 63.6251 9.37954 64.2286 9.39351 65.1694C9.41147 66.3804 9.3975 67.5934 9.3975 68.8044L9.3995 68.8024Z" fill="var(--fill-0, #22396A)"/>
<path id="Vector_4" d="M67.1559 69.402C67.1559 68.3863 67.1399 67.3705 67.1599 66.3548C67.1798 65.4002 67.7425 64.7888 68.5626 64.773C69.3787 64.7572 70.0831 65.3528 70.105 66.2522C70.1549 68.3153 70.1569 70.3823 70.111 72.4454C70.0911 73.3822 69.3249 74.0469 68.5167 73.9897C67.7206 73.9325 67.1658 73.2796 67.1539 72.3527C67.1419 71.3704 67.1519 70.3862 67.1539 69.404L67.1559 69.402Z" fill="var(--fill-0, #22396A)"/>
<path id="Vector_5" d="M34.9364 69.4198C34.9364 70.404 34.9584 71.3882 34.9304 72.3704C34.9045 73.3506 34.3817 73.9404 33.5616 73.9877C32.7455 74.0351 32.0371 73.4217 31.9892 72.4256C31.9134 70.7886 31.9493 69.1476 31.9473 67.5086C31.9473 66.9228 31.8795 66.3331 32.105 65.7611C32.3803 65.0629 32.8712 64.6901 33.6314 64.7887C34.3757 64.8834 34.8626 65.3232 34.8925 66.0767C34.9364 67.1891 34.9045 68.3054 34.9045 69.4198C34.9145 69.4198 34.9264 69.4198 34.9364 69.4198Z" fill="var(--fill-0, #22396A)"/>
<path id="Vector_6" d="M47.1162 13.4489C51.6597 13.4666 56.1852 13.6087 60.3576 15.7447C61.4231 16.291 62.4168 16.9478 63.2409 17.8156C63.8435 18.4488 63.8495 19.3048 63.2808 19.8452C62.6782 20.4152 61.9579 20.5394 61.3174 19.9675C58.6954 17.6224 55.4649 16.9044 52.1027 16.5652C48.7544 16.2259 45.4162 16.4173 42.0839 16.8571C41.4573 16.9399 41.3316 17.2062 41.3456 17.7368C41.3655 18.5888 41.3815 19.4428 41.3356 20.2929C41.2817 21.3008 40.7649 21.8392 39.9169 21.8688C39.0289 21.9003 38.4383 21.358 38.3964 20.3008C38.3485 19.0602 38.2388 17.8097 38.4443 16.5711C38.6857 15.1293 39.8051 14.1609 41.2698 13.9716C43.2093 13.7211 45.1548 13.5475 47.1142 13.4489H47.1162Z" fill="var(--fill-0, #22396A)"/>
<path id="Vector_7" d="M89.2188 36.0716C88.291 35.8053 87.2933 35.47 86.2696 35.2333C84.1685 34.7462 82.0175 34.6712 79.8744 34.5233C78.8328 34.4503 78.322 33.9355 78.3101 33.1032C78.2961 32.2334 78.8209 31.6042 79.8026 31.622C83.2087 31.6851 86.6089 31.8744 89.7955 33.263C90.4959 33.5687 90.9349 34.0933 90.7792 34.8803C90.6296 35.6357 90.1327 36.0775 89.2208 36.0696L89.2188 36.0716Z" fill="var(--fill-0, #22396A)"/>
</g>
</svg>
