<svg preserveAspectRatio="none" width="100%" height="100%" overflow="visible" style="display: block;" viewBox="0 0 100 100" fill="none" xmlns="http://www.w3.org/2000/svg">
<g id="flowbite:check-outline">
<rect width="100" height="100" rx="28" fill="var(--fill-0, white)"/>
<path id="Vector" d="M37.995 49.7594C38.872 47.5329 39.9266 45.3908 41.1585 43.333C42.3905 41.2752 43.7817 39.3355 45.3321 37.5138L42.7009 36.9572C42.0262 36.8223 41.3684 36.856 40.7274 37.0584C40.0865 37.2608 39.5299 37.5982 39.0576 38.0704L32.6819 44.4462C32.1758 44.9522 31.9815 45.5595 32.0989 46.2679C32.2163 46.9763 32.613 47.4655 33.2891 47.7353L37.995 49.7594ZM67.7484 30.0248C64.1726 29.8561 60.7742 30.5477 57.5533 32.0995C54.3324 33.6512 51.4562 35.6922 48.9248 38.2222C47.3056 39.8415 45.88 41.5957 44.648 43.4848C43.416 45.3739 42.346 47.3643 41.4379 49.4558C41.2692 49.8943 41.1849 50.3416 41.1849 50.7977C41.1849 51.2538 41.3535 51.6499 41.6909 51.9859L48.016 58.3111C48.3533 58.6484 48.75 58.8171 49.2061 58.8171C49.6622 58.8171 50.1089 58.7327 50.546 58.5641C52.6376 57.6532 54.6279 56.5818 56.517 55.3498C58.4061 54.1179 60.1602 52.6929 61.7795 51.075C64.3095 48.545 66.3504 45.6694 67.9022 42.4485C69.454 39.2275 70.1448 35.8285 69.9748 32.2513C69.9748 31.9814 69.9074 31.7115 69.7724 31.4416C69.6375 31.1718 69.4688 30.9356 69.2664 30.7332C69.064 30.5308 68.8279 30.3621 68.558 30.2272C68.2881 30.0923 68.0182 30.0248 67.7484 30.0248ZM54.8957 45.1041C54.1198 44.3282 53.7319 43.3755 53.7319 42.2461C53.7319 41.1167 54.1198 40.1633 54.8957 39.3861C55.6716 38.6088 56.6249 38.2209 57.7557 38.2222C58.8864 38.2236 59.8391 38.6115 60.6136 39.3861C61.3882 40.1606 61.7761 41.114 61.7774 42.2461C61.7788 43.3782 61.3909 44.3309 60.6136 45.1041C59.8364 45.8772 58.8837 46.2652 57.7557 46.2679C56.6276 46.2706 55.6743 45.8826 54.8957 45.1041ZM50.2404 62.005L52.2645 66.7109C52.5343 67.3856 53.0235 67.7904 53.7319 67.9253C54.4403 68.0603 55.0475 67.8747 55.5535 67.3687L61.9293 60.9929C62.4015 60.5207 62.7389 59.9559 62.9413 59.2988C63.1437 58.6416 63.1774 57.9751 63.0425 57.299L62.5365 54.6677C60.6811 56.2195 58.7333 57.6114 56.6931 58.8434C54.6528 60.0754 52.5019 61.1292 50.2404 62.005ZM33.7951 57.6532C34.9758 56.4725 36.4095 55.8734 38.0962 55.8559C39.7829 55.8383 41.2166 56.4206 42.3973 57.6026C43.5779 58.7847 44.1683 60.2184 44.1683 61.9038C44.1683 63.5891 43.5779 65.0228 42.3973 66.2049C40.778 67.8241 38.8633 68.7856 36.653 69.0892C34.4428 69.3928 32.2251 69.6964 30 70C30.3036 67.7735 30.616 65.5558 30.9371 63.3469C31.2583 61.138 32.2109 59.2401 33.7951 57.6532Z" fill="var(--fill-0, #22396A)"/>
<path id="Vector 2" d="M75.4743 30C76.1445 31.845 76.2551 36.2717 74.2216 39.6728" stroke="var(--stroke-0, #22396A)" stroke-width="2" stroke-linecap="round"/>
<path id="Vector 3" d="M26.6595 62C25.8874 64.5636 22.3378 69.5319 17.2097 71.6766" stroke="var(--stroke-0, #22396A)" stroke-width="2" stroke-linecap="round"/>
<path id="Vector 4" d="M34 75.8638C34.7568 74.8126 37.2092 73.0852 39.9942 72.8826" stroke="var(--stroke-0, #22396A)" stroke-width="2" stroke-linecap="round"/>
</g>
</svg>
