<svg preserveAspectRatio="none" width="100%" height="100%" overflow="visible" style="display: block;" viewBox="0 0 271 31" fill="none" xmlns="http://www.w3.org/2000/svg">
<g id="Anna Bansell">
<path id="Vector" d="M249.347 0.839999C248.6 0.839999 248 1.24 247.547 2.04C247.12 2.84 246.907 3.88 246.907 5.16V27.76H259.427C260.254 27.76 261.067 27.72 261.867 27.64C262.667 27.5333 263.427 27.3467 264.147 27.08C264.894 26.7867 265.574 26.4 266.187 25.92C266.827 25.4133 267.4 24.76 267.907 23.96H268.347L267.347 28.64H240.627V28.44H240.747C241.494 28.44 242.08 28.04 242.507 27.24C242.96 26.44 243.187 25.4 243.187 24.12V5.16C243.187 3.88 242.96 2.84 242.507 2.04C242.08 1.24 241.494 0.839999 240.747 0.839999H240.627V0.639999H249.467V0.839999H249.347ZM260.747 0.839999C260.054 0.839999 259.48 1.2 259.027 1.92C258.6 2.64 258.36 3.6 258.307 4.8V21.16H260.827C262.507 21.16 264.134 20.68 265.707 19.72C267.28 18.7333 268.574 17.44 269.587 15.84H270.027L268.747 22.04H252.027V21.84H252.147C252.867 21.84 253.454 21.4533 253.907 20.68C254.36 19.88 254.587 18.84 254.587 17.56V5.16C254.587 3.88 254.36 2.84 253.907 2.04C253.454 1.24 252.867 0.839999 252.147 0.839999H252.027V0.639999H260.867V0.839999H260.747Z" fill="var(--fill-0, white)"/>
<path id="Vector_2" d="M231.168 14C231.648 14 232.074 13.9467 232.448 13.84C232.821 13.7067 233.168 13.4933 233.488 13.2C233.834 12.9067 234.154 12.52 234.448 12.04C234.768 11.56 235.101 10.9467 235.448 10.2L235.808 10.16V18.8L235.448 18.76C235.101 18.0133 234.768 17.4 234.448 16.92C234.154 16.44 233.834 16.0533 233.488 15.76C233.168 15.4667 232.821 15.2667 232.448 15.16C232.074 15.0267 231.648 14.96 231.168 14.96H224.368V27.76H230.248C231.074 27.76 231.901 27.6267 232.728 27.36C233.581 27.0933 234.381 26.7333 235.128 26.28C235.901 25.8 236.621 25.24 237.288 24.6C237.954 23.9333 238.541 23.2133 239.048 22.44H239.448L238.208 28.64H218.088V28.44H218.208C218.928 28.44 219.514 28.04 219.968 27.24C220.421 26.44 220.648 25.4 220.648 24.12V5.16C220.648 3.88 220.421 2.84 219.968 2.04C219.514 1.24 218.928 0.839999 218.208 0.839999H218.088V0.639999H237.208L238.488 6.84H238.088C237.074 5.26667 235.768 3.98667 234.168 3C232.594 2.01333 230.968 1.52 229.288 1.52H224.368V14H231.168Z" fill="var(--fill-0, white)"/>
<path id="Vector_3" d="M160.757 25.28L157.677 17.76C157.437 17.7333 157.197 17.72 156.957 17.72C156.717 17.72 156.478 17.72 156.238 17.72C155.464 17.72 154.624 17.76 153.717 17.84C152.811 17.8933 151.904 18.0133 150.997 18.2C150.091 18.36 149.224 18.6133 148.397 18.96C147.571 19.28 146.864 19.6933 146.277 20.2C145.771 20.6533 145.331 21.2 144.957 21.84C144.664 22.56 144.437 23.3067 144.277 24.08C144.117 24.8267 144.078 25.5067 144.158 26.12C144.264 26.7333 144.531 27.24 144.957 27.64C145.411 28.04 146.077 28.24 146.957 28.24V28.64H138.438V28.32C139.024 28.32 139.544 28.2 139.997 27.96C140.477 27.72 140.931 27.3333 141.357 26.8C141.784 26.2667 142.211 25.5867 142.637 24.76C143.091 23.9067 143.598 22.8933 144.158 21.72L144.117 21.68L144.357 21.28L144.957 19.96L153.837 0.639999H154.677L161.677 17.12C163.277 17.2267 164.864 17.36 166.438 17.52C168.038 17.6533 169.638 17.76 171.238 17.84V5.16C171.238 3.88 171.011 2.84 170.557 2.04C170.104 1.24 169.504 0.839999 168.757 0.839999H168.677V0.639999H174.397C175.171 1.73333 175.998 2.90667 176.878 4.16C177.784 5.41333 178.731 6.70667 179.717 8.04C180.731 9.34667 181.771 10.68 182.837 12.04C183.931 13.4 185.064 14.7333 186.238 16.04C187.331 15.4533 188.264 14.68 189.037 13.72C189.837 12.76 190.384 11.52 190.677 10C190.731 9.62667 190.771 9.26667 190.798 8.92C190.851 8.57333 190.878 8.21333 190.878 7.84C190.878 6.88 190.771 5.98667 190.557 5.16C190.371 4.30667 190.064 3.58667 189.637 3C189.237 2.38667 188.717 1.90667 188.077 1.56C187.464 1.21333 186.731 1.04 185.878 1.04V0.639999H194.318V0.839999H194.197C193.824 0.839999 193.491 1.05333 193.197 1.48C192.904 1.88 192.651 2.4 192.438 3.04C192.224 3.68 192.051 4.37333 191.917 5.12C191.811 5.84 191.757 6.52 191.757 7.16V7.84H191.677C191.571 10.1333 191.091 11.9867 190.238 13.4C189.384 14.8133 188.238 15.9067 186.798 16.68C188.344 18.3867 189.931 20 191.557 21.52C193.184 23.04 194.838 24.3733 196.518 25.52C198.198 26.64 199.891 27.5333 201.597 28.2C203.304 28.8667 204.998 29.2 206.678 29.2C207.664 29.2 208.584 29.0667 209.438 28.8C210.317 28.5333 211.078 28.1733 211.717 27.72C212.358 27.24 212.864 26.68 213.238 26.04C213.611 25.4 213.798 24.6933 213.798 23.92C213.798 22.6667 213.357 21.6133 212.477 20.76C211.597 19.88 210.491 19.0933 209.158 18.4C207.851 17.7067 206.424 17.0533 204.878 16.44C203.331 15.8267 201.891 15.1333 200.557 14.36C199.251 13.56 198.157 12.64 197.277 11.6C196.397 10.56 195.958 9.28 195.958 7.76C195.958 6.45333 196.224 5.32 196.757 4.36C197.317 3.37333 198.037 2.56 198.917 1.92C199.824 1.28 200.851 0.799999 201.997 0.479999C203.144 0.16 204.318 0 205.518 0C206.718 0 207.891 0.146666 209.037 0.439999C210.184 0.706666 211.211 1.12 212.117 1.68C213.024 2.24 213.744 2.94667 214.277 3.8C214.837 4.65333 215.117 5.65333 215.117 6.8L211.557 8.2C211.557 6.49333 211.238 5.12 210.598 4.08C209.958 3.04 209.144 2.26667 208.158 1.76C207.198 1.25333 206.144 0.999999 204.997 0.999999C203.877 0.973333 202.824 1.16 201.837 1.56C200.877 1.96 200.078 2.53333 199.438 3.28C198.798 4.02667 198.477 4.90667 198.477 5.92C198.477 6.88 198.731 7.73333 199.238 8.48C199.771 9.22667 200.464 9.92 201.317 10.56C202.171 11.1733 203.144 11.7467 204.238 12.28C205.331 12.7867 206.451 13.2933 207.598 13.8C208.744 14.3067 209.864 14.8267 210.958 15.36C212.051 15.8933 213.024 16.48 213.878 17.12C214.731 17.76 215.411 18.4667 215.917 19.24C216.451 20.0133 216.717 20.8933 216.717 21.88C216.717 23.1867 216.384 24.3733 215.717 25.44C215.077 26.48 214.211 27.3733 213.118 28.12C212.024 28.8667 210.771 29.44 209.357 29.84C207.971 30.24 206.517 30.44 204.997 30.44C202.864 30.44 200.851 30.1867 198.958 29.68C197.091 29.1733 195.278 28.4133 193.518 27.4C191.758 26.36 190.011 25.0667 188.277 23.52C186.571 21.9467 184.811 20.12 182.997 18.04C181.797 18.3333 180.544 18.52 179.238 18.6C177.958 18.68 176.637 18.72 175.277 18.72C174.744 18.72 174.211 18.72 173.677 18.72C173.171 18.6933 172.651 18.6667 172.117 18.64V21.44C172.117 22.4 172.211 23.3067 172.397 24.16C172.611 24.9867 172.917 25.7067 173.317 26.32C173.744 26.9067 174.264 27.3733 174.878 27.72C175.518 28.0667 176.264 28.24 177.117 28.24L177.077 28.64H168.677V28.44H168.798C169.144 28.44 169.464 28.24 169.757 27.84C170.077 27.4133 170.344 26.88 170.557 26.24C170.771 25.6 170.931 24.92 171.037 24.2C171.171 23.4533 171.238 22.76 171.238 22.12V18.64C169.691 18.56 168.144 18.4533 166.597 18.32C165.077 18.1867 163.557 18.0667 162.037 17.96L165.197 25.4H165.238L165.757 26.64C165.971 27.12 166.304 27.5067 166.757 27.8C167.211 28.0933 167.704 28.24 168.238 28.24V28.64H159.238V28.24H159.397C160.171 28.24 160.704 28.0267 160.997 27.6C161.291 27.1733 161.291 26.6 160.997 25.88L160.757 25.28ZM175.277 17.92C176.424 17.92 177.597 17.8933 178.798 17.84C180.024 17.76 181.224 17.6 182.397 17.36C180.824 15.52 179.198 13.48 177.518 11.24C175.838 9 174.037 6.54667 172.117 3.88V17.84C172.651 17.8667 173.171 17.8933 173.677 17.92C174.211 17.92 174.744 17.92 175.277 17.92ZM157.317 16.92L152.597 5.24L146.077 19.32C146.717 18.8133 147.464 18.4133 148.317 18.12C149.171 17.8 150.051 17.56 150.957 17.4C151.891 17.2133 152.811 17.0933 153.717 17.04C154.624 16.96 155.464 16.92 156.238 16.92H157.317Z" fill="var(--fill-0, white)"/>
<path id="Vector_4" d="M115.705 0.839999V0.639999H127.505C128.998 0.639999 130.358 0.8 131.585 1.12C132.812 1.41333 133.852 1.81333 134.705 2.32C135.585 2.82667 136.252 3.42667 136.705 4.12C137.185 4.78667 137.425 5.49334 137.425 6.24C137.425 7.49333 136.878 8.76 135.785 10.04C134.692 11.32 132.998 12.4133 130.705 13.32C132.092 13.32 133.318 13.5333 134.385 13.96C135.452 14.36 136.332 14.8933 137.025 15.56C137.718 16.2267 138.238 17 138.585 17.88C138.958 18.76 139.145 19.6533 139.145 20.56C139.145 21.5467 138.892 22.5333 138.385 23.52C137.905 24.48 137.212 25.3467 136.305 26.12C135.398 26.8667 134.292 27.48 132.985 27.96C131.678 28.4133 130.212 28.64 128.585 28.64H115.705V28.44H115.825C116.545 28.44 117.132 28.04 117.585 27.24C118.038 26.44 118.265 25.4 118.265 24.12V5.16C118.265 3.88 118.038 2.84 117.585 2.04C117.132 1.24 116.545 0.839999 115.825 0.839999H115.705ZM129.065 13C130.158 12.6533 131.052 12.1333 131.745 11.44C132.438 10.72 132.918 9.93333 133.185 9.08C133.478 8.22667 133.585 7.36 133.505 6.48C133.425 5.57333 133.172 4.76 132.745 4.04C132.318 3.29333 131.732 2.69333 130.985 2.24C130.238 1.76 129.345 1.52 128.305 1.52H121.985V15.28L129.065 13ZM121.985 16.16V27.76H128.345C129.838 27.76 131.078 27.4267 132.065 26.76C133.052 26.0667 133.798 25.2 134.305 24.16C134.812 23.12 135.065 22.0133 135.065 20.84C135.092 19.64 134.892 18.52 134.465 17.48C134.065 16.44 133.438 15.5867 132.585 14.92C131.732 14.2267 130.692 13.88 129.465 13.88H129.185L121.985 16.16Z" fill="var(--fill-0, white)"/>
<path id="Vector_5" d="M81.9184 28.64H73.3984V28.32C74.0651 28.32 74.6384 28.1733 75.1184 27.88C75.6251 27.56 76.1184 27.0667 76.5984 26.4C77.0784 25.7333 77.5718 24.8667 78.0784 23.8C78.6118 22.7333 79.2251 21.4533 79.9184 19.96L88.7984 0.639999H89.6384L100.158 25.4H100.198L100.718 26.64C100.932 27.12 101.265 27.5067 101.718 27.8C102.172 28.0933 102.665 28.24 103.198 28.24V28.64H94.1984V28.24H94.3584C95.1318 28.24 95.6651 28.0267 95.9584 27.6C96.2518 27.1733 96.2518 26.6 95.9584 25.88L95.8384 25.64L95.7184 25.28L93.3984 19.56H80.9584L80.1184 21.36C79.7718 22.1067 79.4918 22.88 79.2784 23.68C79.0918 24.48 79.0251 25.2267 79.0784 25.92C79.1584 26.5867 79.4118 27.1467 79.8384 27.6C80.2918 28.0267 80.9851 28.24 81.9184 28.24V28.64ZM81.3584 18.68H93.0384L87.5584 5.24L81.3584 18.68Z" fill="var(--fill-0, white)"/>
<path id="Vector_6" d="M73.7544 0.839999C73.381 0.839999 73.0344 1.05333 72.7144 1.48C72.421 1.88 72.1677 2.4 71.9544 3.04C71.741 3.68 71.5677 4.37333 71.4344 5.12C71.3277 5.84 71.2744 6.52 71.2744 7.16V26.92L71.3944 28.64H70.3944L53.3144 6V27.48L53.3944 28.64H52.4344L33.6744 3.76V21.44C33.6744 22.4 33.7677 23.3067 33.9544 24.16C34.1677 24.9867 34.4744 25.7067 34.8744 26.32C35.301 26.9067 35.821 27.3733 36.4344 27.72C37.0744 28.0667 37.821 28.24 38.6744 28.24L38.6344 28.64H30.2344V28.44H30.3544C30.701 28.44 31.0077 28.2533 31.2744 27.88C31.5677 27.5067 31.821 27.0267 32.0344 26.44C32.2477 25.8533 32.421 25.2133 32.5544 24.52C32.6877 23.8267 32.7677 23.16 32.7944 22.52V4.8C32.741 3.6 32.4877 2.64 32.0344 1.92C31.581 1.2 31.0077 0.839999 30.3144 0.839999H30.2344V0.639999H35.9544L52.4344 22.6V7.84C52.4344 6.34667 52.181 5.01333 51.6744 3.84L51.6344 3.76L51.5944 3.68C51.1944 2.88 50.6477 2.24 49.9544 1.76C49.2877 1.28 48.4477 1.04 47.4344 1.04V0.639999H53.9144L70.3944 22.56V7.84C70.3944 6.88 70.2877 5.98667 70.0744 5.16C69.8877 4.30667 69.581 3.58667 69.1544 3C68.7544 2.38667 68.2344 1.90667 67.5944 1.56C66.981 1.21333 66.2477 1.04 65.3944 1.04L65.4344 0.639999H73.8344V0.839999H73.7544Z" fill="var(--fill-0, white)"/>
<path id="Vector_7" d="M8.52 28.64H0V28.32C0.666667 28.32 1.24 28.1733 1.72 27.88C2.22667 27.56 2.72 27.0667 3.2 26.4C3.68 25.7333 4.17333 24.8667 4.68 23.8C5.21333 22.7333 5.82667 21.4533 6.52 19.96L15.4 0.639999H16.24L26.76 25.4H26.8L27.32 26.64C27.5333 27.12 27.8667 27.5067 28.32 27.8C28.7733 28.0933 29.2667 28.24 29.8 28.24V28.64H20.8V28.24H20.96C21.7333 28.24 22.2667 28.0267 22.56 27.6C22.8533 27.1733 22.8533 26.6 22.56 25.88L22.44 25.64L22.32 25.28L20 19.56H7.56L6.72 21.36C6.37333 22.1067 6.09333 22.88 5.88 23.68C5.69333 24.48 5.62667 25.2267 5.68 25.92C5.76 26.5867 6.01333 27.1467 6.44 27.6C6.89333 28.0267 7.58667 28.24 8.52 28.24V28.64ZM7.96 18.68H19.64L14.16 5.24L7.96 18.68Z" fill="var(--fill-0, white)"/>
</g>
</svg>
