<svg preserveAspectRatio="none" width="100%" height="100%" overflow="visible" style="display: block;" viewBox="0 0 60 36" fill="none" xmlns="http://www.w3.org/2000/svg">
<g id="Group">
<path id="Vector" d="M59.7931 17.9353C58.1867 19.4982 56.4645 20.937 54.7996 22.4373C54.5235 22.6854 54.1853 22.7712 53.8273 22.5973C53.4646 22.4211 53.2763 22.1231 53.2564 21.7231C53.2494 21.5689 53.2388 21.4124 53.2564 21.2605C53.2926 20.9486 53.1955 20.813 52.8481 20.8176C51.3107 20.835 49.7733 20.8443 48.236 20.8211C47.8312 20.8153 47.8113 21.0379 47.7633 21.3138C46.9993 25.6512 45.0326 29.3741 41.9392 32.5243C41.6034 32.8663 41.2243 32.9962 40.7821 32.82C40.1561 32.5695 40.0625 31.7858 40.6054 31.2374C41.8655 29.9643 42.9453 28.5591 43.8088 26.995C44.9647 24.9011 45.7369 22.6796 46.0236 20.3016C46.1546 19.2153 46.4143 18.9799 47.5048 18.9799C49.6458 18.9799 51.7857 18.9857 53.9268 18.9787C54.3597 18.9776 54.7481 19.0356 54.9786 19.4448C55.1131 19.6825 55.2208 19.6025 55.3752 19.4622C55.9906 18.9011 56.613 18.348 57.2402 17.7984C57.4098 17.65 57.4227 17.5468 57.2402 17.3892C56.6119 16.8419 55.9918 16.2854 55.3811 15.7208C55.1833 15.5376 55.0979 15.5596 54.9505 15.7903C54.7516 16.1022 54.4205 16.2019 54.0414 16.2008C51.7647 16.1926 49.4879 16.2008 47.2111 16.1973C46.5208 16.1973 46.2143 15.9666 46.1125 15.2686C45.7849 13.0274 45.1976 10.872 44.1598 8.84188C43.2741 7.10854 42.165 5.53868 40.8031 4.14389C40.6814 4.01983 40.5516 3.89925 40.4486 3.76128C40.1479 3.36012 40.1936 2.80939 40.5399 2.5033C40.9084 2.17866 41.4981 2.21228 41.9064 2.6204C42.8412 3.55142 43.6883 4.55896 44.4265 5.64998C46.1312 8.17289 47.2836 10.9207 47.7668 13.9294C47.8207 14.261 47.9646 14.3642 48.3062 14.3596C49.8038 14.341 51.3025 14.3422 52.8013 14.3607C53.1558 14.3654 53.3055 14.2692 53.2587 13.9063C53.2341 13.7161 53.2412 13.5202 53.2611 13.3289C53.2997 12.9474 53.5266 12.6923 53.8765 12.5578C54.293 12.3978 54.6299 12.5729 54.9353 12.8477C56.1614 13.9457 57.3923 15.0402 58.6172 16.1405C59.0174 16.4999 59.4023 16.8755 59.7931 17.2431V17.9376V17.9353Z" fill="var(--fill-0, #22396A)"/>
<path id="Vector_2" d="M44.3739 17.6303C44.4113 27.2593 36.4485 35.1307 26.6288 35.1724C16.9812 35.213 8.913 27.3185 8.88141 17.8042C8.84865 7.98506 16.7133 0.0267588 26.4779 9.20518e-05C36.3958 -0.0277342 44.3365 7.79491 44.3739 17.6303ZM26.6534 1.84822C17.7534 1.85749 10.6773 8.90216 10.7651 17.8309C10.8505 26.4373 17.9183 33.3962 26.7833 33.3185C35.502 33.242 42.5195 26.2298 42.5113 17.5132C42.5031 8.89057 35.3651 1.83778 26.6522 1.84706L26.6534 1.84822Z" fill="var(--fill-0, #22396A)"/>
<path id="Vector_3" d="M3.53229 16.1971C2.69576 16.1971 1.85922 16.2052 1.02386 16.1948C0.410786 16.1855 -0.00572636 15.7867 0.000123535 15.2429C0.00597343 14.7443 0.435356 14.3536 1.02035 14.3501C2.3237 14.342 3.62589 14.3339 4.92925 14.3582C5.30247 14.3652 5.43702 14.2388 5.49786 13.8887C6.24079 9.57098 8.19232 5.86197 11.2518 2.71413C11.7385 2.21326 12.3376 2.14022 12.7412 2.51935C13.1577 2.91008 13.1133 3.46892 12.6055 3.98718C9.90868 6.73734 8.17828 9.99069 7.40843 13.7472C7.3043 14.2539 7.24113 14.7687 7.1487 15.2777C7.02702 15.949 6.73921 16.1878 6.04307 16.1925C5.20653 16.1983 4.37117 16.1936 3.53463 16.1936V16.1959L3.53229 16.1971Z" fill="var(--fill-0, #22396A)"/>
<path id="Vector_4" d="M3.55097 18.9809C4.36761 18.9809 5.18426 18.9774 5.99973 18.9809C6.7415 18.9856 7.03517 19.1966 7.14163 19.9166C7.51018 22.4047 8.20865 24.7827 9.45117 26.9879C10.2982 28.4929 11.315 29.8726 12.5341 31.1027C12.754 31.3253 12.9763 31.5445 13.0079 31.8737C13.0477 32.2749 12.9061 32.6042 12.5364 32.7862C12.0778 33.0123 11.6706 32.8882 11.3255 32.5335C10.338 31.5201 9.4383 30.4372 8.66144 29.2558C7.05506 26.8105 5.97516 24.1589 5.50132 21.2743C5.44282 20.9148 5.28722 20.8082 4.92569 20.8151C3.66211 20.8372 2.39854 20.8291 1.13496 20.8244C0.434142 20.8221 -0.0163005 20.4279 0.00709909 19.8563C0.0281587 19.3218 0.476261 18.9774 1.15953 18.9763C1.95628 18.974 2.75304 18.9763 3.5498 18.9763C3.5498 18.9774 3.5498 18.9786 3.5498 18.9798L3.55097 18.9809Z" fill="var(--fill-0, #22396A)"/>
<path id="Vector_5" d="M27.5636 12.4187C27.5636 12.7851 27.5741 13.1515 27.5613 13.5167C27.532 14.333 27.4185 15.1562 28.4645 15.5306C28.7149 15.6199 28.95 15.9538 29.0436 16.2251C29.1946 16.6646 29.4789 16.675 29.8486 16.6692C30.8981 16.6541 31.9475 16.6588 32.997 16.6634C33.7224 16.6669 34.1553 17.024 34.1494 17.6002C34.1448 18.1625 33.7013 18.5069 32.9724 18.5092C31.9031 18.5115 30.8349 18.5162 29.7655 18.5069C29.4555 18.5046 29.2542 18.5591 29.0787 18.8756C28.4785 19.9608 27.2957 20.5359 26.2146 20.3341C24.9721 20.1023 24.0642 19.1794 23.8524 17.9365C23.6734 16.8849 24.2537 15.7614 25.3407 15.1596C25.6226 15.0031 25.708 14.8454 25.7045 14.5405C25.6881 13.1735 25.694 11.8054 25.6975 10.4384C25.6987 9.70105 26.038 9.26975 26.6077 9.26395C27.2021 9.257 27.5578 9.70105 27.5589 10.4558C27.5601 11.1109 27.5589 11.766 27.5589 12.4199H27.5636V12.4187ZM26.6265 18.5173C27.1623 18.5115 27.5765 18.0883 27.5636 17.5596C27.5519 17.0565 27.1413 16.6611 26.6288 16.6599C26.1128 16.6576 25.6764 17.1063 25.6905 17.6223C25.7045 18.1266 26.1187 18.5231 26.6265 18.5173Z" fill="var(--fill-0, #22396A)"/>
<path id="Vector_6" d="M27.5636 29.6013C27.5636 29.9097 27.5753 30.2169 27.5613 30.5242C27.5367 31.061 27.1541 31.4517 26.6557 31.4668C26.1901 31.4807 25.7478 31.1225 25.7174 30.6204C25.6776 29.9491 25.6776 29.2732 25.7127 28.6019C25.7384 28.1149 26.2029 27.7532 26.6686 27.7798C27.1506 27.8077 27.5309 28.1798 27.5578 28.6784C27.5753 28.9856 27.5613 29.294 27.5613 29.6013H27.5648H27.5636Z" fill="var(--fill-0, #22396A)"/>
<path id="Vector_7" d="M27.5625 5.53389C27.5625 5.84114 27.5742 6.14954 27.5601 6.45679C27.5356 6.9936 27.1506 7.38549 26.6534 7.40056C26.2018 7.41448 25.7443 7.04114 25.7139 6.54723C25.6741 5.87592 25.6741 5.19997 25.7104 4.52867C25.7361 4.03939 26.1983 3.68228 26.6674 3.71011C27.1518 3.73794 27.5274 4.10895 27.5554 4.60982C27.573 4.91707 27.559 5.22548 27.559 5.53273C27.559 5.53273 27.5613 5.53273 27.5625 5.53273V5.53389Z" fill="var(--fill-0, #22396A)"/>
<path id="Vector_8" d="M34.6374 10.6412C33.8488 10.6331 33.3633 9.83306 33.7669 9.28349C34.222 8.66436 34.7918 8.12986 35.4025 7.65797C35.743 7.39594 36.1548 7.45623 36.4742 7.7345C36.8089 8.02667 36.9528 8.44754 36.6872 8.82088C36.2075 9.4945 35.6073 10.0719 34.9275 10.5542C34.8257 10.6261 34.676 10.6307 34.6374 10.6412Z" fill="var(--fill-0, #22396A)"/>
<path id="Vector_9" d="M17.5088 27.6606C16.9835 27.6548 16.7331 27.4612 16.567 27.1551C16.3833 26.8154 16.4161 26.4595 16.6653 26.1882C17.1344 25.678 17.6246 25.1818 18.1465 24.725C18.5138 24.4038 18.9479 24.4571 19.3106 24.7702C19.6791 25.0879 19.7762 25.5203 19.4837 25.9041C19.0169 26.5163 18.4471 27.0415 17.8493 27.5319C17.7077 27.6479 17.5299 27.6606 17.5088 27.6606Z" fill="var(--fill-0, #22396A)"/>
<path id="Vector_10" d="M19.6277 9.65354C19.6242 10.086 19.4522 10.3608 19.1106 10.537C18.7888 10.7028 18.4577 10.7156 18.191 10.4721C17.6645 9.99209 17.1415 9.50281 16.6665 8.97411C16.3459 8.61701 16.3775 8.18107 16.7016 7.8228C17.0233 7.46686 17.4574 7.36947 17.8493 7.65816C18.4706 8.11614 18.9912 8.69121 19.4943 9.2744C19.5973 9.39382 19.6417 9.54339 19.6277 9.65354Z" fill="var(--fill-0, #22396A)"/>
<path id="Vector_11" d="M14.4634 16.6691C14.7933 16.6691 15.1244 16.6493 15.4532 16.6737C15.9621 16.7108 16.3471 17.1073 16.3529 17.5641C16.3588 18.0546 15.9703 18.4789 15.438 18.4998C14.798 18.5241 14.1569 18.5241 13.5169 18.4998C13.0009 18.4801 12.6078 18.0325 12.623 17.5444C12.637 17.076 13.0185 16.698 13.5309 16.6691C13.841 16.6517 14.1522 16.6656 14.4622 16.6656C14.4622 16.6667 14.4622 16.6679 14.4622 16.6691H14.4634Z" fill="var(--fill-0, #22396A)"/>
<path id="Vector_12" d="M35.8144 27.6501C35.6506 27.6687 35.5043 27.6061 35.385 27.5075C34.8058 27.0252 34.2513 26.5116 33.7926 25.9156C33.4931 25.5261 33.5762 25.1017 33.9295 24.7736C34.284 24.4455 34.7298 24.3991 35.0925 24.7121C35.6318 25.1771 36.1279 25.6953 36.6111 26.2194C36.8685 26.4988 36.8615 26.8582 36.6813 27.1898C36.4988 27.5261 36.2028 27.6814 35.8132 27.649L35.8144 27.6501Z" fill="var(--fill-0, #22396A)"/>
<path id="Vector_13" d="M38.7603 16.6645C39.0516 16.6645 39.343 16.6553 39.6331 16.6669C40.2193 16.6912 40.6405 17.0761 40.6393 17.5724C40.6393 18.1092 40.2204 18.493 39.5992 18.5069C39.0563 18.5185 38.5123 18.5161 37.9694 18.5092C37.3528 18.5011 36.9234 18.1231 36.9094 17.5932C36.8954 17.0622 37.3224 16.6773 37.946 16.6634C38.2174 16.6576 38.4889 16.6634 38.7603 16.6634V16.6645Z" fill="var(--fill-0, #22396A)"/>
</g>
</svg>
