<svg preserveAspectRatio="none" width="100%" height="100%" overflow="visible" style="display: block;" viewBox="0 0 96 91" fill="none" xmlns="http://www.w3.org/2000/svg">
<g id="Group">
<path id="Vector" d="M66.1005 3.03714C55.5745 3.85972 47.0147 7.99396 41.6937 17.507C40.6184 19.427 40.0067 21.5389 39.6611 23.7168C39.4872 24.8164 38.6373 25.5794 37.7358 25.4813C36.7098 25.3684 36.0723 24.5309 36.2655 23.2991C36.9759 18.7771 38.7575 14.6876 41.6401 11.1223C46.6326 4.94443 53.2264 1.54114 61.0414 0.401032C69.4939 -0.830714 77.3562 0.731344 84.3707 5.69242C90.4428 9.98862 93.92 15.9833 95.3474 23.1691C97.3907 33.46 94.5274 42.5851 88.5368 50.9623C86.8605 53.3064 84.9566 55.4652 83.2223 57.7603C79.288 62.9686 77.2532 68.846 76.9098 75.3542C76.7831 77.7538 75.6992 79.9232 74.5101 81.9882C70.7389 88.5412 64.1709 91.7463 56.6155 90.8555C51.6445 90.2694 47.3559 88.4176 44.1299 84.5071C41.8139 81.6984 40.7536 78.3974 40.5519 74.8193C40.4639 73.2658 40.5046 71.7059 40.7429 70.1566C40.9189 69.0059 41.5993 68.3559 42.6424 68.4433C43.6448 68.5264 44.2608 69.204 44.1471 70.3676C43.9389 72.5242 43.8058 74.6702 44.2501 76.8076C45.3383 82.0287 48.5944 85.27 53.6578 86.7745C59.1397 88.4026 64.2546 87.7761 68.6762 83.9509C71.679 81.3531 73.2566 78.0181 73.5571 74.033C74.1452 66.2355 77.1673 59.4481 82.2522 53.4876C86.0728 49.0102 89.3567 44.1664 91.1426 38.4935C94.0059 29.3982 92.9584 20.8612 86.9936 13.2321C82.6385 7.66151 76.8346 4.39035 69.773 3.35466C68.5624 3.17779 67.3561 3.18418 66.0962 3.03927L66.1005 3.03714Z" fill="var(--fill-0, #22396A)"/>
<path id="Vector_2" d="M33.8916 64.9824C33.8916 63.7017 33.8873 62.3783 33.8916 61.0549C33.9023 58.9686 35.1751 57.69 37.2786 57.6602C38.2058 57.6474 39.1352 57.6751 40.0625 57.6538C41.6594 57.6197 42.6532 56.7438 42.6596 55.1732C42.694 48.5116 42.6918 41.8478 42.6596 35.1861C42.6532 33.6752 41.6615 32.7418 40.1419 32.7397C28.7552 32.7248 17.3686 32.7248 5.98189 32.7354C4.54166 32.7354 3.57578 33.6859 3.4706 35.1051C3.4427 35.493 3.48563 35.8851 3.46202 36.2751C3.40192 37.2 2.71078 37.8563 1.80285 37.8798C0.892772 37.9011 0.15441 37.2809 0.0513825 36.3603C-0.461608 31.7892 2.95761 29.2703 6.24375 29.298C17.4866 29.3939 28.7316 29.33 39.9745 29.3364C43.589 29.3385 46.0874 31.8191 46.0939 35.4014C46.1046 41.9586 46.1046 48.5137 46.0939 55.0709C46.0874 58.5275 43.5826 60.9995 40.1054 61.0677C39.1975 61.0847 37.9869 60.6415 37.4653 61.3064C37.0232 61.869 37.3194 63.007 37.3043 63.8913C37.2936 64.5988 37.3172 65.3085 37.3065 66.0181C37.285 67.431 36.5552 68.5242 35.3254 69.0165C34.0998 69.5045 32.8377 69.204 31.8375 68.1279C29.8778 66.0181 27.9246 63.902 26.0078 61.756C25.5378 61.2297 25.0505 61.0357 24.3487 61.0379C18.3173 61.0634 12.2816 60.9569 6.25234 61.089C2.65282 61.1679 -0.0731088 58.2291 0.0170401 54.8813C0.120067 51.1626 0.0406505 47.4396 0.0406505 43.7188C0.0406505 42.1696 0.607301 41.3811 1.72558 41.3704C2.86746 41.3598 3.45987 42.1397 3.46202 43.6613C3.46202 47.348 3.46202 51.0326 3.46845 54.7193C3.4706 56.8312 4.31199 57.6751 6.44766 57.6772C12.5864 57.6815 18.7272 57.69 24.8659 57.6623C26.1989 57.6559 27.2699 58.0437 28.165 59.0645C29.8756 61.0144 31.6464 62.9111 33.3915 64.8311C33.4837 64.9334 33.5524 65.0677 33.8873 64.991L33.8916 64.9824Z" fill="var(--fill-0, #22396A)"/>
<path id="Vector_3" d="M83.2674 28.8953C83.188 34.3955 81.2262 39.1754 78.2856 43.6336C76.6758 46.0737 74.5595 48.1109 72.8531 50.4721C70.5972 53.592 68.7277 56.9207 67.3046 60.4902C67.0599 61.1039 66.7594 61.6559 66.0726 61.8562C65.4029 62.0522 64.7933 61.918 64.3061 61.4087C63.748 60.8226 63.7824 60.145 64.0249 59.4289C65.184 56.0065 67.0277 52.9484 69.1076 50.0161C71.6725 46.3997 74.5208 42.9836 76.8947 39.233C78.8115 36.2069 79.9813 32.9251 79.9212 29.3279C79.7881 21.5495 73.5335 15.4675 65.8086 15.7659C60.992 15.9534 56.9375 17.9396 53.9476 21.8117C53.4668 22.4339 53.2156 23.1798 52.9044 23.8958C52.6619 24.4542 52.8142 24.5927 53.3788 24.7184C55.7076 25.2363 57.8304 26.2187 59.6205 27.8063C63.9863 31.6784 65.0745 37.6177 62.4044 42.8984C61.5243 44.6373 60.5778 46.3422 59.7235 48.0939C58.4249 50.7534 58.0429 53.4641 59.35 56.2686C59.7943 57.2212 59.3436 58.1865 58.4421 58.5531C57.5342 58.9239 56.6391 58.5318 56.1948 57.511C54.6988 54.0715 54.7954 50.6597 56.3343 47.2436C57.238 45.2361 58.3734 43.3523 59.3565 41.3875C62.0867 35.9256 59.1526 29.6113 53.2414 28.1814C52.4923 28.0002 52.3549 28.0684 52.4773 28.874C52.7327 30.5511 53.0976 32.2005 53.4818 33.8478C53.7844 35.152 53.3702 36.079 52.3485 36.3284C51.2796 36.5884 50.4725 36.0066 50.1828 34.6896C49.6891 32.4563 48.9743 30.2634 48.882 27.9512C48.6824 22.9283 50.7816 18.9667 54.8405 16.1665C61.0843 11.8554 67.8369 10.9178 74.6668 14.581C80.2968 17.6007 83.2073 22.532 83.2674 28.8974V28.8953Z" fill="var(--fill-0, #22396A)"/>
<path id="Vector_4" d="M23.0522 38.8941C25.7996 38.8941 28.547 38.8856 31.2923 38.8984C32.5823 38.9048 33.2605 39.5164 33.2455 40.6096C33.2326 41.6176 32.5136 42.2825 31.3266 42.2868C25.8318 42.2996 20.3392 42.2974 14.8444 42.2846C13.5887 42.2825 12.8718 41.607 12.8826 40.5329C12.8933 39.4994 13.5673 38.9005 14.81 38.892C17.5574 38.8771 20.3048 38.8878 23.0501 38.8878V38.8941H23.0522Z" fill="var(--fill-0, #22396A)"/>
<path id="Vector_5" d="M65.1646 67.2584C64.8856 68.7118 64.5422 70.3697 64.422 72.0618C64.3769 72.6947 64.3597 73.3361 64.2503 73.9584C63.6772 77.1976 60.9234 78.8833 57.3475 78.1821C56.446 78.0053 55.538 77.8007 54.7374 77.3127C53.7544 76.7139 53.4174 75.7208 53.8939 74.8876C54.4133 73.9797 55.274 73.7709 56.373 74.3207C57.2187 74.7448 58.1309 74.8918 59.0495 74.9515C60.1099 75.0197 60.8268 74.2546 60.8804 73.0442C60.9792 70.8876 61.3526 68.7736 61.7776 66.6638C61.9751 65.6836 62.7929 65.0762 63.6836 65.1849C64.6431 65.3021 65.199 65.9947 65.1646 67.2584Z" fill="var(--fill-0, #22396A)"/>
<path id="Vector_6" d="M23.0136 51.5206C21.6614 51.5206 20.307 51.5398 18.9547 51.5142C17.7635 51.4929 17.0123 50.8451 16.9822 49.8818C16.9522 48.8909 17.742 48.1301 18.959 48.1152C21.6657 48.0832 24.3723 48.0854 27.0767 48.1173C28.3839 48.1322 29.2188 48.8909 29.1673 49.8882C29.1137 50.8941 28.3431 51.5121 27.0724 51.5249C25.7202 51.5398 24.3658 51.5291 23.0136 51.5291V51.5206Z" fill="var(--fill-0, #22396A)"/>
</g>
</svg>
