<svg preserveAspectRatio="none" width="84" height="79" overflow="visible" style="display: block;" viewBox="0 0 84 79" fill="none" xmlns="http://www.w3.org/2000/svg">
<g id="Group">
<path id="Vector" d="M22.8333 22.8333H56.1667M22.8333 39.5H37.4167M33.1667 66.6333L22.8333 72.8333V60.3333H14.5C11.1848 60.3333 8.00537 59.0164 5.66117 56.6722C3.31696 54.328 2 51.1485 2 47.8333V14.5C2 11.1848 3.31696 8.00537 5.66117 5.66117C8.00537 3.31696 11.1848 2 14.5 2H64.5C67.8152 2 70.9946 3.31696 73.3388 5.66117C75.683 8.00537 77 11.1848 77 14.5V31.1667" stroke="var(--stroke-0, #22396A)" stroke-width="4" stroke-linecap="round" stroke-linejoin="round"/>
<path id="Vector_2" d="M64.5 77L78.4583 63.3167C79.3143 62.486 79.9952 61.4924 80.4608 60.3943C80.9264 59.2961 81.1673 58.1159 81.1692 56.9231C81.1712 55.7304 80.9341 54.5494 80.4721 53.4498C80.0101 52.3501 79.3324 51.3542 78.4792 50.5208C76.7391 48.8161 74.4015 47.8593 71.9655 47.8546C69.5295 47.8499 67.1883 48.7978 65.4417 50.4958L64.5083 51.4125L63.5792 50.4958C61.8393 48.7924 59.5025 47.8363 57.0676 47.8316C54.6326 47.827 52.2923 48.7741 50.5458 50.4708C49.6896 51.3012 49.0084 52.2947 48.5424 53.3926C48.0765 54.4906 47.8352 55.6707 47.8329 56.8635C47.8305 58.0562 48.0672 59.2373 48.5288 60.3371C48.9905 61.4369 49.6678 62.433 50.5208 63.2667L64.5 77Z" stroke="var(--stroke-0, #22396A)" stroke-width="4" stroke-linecap="round" stroke-linejoin="round"/>
</g>
</svg>
