<svg width="271" height="32" viewBox="0 0 271 32" fill="none" xmlns="http://www.w3.org/2000/svg">
<path d="M249.347 1.62C248.6 1.62 248 2.02 247.547 2.82C247.12 3.62 246.907 4.66 246.907 5.94V28.54H259.427C260.253 28.54 261.067 28.5 261.867 28.42C262.667 28.3133 263.427 28.1267 264.147 27.86C264.893 27.5667 265.573 27.18 266.187 26.7C266.827 26.1933 267.4 25.54 267.907 24.74H268.347L267.347 29.42H240.627V29.22H240.747C241.493 29.22 242.08 28.82 242.507 28.02C242.96 27.22 243.187 26.18 243.187 24.9V5.94C243.187 4.66 242.96 3.62 242.507 2.82C242.08 2.02 241.493 1.62 240.747 1.62H240.627V1.42H249.467V1.62H249.347ZM260.747 1.62C260.053 1.62 259.48 1.98 259.027 2.7C258.6 3.42 258.36 4.38 258.307 5.58V21.94H260.827C262.507 21.94 264.133 21.46 265.707 20.5C267.28 19.5133 268.573 18.22 269.587 16.62H270.027L268.747 22.82H252.027V22.62H252.147C252.867 22.62 253.453 22.2333 253.907 21.46C254.36 20.66 254.587 19.62 254.587 18.34V5.94C254.587 4.66 254.36 3.62 253.907 2.82C253.453 2.02 252.867 1.62 252.147 1.62H252.027V1.42H260.867V1.62H260.747Z" fill="white"/>
<path d="M231.168 14.78C231.648 14.78 232.074 14.7267 232.448 14.62C232.821 14.4867 233.168 14.2733 233.488 13.98C233.834 13.6867 234.154 13.3 234.448 12.82C234.768 12.34 235.101 11.7267 235.448 10.98L235.808 10.94V19.58L235.448 19.54C235.101 18.7933 234.768 18.18 234.448 17.7C234.154 17.22 233.834 16.8333 233.488 16.54C233.168 16.2467 232.821 16.0467 232.448 15.94C232.074 15.8067 231.648 15.74 231.168 15.74H224.368V28.54H230.248C231.074 28.54 231.901 28.4067 232.728 28.14C233.581 27.8733 234.381 27.5133 235.128 27.06C235.901 26.58 236.621 26.02 237.288 25.38C237.954 24.7133 238.541 23.9933 239.048 23.22H239.448L238.208 29.42H218.088V29.22H218.208C218.928 29.22 219.514 28.82 219.968 28.02C220.421 27.22 220.648 26.18 220.648 24.9V5.94C220.648 4.66 220.421 3.62 219.968 2.82C219.514 2.02 218.928 1.62 218.208 1.62H218.088V1.42H237.208L238.488 7.62H238.088C237.074 6.04667 235.768 4.76667 234.168 3.78C232.594 2.79333 230.968 2.3 229.288 2.3H224.368V14.78H231.168Z" fill="white"/>
<path d="M160.757 26.06L157.677 18.54C157.437 18.5133 157.197 18.5 156.957 18.5C156.717 18.5 156.478 18.5 156.238 18.5C155.464 18.5 154.624 18.54 153.717 18.62C152.811 18.6733 151.904 18.7933 150.997 18.98C150.091 19.14 149.224 19.3933 148.397 19.74C147.571 20.06 146.864 20.4733 146.277 20.98C145.771 21.4333 145.331 21.98 144.957 22.62C144.664 23.34 144.437 24.0867 144.277 24.86C144.117 25.6067 144.078 26.2867 144.158 26.9C144.264 27.5133 144.531 28.02 144.957 28.42C145.411 28.82 146.077 29.02 146.957 29.02V29.42H138.438V29.1C139.024 29.1 139.544 28.98 139.997 28.74C140.477 28.5 140.931 28.1133 141.357 27.58C141.784 27.0467 142.211 26.3667 142.637 25.54C143.091 24.6867 143.598 23.6733 144.158 22.5L144.117 22.46L144.357 22.06L144.957 20.74L153.837 1.42H154.677L161.677 17.9C163.277 18.0067 164.864 18.14 166.438 18.3C168.038 18.4333 169.638 18.54 171.238 18.62V5.94C171.238 4.66 171.011 3.62 170.557 2.82C170.104 2.02 169.504 1.62 168.757 1.62H168.677V1.42H174.397C175.171 2.51333 175.998 3.68667 176.878 4.94C177.784 6.19333 178.731 7.48667 179.717 8.82C180.731 10.1267 181.771 11.46 182.837 12.82C183.931 14.18 185.064 15.5133 186.238 16.82C187.331 16.2333 188.264 15.46 189.037 14.5C189.837 13.54 190.384 12.3 190.677 10.78C190.731 10.4067 190.771 10.0467 190.798 9.7C190.851 9.35333 190.878 8.99333 190.878 8.62C190.878 7.66 190.771 6.76666 190.557 5.94C190.371 5.08667 190.064 4.36667 189.637 3.78C189.237 3.16666 188.717 2.68666 188.077 2.34C187.464 1.99333 186.731 1.82 185.878 1.82V1.42H194.318V1.62H194.197C193.824 1.62 193.491 1.83333 193.197 2.26C192.904 2.66 192.651 3.18 192.438 3.82C192.224 4.46 192.051 5.15333 191.917 5.9C191.811 6.62 191.757 7.3 191.757 7.94V8.62H191.677C191.571 10.9133 191.091 12.7667 190.238 14.18C189.384 15.5933 188.238 16.6867 186.798 17.46C188.344 19.1667 189.931 20.78 191.557 22.3C193.184 23.82 194.838 25.1533 196.518 26.3C198.198 27.42 199.891 28.3133 201.597 28.98C203.304 29.6467 204.998 29.98 206.678 29.98C207.664 29.98 208.584 29.8467 209.438 29.58C210.317 29.3133 211.077 28.9533 211.717 28.5C212.357 28.02 212.864 27.46 213.238 26.82C213.611 26.18 213.798 25.4733 213.798 24.7C213.798 23.4467 213.357 22.3933 212.477 21.54C211.597 20.66 210.491 19.8733 209.158 19.18C207.851 18.4867 206.424 17.8333 204.878 17.22C203.331 16.6067 201.891 15.9133 200.557 15.14C199.251 14.34 198.157 13.42 197.277 12.38C196.397 11.34 195.958 10.06 195.958 8.54C195.958 7.23333 196.224 6.1 196.757 5.14C197.317 4.15333 198.037 3.34 198.917 2.7C199.824 2.06 200.851 1.58 201.997 1.26C203.144 0.939998 204.318 0.779999 205.518 0.779999C206.717 0.779999 207.891 0.926665 209.037 1.22C210.184 1.48666 211.211 1.9 212.117 2.46C213.024 3.02 213.744 3.72666 214.277 4.58C214.837 5.43333 215.117 6.43333 215.117 7.58L211.557 8.98C211.557 7.27333 211.238 5.9 210.598 4.86C209.958 3.82 209.144 3.04666 208.158 2.54C207.198 2.03333 206.144 1.78 204.997 1.78C203.877 1.75333 202.824 1.94 201.837 2.34C200.877 2.74 200.077 3.31333 199.438 4.06C198.798 4.80667 198.477 5.68667 198.477 6.7C198.477 7.66 198.731 8.51333 199.238 9.26C199.771 10.0067 200.464 10.7 201.317 11.34C202.171 11.9533 203.144 12.5267 204.238 13.06C205.331 13.5667 206.451 14.0733 207.598 14.58C208.744 15.0867 209.864 15.6067 210.958 16.14C212.051 16.6733 213.024 17.26 213.878 17.9C214.731 18.54 215.411 19.2467 215.917 20.02C216.451 20.7933 216.717 21.6733 216.717 22.66C216.717 23.9667 216.384 25.1533 215.717 26.22C215.077 27.26 214.211 28.1533 213.118 28.9C212.024 29.6467 210.771 30.22 209.357 30.62C207.971 31.02 206.518 31.22 204.997 31.22C202.864 31.22 200.851 30.9667 198.958 30.46C197.091 29.9533 195.278 29.1933 193.518 28.18C191.758 27.14 190.011 25.8467 188.277 24.3C186.571 22.7267 184.811 20.9 182.997 18.82C181.798 19.1133 180.544 19.3 179.238 19.38C177.958 19.46 176.637 19.5 175.277 19.5C174.744 19.5 174.211 19.5 173.677 19.5C173.171 19.4733 172.651 19.4467 172.117 19.42V22.22C172.117 23.18 172.211 24.0867 172.397 24.94C172.611 25.7667 172.917 26.4867 173.317 27.1C173.744 27.6867 174.264 28.1533 174.878 28.5C175.518 28.8467 176.264 29.02 177.117 29.02L177.077 29.42H168.677V29.22H168.798C169.144 29.22 169.464 29.02 169.757 28.62C170.077 28.1933 170.344 27.66 170.557 27.02C170.771 26.38 170.931 25.7 171.037 24.98C171.171 24.2333 171.238 23.54 171.238 22.9V19.42C169.691 19.34 168.144 19.2333 166.597 19.1C165.077 18.9667 163.557 18.8467 162.037 18.74L165.197 26.18H165.238L165.757 27.42C165.971 27.9 166.304 28.2867 166.757 28.58C167.211 28.8733 167.704 29.02 168.238 29.02V29.42H159.238V29.02H159.397C160.171 29.02 160.704 28.8067 160.997 28.38C161.291 27.9533 161.291 27.38 160.997 26.66L160.757 26.06ZM175.277 18.7C176.424 18.7 177.597 18.6733 178.798 18.62C180.024 18.54 181.224 18.38 182.397 18.14C180.824 16.3 179.198 14.26 177.518 12.02C175.838 9.78 174.037 7.32666 172.117 4.66V18.62C172.651 18.6467 173.171 18.6733 173.677 18.7C174.211 18.7 174.744 18.7 175.277 18.7ZM157.317 17.7L152.597 6.02L146.077 20.1C146.717 19.5933 147.464 19.1933 148.317 18.9C149.171 18.58 150.051 18.34 150.957 18.18C151.891 17.9933 152.811 17.8733 153.717 17.82C154.624 17.74 155.464 17.7 156.238 17.7H157.317Z" fill="white"/>
<path d="M115.705 1.62V1.42H127.505C128.998 1.42 130.358 1.58 131.585 1.9C132.812 2.19333 133.852 2.59333 134.705 3.1C135.585 3.60666 136.252 4.20666 136.705 4.9C137.185 5.56667 137.425 6.27333 137.425 7.02C137.425 8.27333 136.878 9.54 135.785 10.82C134.692 12.1 132.998 13.1933 130.705 14.1C132.092 14.1 133.318 14.3133 134.385 14.74C135.452 15.14 136.332 15.6733 137.025 16.34C137.718 17.0067 138.238 17.78 138.585 18.66C138.958 19.54 139.145 20.4333 139.145 21.34C139.145 22.3267 138.892 23.3133 138.385 24.3C137.905 25.26 137.212 26.1267 136.305 26.9C135.398 27.6467 134.292 28.26 132.985 28.74C131.678 29.1933 130.212 29.42 128.585 29.42H115.705V29.22H115.825C116.545 29.22 117.132 28.82 117.585 28.02C118.038 27.22 118.265 26.18 118.265 24.9V5.94C118.265 4.66 118.038 3.62 117.585 2.82C117.132 2.02 116.545 1.62 115.825 1.62H115.705ZM129.065 13.78C130.158 13.4333 131.052 12.9133 131.745 12.22C132.438 11.5 132.918 10.7133 133.185 9.86C133.478 9.00667 133.585 8.14 133.505 7.26C133.425 6.35333 133.172 5.54 132.745 4.82C132.318 4.07333 131.732 3.47333 130.985 3.02C130.238 2.54 129.345 2.3 128.305 2.3H121.985V16.06L129.065 13.78ZM121.985 16.94V28.54H128.345C129.838 28.54 131.078 28.2067 132.065 27.54C133.052 26.8467 133.798 25.98 134.305 24.94C134.812 23.9 135.065 22.7933 135.065 21.62C135.092 20.42 134.892 19.3 134.465 18.26C134.065 17.22 133.438 16.3667 132.585 15.7C131.732 15.0067 130.692 14.66 129.465 14.66H129.185L121.985 16.94Z" fill="white"/>
<path d="M81.9184 29.42H73.3984V29.1C74.0651 29.1 74.6384 28.9533 75.1184 28.66C75.6251 28.34 76.1184 27.8467 76.5984 27.18C77.0784 26.5133 77.5718 25.6467 78.0784 24.58C78.6118 23.5133 79.2251 22.2333 79.9184 20.74L88.7984 1.42H89.6384L100.158 26.18H100.198L100.718 27.42C100.932 27.9 101.265 28.2867 101.718 28.58C102.172 28.8733 102.665 29.02 103.198 29.02V29.42H94.1984V29.02H94.3584C95.1318 29.02 95.6651 28.8067 95.9584 28.38C96.2518 27.9533 96.2518 27.38 95.9584 26.66L95.8384 26.42L95.7184 26.06L93.3984 20.34H80.9584L80.1184 22.14C79.7718 22.8867 79.4918 23.66 79.2784 24.46C79.0918 25.26 79.0251 26.0067 79.0784 26.7C79.1584 27.3667 79.4118 27.9267 79.8384 28.38C80.2918 28.8067 80.9851 29.02 81.9184 29.02V29.42ZM81.3584 19.46H93.0384L87.5584 6.02L81.3584 19.46Z" fill="white"/>
<path d="M73.7544 1.62C73.381 1.62 73.0344 1.83333 72.7144 2.26C72.421 2.66 72.1677 3.18 71.9544 3.82C71.741 4.46 71.5677 5.15333 71.4344 5.9C71.3277 6.62 71.2744 7.3 71.2744 7.94V27.7L71.3944 29.42H70.3944L53.3144 6.78V28.26L53.3944 29.42H52.4344L33.6744 4.54V22.22C33.6744 23.18 33.7677 24.0867 33.9544 24.94C34.1677 25.7667 34.4744 26.4867 34.8744 27.1C35.301 27.6867 35.821 28.1533 36.4344 28.5C37.0744 28.8467 37.821 29.02 38.6744 29.02L38.6344 29.42H30.2344V29.22H30.3544C30.701 29.22 31.0077 29.0333 31.2744 28.66C31.5677 28.2867 31.821 27.8067 32.0344 27.22C32.2477 26.6333 32.421 25.9933 32.5544 25.3C32.6877 24.6067 32.7677 23.94 32.7944 23.3V5.58C32.741 4.38 32.4877 3.42 32.0344 2.7C31.581 1.98 31.0077 1.62 30.3144 1.62H30.2344V1.42H35.9544L52.4344 23.38V8.62C52.4344 7.12667 52.181 5.79333 51.6744 4.62L51.6344 4.54L51.5944 4.46C51.1944 3.66 50.6477 3.02 49.9544 2.54C49.2877 2.06 48.4477 1.82 47.4344 1.82V1.42H53.9144L70.3944 23.34V8.62C70.3944 7.66 70.2877 6.76666 70.0744 5.94C69.8877 5.08667 69.581 4.36667 69.1544 3.78C68.7544 3.16667 68.2344 2.68667 67.5944 2.34C66.981 1.99333 66.2477 1.82 65.3944 1.82L65.4344 1.42H73.8344V1.62H73.7544Z" fill="white"/>
<path d="M8.52 29.42H0V29.1C0.666667 29.1 1.24 28.9533 1.72 28.66C2.22667 28.34 2.72 27.8467 3.2 27.18C3.68 26.5133 4.17333 25.6467 4.68 24.58C5.21333 23.5133 5.82667 22.2333 6.52 20.74L15.4 1.42H16.24L26.76 26.18H26.8L27.32 27.42C27.5333 27.9 27.8667 28.2867 28.32 28.58C28.7733 28.8733 29.2667 29.02 29.8 29.02V29.42H20.8V29.02H20.96C21.7333 29.02 22.2667 28.8067 22.56 28.38C22.8533 27.9533 22.8533 27.38 22.56 26.66L22.44 26.42L22.32 26.06L20 20.34H7.56L6.72 22.14C6.37333 22.8867 6.09333 23.66 5.88 24.46C5.69333 25.26 5.62667 26.0067 5.68 26.7C5.76 27.3667 6.01333 27.9267 6.44 28.38C6.89333 28.8067 7.58667 29.02 8.52 29.02V29.42ZM7.96 19.46H19.64L14.16 6.02L7.96 19.46Z" fill="white"/>
</svg>
