<svg preserveAspectRatio="none" width="100%" height="100%" overflow="visible" style="display: block;" viewBox="0 0 96 96" fill="none" xmlns="http://www.w3.org/2000/svg">
<g id="Group">
<path id="Vector" d="M52.8633 0.00195722C53.4891 0.398411 54.2371 0.283796 54.9137 0.490478C55.7368 0.742254 56.1992 1.21011 56.2349 2.07441C56.2687 2.90302 56.498 3.58319 57.4283 3.8049C57.6613 3.86127 57.8887 4.00971 58.0804 4.16566C59.0652 4.96796 60.0444 5.35126 61.2866 4.5903C61.8824 4.22578 62.4763 4.67109 62.9292 5.1521C64.7127 7.04605 65.9775 9.23124 66.7499 11.7227C67.0131 12.5739 66.8571 13.2334 66.1523 13.6805C65.2822 14.2329 64.8781 14.9018 65.2051 15.924C65.2333 16.0085 65.2258 16.1138 65.2107 16.2039C64.9777 17.5549 65.0642 18.7386 66.4812 19.5052C66.9322 19.7495 66.9811 20.3639 66.8063 20.9482C66.0508 23.4716 64.8142 25.7057 63.0138 27.6391C62.3691 28.3324 61.6926 28.5786 60.8581 28.137C60.0199 27.6936 59.287 27.7462 58.5897 28.3944C58.4544 28.5203 58.2853 28.6236 58.1142 28.6894C56.9359 29.1328 56.1221 29.7905 56.1484 31.2278C56.1597 31.8441 55.5827 32.2368 54.9532 32.389C52.3314 33.0203 49.706 33.0015 47.0842 32.4003C46.1502 32.1861 45.7856 31.4721 45.7499 30.5928C45.7217 29.86 45.4699 29.3545 44.7294 29.1272C44.4362 29.037 44.1449 28.8829 43.9062 28.6913C42.9477 27.9228 42.0043 27.5245 40.7921 28.2629C40.2753 28.5786 39.6401 28.3343 39.1834 27.8476C37.2927 25.8353 35.9302 23.5261 35.2029 20.8524C34.983 20.0482 35.3513 19.5071 35.9621 19.1144C36.7195 18.6259 37.133 18.0359 36.8642 17.1039C36.8135 16.9273 36.7872 16.7225 36.8248 16.5459C37.1123 15.2081 36.8323 14.1465 35.5656 13.3931C35.0939 13.1131 35.0582 12.5137 35.2198 11.9482C35.9772 9.28385 37.3247 6.96714 39.251 4.98111C39.8505 4.36482 40.5403 4.38549 41.2225 4.75564C41.9987 5.17652 42.6809 5.16713 43.3405 4.54332C43.5191 4.3761 43.7465 4.24269 43.9739 4.14875C45.0602 3.70344 45.8739 3.13789 45.857 1.74748C45.8457 0.796743 46.7272 0.569393 47.509 0.3815C48.0427 0.253733 48.6216 0.308222 49.1121 7.82887e-05H52.8633V0.00195722ZM63.7937 11.7584C63.369 10.5052 62.7112 9.38344 61.9576 8.30118C61.5497 7.71495 61.1269 7.51578 60.4822 7.87842C59.5726 8.39136 58.7927 8.21662 58.0203 7.51578C57.2554 6.82058 56.3439 6.29448 55.361 5.98258C54.2127 5.61807 53.6733 4.87401 53.6376 3.72035C53.6226 3.21868 53.4139 3.03267 52.9103 2.96315C51.6943 2.79216 50.4953 2.78277 49.2737 2.93308C48.5934 3.01576 48.3584 3.29759 48.3472 3.93267C48.3265 4.95857 47.8003 5.59364 46.8098 5.91118C45.8533 6.21745 44.9568 6.70409 44.2126 7.36923C43.318 8.16777 42.4178 8.44961 41.3334 7.81829C40.8786 7.55336 40.5553 7.64919 40.2339 8.09449C39.5743 9.00953 39.0199 9.97342 38.5162 10.9843C38.1478 11.7265 38.2926 12.1736 38.9578 12.5945C39.6044 13.0023 40.0291 13.5791 39.8505 14.3983C39.5931 15.5764 39.5367 16.7902 39.7773 17.9326C40.0347 19.1651 39.6194 19.9148 38.659 20.5236C38.2456 20.7848 38.2061 21.0798 38.3959 21.542C38.8488 22.6487 39.4559 23.6539 40.1231 24.6384C40.5102 25.2078 40.8992 25.3224 41.5138 25.0067C42.2392 24.6347 43.0004 24.4956 43.6976 25.1119C44.6448 25.9499 45.7255 26.5737 46.9038 27.0021C47.8905 27.361 48.3491 28.0318 48.3509 29.0445C48.3509 29.5687 48.5765 29.8525 49.1046 29.9145C50.4126 30.0685 51.715 30.0948 53.0212 29.8844C53.4158 29.8205 53.6244 29.6909 53.632 29.2399C53.6507 28.06 54.1582 27.2689 55.3704 26.9007C56.2894 26.6207 57.1539 26.1247 57.8681 25.4595C58.7326 24.6535 59.629 24.475 60.6702 25.0762C61.0987 25.3242 61.437 25.2848 61.7659 24.8132C62.3917 23.9151 62.9649 22.9981 63.4573 22.0173C63.852 21.2301 63.7918 20.6871 63.0194 20.223C62.3315 19.8096 62.1004 19.1933 62.2207 18.3835C62.3973 17.211 62.5326 16.0273 62.2489 14.8455C61.9989 13.8046 62.3541 13.0229 63.2374 12.4405C63.4817 12.2789 63.8125 12.1492 63.7956 11.7565L63.7937 11.7584Z" fill="var(--fill-0, #22396A)"/>
<path id="Vector_2" d="M96.0042 43.5085C95.6434 45.3029 95.3521 47.116 94.5082 48.7751C94.324 49.1359 94.1399 49.4966 93.9594 49.8593C93.5723 50.6372 92.9183 50.981 92.1064 50.748C91.1836 50.4812 90.539 50.7085 90.0485 51.5071C89.9526 51.663 89.8192 51.8152 89.6688 51.9186C88.5563 52.6795 87.9737 53.6322 88.3176 55.0508C88.4567 55.6257 88.0319 56.0409 87.5376 56.319C85.0982 57.6944 82.4821 58.4009 79.6744 58.3689C78.9395 58.3614 78.5073 57.9481 78.3062 57.3036C78.0186 56.3773 77.4962 55.8136 76.4644 55.808C76.1938 55.808 75.9062 55.7065 75.66 55.5862C74.6095 55.0771 73.6886 55.1203 72.8053 55.9921C72.3486 56.443 71.719 56.3998 71.1496 56.0654C68.7552 54.6599 66.8721 52.7472 65.4551 50.3647C64.9871 49.5774 65.2765 48.8991 65.8084 48.3204C66.3647 47.7154 66.4756 47.1292 66.1147 46.3833C65.9005 45.9417 65.7163 45.4325 65.7144 44.9534C65.7107 43.9463 65.1243 43.548 64.2955 43.2774C63.4817 43.0106 63.1566 42.4469 63.166 41.5657C63.1867 39.1175 63.7862 36.827 64.8725 34.6512C65.5979 33.1988 65.9475 32.9752 67.5149 33.2627C68.0993 33.3698 68.4545 33.2646 68.7759 32.7949C68.9676 32.5149 69.2063 32.2481 69.4713 32.0377C70.4655 31.2541 71.2416 30.4462 70.7718 28.9882C70.5989 28.4508 71.0255 27.9266 71.5705 27.6297C73.9348 26.337 76.4644 25.6474 79.1557 25.546C80.1235 25.5103 80.7024 26.0251 80.9392 26.8838C81.1741 27.7312 81.6778 28.1126 82.5235 28.1332C82.6757 28.137 82.8355 28.1765 82.9764 28.2385C84.2281 28.7796 85.4121 28.9994 86.5002 27.8383C86.8742 27.4399 87.4305 27.5733 87.8966 27.8439C90.3529 29.2719 92.2849 31.226 93.7226 33.6723C94.1192 34.3469 93.9256 34.9444 93.4389 35.4629C92.7999 36.145 92.5819 36.8665 93.0686 37.7252C93.157 37.883 93.2002 38.0784 93.219 38.2607C93.3524 39.5402 93.8072 40.5567 95.213 40.8742C95.6039 40.9626 95.7091 41.4097 96.0042 41.6333V43.5085ZM67.9922 36.0811C67.3871 35.8011 67.0619 36.4193 66.8157 37.1652C66.5338 38.022 66.3177 38.8939 66.1166 39.7751C65.9099 40.6788 66.0734 41.158 66.9792 41.421C67.8118 41.6634 68.2027 42.244 68.2704 43.1534C68.3493 44.2037 68.556 45.2653 69.039 46.2123C69.5859 47.2833 69.601 48.2265 68.712 49.0983C68.3173 49.4854 68.4094 49.833 68.7214 50.2407C69.4468 51.1914 70.2832 52.0163 71.2172 52.7641C71.7303 53.1756 72.1174 53.2038 72.5816 52.7415C73.3484 51.9787 74.2016 51.9562 75.1488 52.4296C76.0453 52.8787 77.0301 53.1737 78.0149 53.2169C79.2214 53.2695 79.9713 53.7562 80.2701 54.9061C80.428 55.5111 80.8339 55.5787 81.3432 55.4961C82.5122 55.3044 83.653 55.0207 84.7581 54.5773C85.2899 54.3649 85.5699 54.1395 85.3876 53.4837C85.1001 52.4372 85.4609 51.6236 86.4175 51.0261C87.2407 50.5094 87.9492 49.8123 88.4773 49.0006C89.1088 48.0292 89.8662 47.5219 91.0483 47.8131C91.6177 47.9522 91.9654 47.7323 92.1778 47.1574C92.548 46.1597 92.7924 45.1394 93.0348 44.106C93.2434 43.2191 92.9483 42.7832 92.1289 42.5352C91.3678 42.306 90.9825 41.7799 90.8829 40.9626C90.7532 39.8841 90.6386 38.7623 90.1143 37.8041C89.4997 36.6861 89.5636 35.741 90.43 34.8335C90.8021 34.4427 90.742 34.1251 90.4074 33.7099C89.6764 32.808 88.8645 32.0001 87.9831 31.2447C87.4681 30.8051 87.0716 30.713 86.5622 31.2072C85.7673 31.9794 84.899 32.0283 83.9123 31.5116C83.0835 31.0775 82.1589 30.8182 81.2286 30.7713C80.0333 30.7111 79.1857 30.3015 78.8606 29.0802C78.729 28.5898 78.4509 28.4076 77.8965 28.4715C76.7087 28.6086 75.5886 28.9506 74.4666 29.332C73.76 29.5725 73.542 29.9821 73.7431 30.666C74.0099 31.5717 73.698 32.2368 72.9312 32.7535C71.9389 33.4243 71.0875 34.2623 70.4147 35.2469C69.896 36.0059 69.2683 36.3705 67.996 36.0773L67.9922 36.0811Z" fill="var(--fill-0, #22396A)"/>
<path id="Vector_3" d="M51.7958 89.6737C51.4331 89.6831 51.1136 89.514 50.796 89.2942C49.5368 88.4261 48.2607 87.5825 47.0034 86.7107C46.6294 86.4514 46.3193 86.4082 45.8984 86.6487C44.1844 87.6219 42.3764 88.3848 40.4689 88.8902C39.9746 89.0217 39.8449 89.3412 39.7679 89.7527C39.501 91.1882 39.2341 92.6218 38.9766 94.0592C38.8131 94.9779 38.4072 95.5285 37.366 95.6807C34.3421 96.1279 31.337 96.1015 28.3206 95.645C27.4956 95.521 27.1441 94.993 26.9994 94.279C26.7175 92.8773 26.4601 91.4719 26.2233 90.0608C26.1124 89.3975 25.8699 89.0105 25.1313 88.8057C23.391 88.3228 21.7109 87.6332 20.1454 86.7201C19.6192 86.4138 19.2602 86.4702 18.7979 86.7971C17.627 87.6276 16.413 88.3961 15.244 89.2303C14.449 89.7977 13.7442 89.8128 12.9474 89.2059C10.6226 87.4322 8.57223 85.3973 6.80562 83.0655C6.2061 82.2745 6.18543 81.5662 6.75112 80.7695C7.56301 79.6234 8.31663 78.4359 9.13604 77.2972C9.50064 76.7899 9.59648 76.386 9.25256 75.7903C8.31099 74.1688 7.62878 72.4233 7.11572 70.6195C6.98604 70.1667 6.7981 69.9582 6.32074 69.8755C4.79094 69.6106 3.27429 69.2742 1.74448 68.998C0.981459 68.8609 0.472151 68.487 0.35563 67.7053C-0.0935393 64.6934 -0.123609 61.6852 0.303007 58.6602C0.449598 57.623 1.00589 57.2002 1.91551 57.0293C3.31939 56.7662 4.72328 56.5032 6.12905 56.257C6.66843 56.1631 6.96537 55.9451 7.13263 55.3495C7.63818 53.5476 8.3467 51.8152 9.29015 50.1918C9.56265 49.724 9.55702 49.3801 9.23376 48.9292C8.36174 47.7117 7.56113 46.4434 6.70414 45.2127C6.19107 44.4761 6.18731 43.811 6.73984 43.0801C8.51961 40.7183 10.5775 38.6534 12.9418 36.8684C13.7574 36.2521 14.4359 36.2746 15.2271 36.8289C16.428 37.6707 17.6702 38.4542 18.8674 39.3053C19.2752 39.5947 19.5872 39.6548 20.0439 39.4012C21.7917 38.4279 23.6297 37.6575 25.5674 37.1465C25.9564 37.045 26.0203 36.8214 26.0823 36.487C26.3661 34.9631 26.6875 33.445 26.975 31.9212C27.1686 30.8971 27.6159 30.5176 28.6495 30.3729C31.5118 29.9727 34.3666 29.9633 37.2307 30.3729C38.3489 30.5326 38.7662 30.8765 38.9635 31.9775C39.221 33.4111 39.4803 34.8448 39.7491 36.2765C39.8374 36.7481 40.0216 37.0544 40.5929 37.2085C42.4309 37.7083 44.1806 38.4598 45.8401 39.3974C46.2817 39.6473 46.5975 39.6379 47.0166 39.341C48.2645 38.4579 49.5631 37.6463 50.811 36.7632C51.5684 36.2258 52.2149 36.2972 52.9366 36.8346C55.3629 38.6402 57.449 40.7728 59.2569 43.1891C59.7267 43.8166 59.7418 44.4348 59.2964 45.0849C58.4319 46.3476 57.5974 47.629 56.716 48.8785C56.3852 49.3463 56.357 49.7165 56.654 50.2313C57.588 51.8566 58.2928 53.5927 58.7965 55.3946C58.9543 55.9602 59.2531 56.1537 59.7437 56.2439C61.1494 56.5032 62.5571 56.7587 63.9628 57.0293C65.1938 57.266 65.4269 57.6042 65.6298 58.895C66.0753 61.7285 65.9888 64.5487 65.6204 67.3803C65.4983 68.3216 65.0604 68.8327 64.117 68.9943C62.6454 69.246 61.187 69.5711 59.7174 69.8323C59.2024 69.9243 58.9468 70.1122 58.7927 70.6703C58.2947 72.474 57.5749 74.2045 56.6502 75.8354C56.3664 76.3352 56.3664 76.7054 56.716 77.1883C57.5786 78.3739 58.3567 79.6234 59.208 80.8184C59.7625 81.5962 59.7173 82.2877 59.1498 83.0336C57.3381 85.4086 55.2539 87.5036 52.8539 89.2848C52.5419 89.5159 52.2206 89.6813 51.7939 89.6662L51.7958 89.6737ZM14.1746 39.5477C14.0449 39.636 13.919 39.715 13.8006 39.8051C12.2859 40.9795 10.9759 42.3548 9.75435 43.8279C9.4217 44.2281 9.60212 44.4818 9.82577 44.8087C10.6903 46.0714 11.5341 47.3471 12.3967 48.6117C12.7651 49.1528 12.8422 49.6902 12.4888 50.2708C11.1188 52.5217 10.0889 54.9136 9.4856 57.4858C9.3221 58.181 8.87856 58.5906 8.13058 58.7241C6.62896 58.989 5.14614 59.3479 3.64264 59.5978C3.13334 59.6823 2.9905 59.8533 2.94352 60.3531C2.78189 62.0685 2.76686 63.7708 2.91533 65.4919C2.97735 66.2078 3.24234 66.454 3.85313 66.5629C5.26078 66.8147 6.66467 67.0853 8.07232 67.3352C8.86541 67.4761 9.34277 67.9158 9.52319 68.7124C10.0757 71.1644 11.0624 73.4436 12.3667 75.5837C12.7933 76.2826 12.8215 76.8839 12.3404 77.5659C11.4777 78.791 10.6846 80.063 9.82201 81.2881C9.52131 81.7165 9.50064 81.9777 9.86523 82.406C11.0004 83.7457 12.2426 84.9651 13.5695 86.1132C14.0243 86.5059 14.3325 86.4777 14.7835 86.1583C15.9807 85.309 17.2117 84.5104 18.4164 83.6706C19.0459 83.2309 19.6398 83.1651 20.322 83.586C22.5115 84.9351 24.8588 85.914 27.3678 86.504C28.1289 86.6825 28.5555 87.1691 28.689 87.9996C28.9295 89.4971 29.3035 90.974 29.5648 92.4677C29.6418 92.9074 29.8091 92.9957 30.2132 93.0427C32.0531 93.255 33.8873 93.27 35.7272 93.037C36.1087 92.9882 36.3155 92.9487 36.3944 92.4809C36.65 90.9514 37.0221 89.4407 37.2796 87.9113C37.4224 87.0714 37.9092 86.6562 38.6665 86.4758C41.0815 85.9046 43.3556 84.9896 45.4548 83.6668C46.2573 83.1614 46.9264 83.2271 47.68 83.7852C48.8076 84.6213 50.0085 85.356 51.1568 86.1639C51.6079 86.4814 51.9274 86.4927 52.3822 86.1132C53.756 84.9689 54.9926 83.6988 56.1466 82.3365C56.4454 81.9833 56.4585 81.7409 56.1935 81.3651C55.3159 80.1138 54.4908 78.8229 53.6132 77.5697C53.1659 76.929 53.1339 76.339 53.5417 75.6645C54.8592 73.4924 55.8515 71.1795 56.4303 68.703C56.6295 67.8538 57.1407 67.4592 57.9733 67.3201C59.4129 67.0796 60.845 66.7884 62.2789 66.5141C62.6961 66.4352 62.9705 66.3055 63.0138 65.755C63.1547 63.9437 63.1791 62.1399 63.0006 60.3324C62.9574 59.8871 62.8277 59.6861 62.356 59.6053C60.8863 59.3516 59.4317 59.0021 57.9601 58.7579C57.0618 58.6094 56.6145 58.1378 56.4021 57.2716C55.8214 54.8967 54.9362 52.6363 53.6207 50.5676C53.1358 49.8067 53.1508 49.134 53.662 48.4069C54.504 47.2062 55.2933 45.9699 56.1484 44.7787C56.4379 44.3747 56.4379 44.1267 56.1146 43.734C54.9964 42.3793 53.7541 41.1561 52.4273 40.0118C51.995 39.6398 51.6605 39.5477 51.1418 39.9273C49.9334 40.8122 48.661 41.6089 47.4244 42.4544C46.8456 42.8509 46.2536 42.8979 45.6728 42.5315C43.4627 41.1411 41.0721 40.1884 38.5463 39.5665C37.8265 39.3899 37.428 38.9577 37.2927 38.2287C37.0202 36.7632 36.6819 35.3089 36.4508 33.8377C36.3512 33.1951 36.0448 33.0354 35.4679 32.9959C33.8441 32.8851 32.2278 32.8944 30.6003 32.9752C29.8467 33.0128 29.5629 33.289 29.4445 33.9636C29.2039 35.3408 28.9014 36.7068 28.6815 38.0878C28.5443 38.9446 28.1045 39.3899 27.2663 39.5928C24.8588 40.1772 22.5829 41.1072 20.4743 42.4093C19.668 42.9072 18.9896 42.8377 18.2397 42.2947C17.1027 41.4717 15.9187 40.7145 14.7535 39.9291C14.5731 39.8089 14.3926 39.6905 14.1746 39.5477Z" fill="var(--fill-0, #22396A)"/>
<path id="Vector_4" d="M51.8409 23.8286C47.2947 23.8361 44.0397 20.9407 43.6581 17.429C43.1526 12.7768 46.5073 9.70473 49.6082 9.17112C50.5799 9.00389 51.5214 8.98511 52.4818 9.18615C53.4703 9.39471 54.0172 10.0185 53.8782 10.8358C53.7297 11.7095 52.9873 12.1549 51.948 11.9519C49.9127 11.5536 48.3171 12.2638 47.1688 13.9248C46.0186 15.5858 46.2178 17.9457 47.539 19.4808C48.8208 20.9708 51.1061 21.4593 52.9159 20.6288C54.8272 19.7532 55.8496 17.8386 55.5339 15.7361C55.5113 15.582 55.4982 15.4261 55.4888 15.2701C55.4305 14.3062 55.8646 13.6674 56.6615 13.5415C57.3757 13.4269 58.1143 14.0394 58.2834 14.9112C58.6085 16.5854 58.4431 18.2182 57.6463 19.7269C56.2462 22.3762 54.021 23.7535 51.8428 23.8305L51.8409 23.8286Z" fill="var(--fill-0, #22396A)"/>
<path id="Vector_5" d="M79.5672 49.367C75.7972 49.3858 72.4181 46.372 72.1888 42.7851C71.9201 38.5914 74.5474 35.2431 78.5298 34.655C79.2853 34.5441 80.0126 34.5611 80.7606 34.6813C81.9559 34.873 82.6175 35.4892 82.4784 36.3479C82.3299 37.2554 81.5819 37.6613 80.366 37.4659C78.3701 37.1446 76.8121 37.8454 75.7014 39.5008C74.5493 41.2181 74.7786 43.5724 76.1919 45.1225C77.4981 46.5542 79.8548 46.9808 81.6101 46.1014C83.4519 45.1789 84.4555 43.1421 84.0664 41.1185C83.8597 40.0456 84.2431 39.3204 85.1095 39.1494C85.9984 38.9747 86.5923 39.4575 86.8197 40.5454C87.7744 45.0924 84.2826 49.3388 79.571 49.3632L79.5672 49.367Z" fill="var(--fill-0, #22396A)"/>
<path id="Vector_6" d="M44.8609 63.5153C44.7031 69.8492 39.2097 75.3563 32.318 74.9561C25.4941 74.5597 20.7599 68.8534 21.0418 62.5139C21.3388 55.8587 27.1554 50.3779 34.3947 51.2065C40.6737 51.9242 45.1767 57.5591 44.8609 63.5153ZM42.0588 63.0399C42.0419 57.9405 38.0821 53.976 32.9852 53.9553C27.9485 53.9347 23.8496 57.98 23.8289 62.9949C23.8064 67.9928 28.003 72.1997 32.9833 72.1734C37.9994 72.149 42.0776 68.0435 42.0588 63.0399Z" fill="var(--fill-0, #22396A)"/>
<path id="Vector_7" d="M52.4198 62.5946C52.3164 72.754 45.5507 80.6981 35.9133 82.2501C30.8615 83.0637 26.1951 81.8912 21.9514 79.0409C21.0963 78.4659 20.8934 77.6655 21.3745 76.9609C21.8913 76.2037 22.6543 76.1041 23.5827 76.7411C26.4751 78.7234 29.6813 79.7041 33.1713 79.691C41.2807 79.6609 48.5032 73.2895 49.4654 65.3059C49.9653 61.1667 49.1384 57.3055 46.7854 53.8163C46.699 53.6867 46.6125 53.5551 46.5373 53.4198C46.107 52.6495 46.2498 51.8923 46.9095 51.4376C47.5522 50.9942 48.3453 51.1539 48.864 51.8866C50.5291 54.2353 51.6098 56.8376 52.0965 59.671C52.2863 60.774 52.3465 61.8976 52.4216 62.5946H52.4198Z" fill="var(--fill-0, #22396A)"/>
<path id="Vector_8" d="M13.4962 63.3218C13.515 53.4631 20.4987 45.3292 29.9106 43.8711C34.8326 43.1083 39.3863 44.1173 43.5905 46.7647C43.6694 46.8154 43.7427 46.8737 43.8198 46.9263C44.8346 47.644 45.0771 48.358 44.5621 49.1039C44.0359 49.863 43.2409 49.9363 42.2637 49.2749C41.0928 48.4858 39.8468 47.8657 38.5181 47.3866C28.8938 43.9087 18.4671 49.9551 16.6234 60.0562C15.8078 64.5205 16.7512 68.5809 19.2038 72.3369C19.5421 72.8536 19.839 73.3684 19.574 73.9847C19.3692 74.4638 18.9971 74.7889 18.4389 74.8434C17.8074 74.9054 17.3564 74.6216 17.0125 74.1237C15.4319 71.8352 14.3776 69.325 13.8589 66.5949C13.6315 65.398 13.5225 64.188 13.4943 63.318L13.4962 63.3218Z" fill="var(--fill-0, #22396A)"/>
</g>
</svg>
