<svg preserveAspectRatio="none" width="100%" height="100%" overflow="visible" style="display: block;" viewBox="0 0 32 32" fill="none" xmlns="http://www.w3.org/2000/svg">
<g id="fa6-brands:square-x-twitter" clip-path="url(#clip0_81_152)">
<path id="Vector" d="M4.57143 0C2.05 0 0 2.05 0 4.57143V27.4286C0 29.95 2.05 32 4.57143 32H27.4286C29.95 32 32 29.95 32 27.4286V4.57143C32 2.05 29.95 0 27.4286 0H4.57143Z" fill="var(--fill-0, #22396A)"/>
<g id="basil:linkedin-solid">
<path id="Vector_2" d="M8.75 5.875C8.18641 5.875 7.64591 6.09888 7.2474 6.4974C6.84888 6.89591 6.625 7.43641 6.625 8C6.625 8.56359 6.84888 9.10409 7.2474 9.5026C7.64591 9.90112 8.18641 10.125 8.75 10.125C9.31359 10.125 9.85409 9.90112 10.2526 9.5026C10.6511 9.10409 10.875 8.56359 10.875 8C10.875 7.43641 10.6511 6.89591 10.2526 6.4974C9.85409 6.09888 9.31359 5.875 8.75 5.875ZM6.75 11.875C6.71685 11.875 6.68505 11.8882 6.66161 11.9116C6.63817 11.9351 6.625 11.9668 6.625 12V25C6.625 25.069 6.681 25.125 6.75 25.125H10.75C10.7832 25.125 10.8149 25.1118 10.8384 25.0884C10.8618 25.0649 10.875 25.0332 10.875 25V12C10.875 11.9668 10.8618 11.9351 10.8384 11.9116C10.8149 11.8882 10.7832 11.875 10.75 11.875H6.75ZM13.25 11.875C13.2168 11.875 13.1851 11.8882 13.1616 11.9116C13.1382 11.9351 13.125 11.9668 13.125 12V25C13.125 25.069 13.181 25.125 13.25 25.125H17.25C17.2832 25.125 17.3149 25.1118 17.3384 25.0884C17.3618 25.0649 17.375 25.0332 17.375 25V18C17.375 17.5027 17.5725 17.0258 17.9242 16.6742C18.2758 16.3225 18.7527 16.125 19.25 16.125C19.7473 16.125 20.2242 16.3225 20.5758 16.6742C20.9275 17.0258 21.125 17.5027 21.125 18V25C21.125 25.069 21.181 25.125 21.25 25.125H25.25C25.2832 25.125 25.3149 25.1118 25.3384 25.0884C25.3618 25.0649 25.375 25.0332 25.375 25V16.38C25.375 13.953 23.265 12.055 20.85 12.274C20.1029 12.3425 19.371 12.5274 18.681 12.822L17.375 13.382V12C17.375 11.9668 17.3618 11.9351 17.3384 11.9116C17.3149 11.8882 17.2832 11.875 17.25 11.875H13.25Z" fill="var(--fill-0, white)"/>
</g>
</g>
<defs>
<clipPath id="clip0_81_152">
<rect width="32" height="32" fill="white"/>
</clipPath>
</defs>
</svg>
