<svg preserveAspectRatio="none" width="100%" height="100%" overflow="visible" style="display: block;" viewBox="0 0 20 15" fill="none" xmlns="http://www.w3.org/2000/svg">
<path id="&#226;&#128;&#156;" d="M0 15V10.2381C0 8.9418 0.268817 7.63889 0.806451 6.32936C1.34409 5.01984 2.02285 3.80952 2.84274 2.69841C3.66263 1.5873 4.48925 0.687832 5.32258 0L9.91936 2.30159C9.22043 3.45238 8.67608 4.65608 8.28629 5.9127C7.90995 7.16931 7.7285 8.61111 7.74194 10.2381V15H0ZM10.0806 15V10.2381C10.0806 8.9418 10.3495 7.63889 10.8871 6.32936C11.4247 5.01984 12.1035 3.80952 12.9234 2.69841C13.7433 1.5873 14.5699 0.687832 15.4032 0L20 2.30159C19.3011 3.45238 18.7567 4.65608 18.3669 5.9127C17.9906 7.16931 17.8091 8.61111 17.8226 10.2381V15H10.0806Z" fill="var(--fill-0, #FD9426)"/>
</svg>
