<svg preserveAspectRatio="none" width="110" height="78" overflow="visible" style="display: block;" viewBox="0 0 110 78" fill="none" xmlns="http://www.w3.org/2000/svg">
<g id="Group">
<path id="Vector" d="M85.9219 77.9936C73.5021 78.1024 62.5212 68.7637 59.8119 57.1323C59.5819 56.1459 59.2973 55.1684 59.1425 54.1729C59.04 53.5175 58.7896 53.2794 58.1225 53.2794C55.7 53.2839 53.2753 53.2771 50.855 53.1909C50.0536 53.1615 50.2266 53.6649 50.1948 54.0618C49.8396 58.3184 48.7399 62.3505 46.4563 65.9948C42.2079 72.7754 36.0287 76.5966 28.1237 77.7396C14.5997 79.6944 3.41393 70.4827 0.586174 59.1053C-0.495293 54.7557 -0.0126169 50.4583 1.47867 46.238C2.84701 42.3623 5.18753 39.0106 7.20248 35.4865C10.6063 29.529 14.1261 23.6396 18.2471 18.1289C18.9688 17.1629 19.7862 16.3533 20.9633 16.0154C21.4687 15.8702 21.5348 15.5596 21.6395 15.1241C22.3248 12.3008 23.2537 9.57037 24.893 7.13024C28.6246 1.57194 34.7992 0.952834 39.9766 4.20935C40.7416 4.69012 41.4702 5.23212 42.2101 5.75597C43.114 6.39549 44.1067 6.39775 45.1403 6.20726C45.4386 6.15283 45.6094 6.01677 45.6868 5.72423C46.4973 2.65139 48.8151 1.2227 51.6496 0.472067C55.0876 -0.439577 58.3866 -0.0699308 61.4102 1.92344C62.3414 2.53801 63.0563 3.35894 63.5162 4.38624C64.1491 5.80133 64.9232 6.03037 66.2642 5.07337C67.4755 4.20935 68.7436 3.48593 70.1643 3.05052C76.0475 1.24991 80.4053 2.92126 83.6884 8.23465C84.9406 10.2598 85.9356 12.4142 86.8007 14.6252C87.0352 15.2262 87.3449 15.6299 87.9938 15.8408C89.1754 16.2263 89.904 17.1697 90.5255 18.172C95.2612 25.7985 100.004 33.4205 104.692 41.0742C105.771 42.834 107.094 44.4351 107.959 46.3377C111.429 53.9824 110.338 61.1984 105.673 67.9042C100.937 74.7121 94.1638 77.8575 85.9219 77.9936ZM10.4514 35.0034C14.117 32.9692 18.0012 31.7356 22.154 31.4385C27.2563 31.0734 32.2037 31.5972 36.607 34.5C37.306 34.9603 37.8046 34.9762 38.5445 34.5998C43.583 32.0304 48.9744 30.8738 54.6072 30.9668C60.1898 31.0598 65.5084 32.3456 70.4717 34.9513C70.9248 35.1894 71.2868 35.1939 71.733 34.9445C76.4073 32.3411 81.4367 31.282 86.7643 31.5564C90.25 31.7356 93.5423 32.5792 96.5408 34.4229C96.9711 34.6882 97.3103 35.1259 97.9114 35.203C97.8932 35.0488 97.9114 34.9286 97.8613 34.8492C94.6556 29.7399 91.4408 24.6329 88.2328 19.5236C87.8845 18.968 87.4724 18.5031 86.8599 18.2219C82.5181 16.2195 78.026 15.8022 73.3905 16.9656C70.0368 17.8092 67.0657 19.4125 64.4041 21.5918C63.1337 22.6305 61.7653 23.1838 60.0646 23.2223C56.6631 23.3017 53.2639 23.5512 49.8669 23.7825C46.7295 23.9979 43.6331 24.1408 41.1947 21.6145C41.0695 21.483 40.8714 21.4217 40.7097 21.3265C35.0998 17.9951 29.0367 17.2558 22.6845 18.2401C21.7852 18.3784 20.9132 18.6301 20.3007 19.4034C16.4644 24.2338 13.3042 29.4927 10.4492 35.0057L10.4514 35.0034ZM85.1706 74.1338C86.5002 74.1814 88.1417 74.0136 89.781 73.6735C100.111 71.5327 106.754 62.5795 105.978 52.4494C105.263 43.1311 97.2739 36.3618 91.5364 34.8447C84.4557 32.9715 77.6344 33.9716 71.4507 38.0082C64.9141 42.2762 61.8359 50.0592 63.548 57.502C65.859 67.5482 74.283 74.1338 85.1706 74.1361V74.1338ZM24.679 73.9161C26.1088 73.9524 27.83 73.771 29.5399 73.4263C39.8514 71.3467 47.0027 61.4025 45.4249 51.0933C44.1932 43.0381 39.1843 37.7565 31.8964 34.8447C26.0724 32.5179 20.0526 33.391 14.3743 35.9015C4.83236 40.1195 0.590728 49.7485 3.83741 59.5475C6.7198 68.2444 14.8319 73.9252 24.6813 73.9206L24.679 73.9161ZM54.3818 33.3434C49.4958 33.3593 45.0994 34.2664 40.8942 36.1078C40.0996 36.4571 39.7672 36.6634 40.6232 37.4209C44.2615 40.6366 46.6567 44.6165 47.6243 49.3834C47.8064 50.2814 48.1115 50.4152 48.9585 50.2655C52.4829 49.6419 56.0256 49.66 59.55 50.2746C60.3469 50.4152 60.6884 50.2814 60.8569 49.4514C61.8382 44.6369 64.2584 40.6456 67.9923 37.4549C68.7027 36.8471 68.4363 36.6453 67.7783 36.3414C63.4342 34.3435 58.8716 33.3479 54.384 33.3411L54.3818 33.3434ZM63.7051 13.4959H63.7097C63.7097 11.9878 63.6778 10.4797 63.7234 8.97394C63.7438 8.26866 63.5731 7.97839 62.7944 7.97385C60.4881 7.96252 58.1794 7.89675 55.8753 7.7879C55.0352 7.74708 54.7415 7.98746 54.7711 8.84921C54.8348 10.7677 54.8052 12.6908 54.8075 14.6116C54.8075 15.3328 54.3931 15.775 53.7169 15.8249C52.9929 15.877 52.5103 15.4326 52.3258 14.7409C52.2507 14.4574 52.294 14.1422 52.294 13.8406C52.2871 12.1443 52.2666 10.448 52.2871 8.75397C52.294 8.25279 52.2097 7.95571 51.62 8.01241C49.2909 8.23465 46.9527 8.37298 44.644 8.77891C44.1522 8.86509 43.8904 9.07372 43.8266 9.64974C43.476 12.7838 43.0708 15.9111 42.6678 19.0383C42.645 19.2197 42.4993 19.4102 42.7179 19.5236C44.0202 20.2085 45.0128 21.4558 46.7432 21.3424C51.2307 21.0521 55.7273 20.9047 60.2171 20.6416C62.5258 20.5056 63.712 19.163 63.7051 16.8885C63.7006 15.7568 63.7051 14.6275 63.7051 13.4959ZM33.5334 4.82619C30.9788 4.8534 29.0299 5.86256 27.5204 7.71986C25.7673 9.87651 24.9454 12.4572 24.2214 15.0788C24.0187 15.809 24.4855 15.58 24.8497 15.555C29.8564 15.1876 34.7264 15.7296 39.33 17.85C39.9743 18.1471 40.1679 18.0609 40.2544 17.3602C40.5208 15.1604 40.8122 12.963 41.1514 10.7746C41.3859 9.25288 41.4178 7.89675 39.6328 7.22776C39.1524 7.0486 38.7631 6.6336 38.3191 6.34559C36.8278 5.37726 35.1749 4.93051 33.5334 4.82846V4.82619ZM83.8887 14.2578C82.9757 12.0332 82.0537 10.0262 80.6944 8.24599C78.3812 5.21624 75.4988 4.24337 71.7968 5.13007C70.0186 5.55641 68.5592 6.51341 67.0634 7.47494C66.542 7.81057 66.3325 8.10312 66.3394 8.69501C66.3644 10.9945 66.3439 13.2963 66.3462 15.5981C66.3462 16.9565 66.3576 16.9656 67.5324 16.3646C70.836 14.6751 74.3126 13.6796 78.0534 13.6433C79.975 13.6251 81.8692 13.8519 83.8887 14.2578ZM48.2504 5.70382C48.6671 5.70382 48.963 5.73103 49.2522 5.69928C52.7926 5.32963 56.3375 5.21171 59.8938 5.39086C60.2444 5.40901 60.7499 5.68794 60.932 5.31149C61.1324 4.89876 60.6474 4.58127 60.3811 4.29099C59.9166 3.78528 59.3178 3.46552 58.6735 3.22061C56.3193 2.33391 53.9446 2.36112 51.5813 3.12536C50.2426 3.5585 49.004 4.19348 48.2504 5.70155V5.70382Z" fill="var(--fill-0, #22396A)"/>
<path id="Vector_2" d="M15.9474 9.43659C15.8745 10.1305 15.5262 10.5251 14.9729 10.7882C14.4219 11.049 13.9916 10.8267 13.6729 10.4321C12.3706 8.82656 11.0751 7.2119 9.82513 5.56323C9.36066 4.95093 9.42214 4.27287 10.0505 3.76035C10.6243 3.29093 11.3255 3.28185 11.7809 3.82612C13.156 5.47025 14.4538 7.17562 15.7652 8.87191C15.8904 9.03519 15.9018 9.28691 15.9474 9.43659Z" fill="var(--fill-0, #22396A)"/>
<path id="Vector_3" d="M7.72367 10.5047C9.36294 11.0286 11.2709 11.5796 13.1287 12.2668C13.6843 12.4709 14.0349 13.0922 13.7116 13.7748C13.4179 14.3917 12.8919 14.6774 12.2226 14.4869C10.5286 14.0016 8.84156 13.4891 7.1613 12.9562C6.47372 12.7385 6.07301 12.2396 6.23693 11.498C6.36899 10.8993 6.78108 10.5251 7.72367 10.5047Z" fill="var(--fill-0, #22396A)"/>
<path id="Vector_4" d="M18.8844 4.27967C18.8844 4.91919 18.8753 5.5587 18.8844 6.19594C18.9003 7.04862 18.3721 7.44775 17.6322 7.50444C16.8558 7.56341 16.257 7.0781 16.2046 6.34108C16.1067 4.95774 16.1113 3.55852 16.2046 2.17291C16.257 1.42228 16.8535 0.96646 17.6322 1.02996C18.3903 1.09346 18.8707 1.54474 18.8799 2.36114C18.8867 3.00065 18.8799 3.63789 18.8799 4.27741L18.8844 4.27967Z" fill="var(--fill-0, #22396A)"/>
<path id="Vector_5" d="M84.8903 69.1538C77.7845 69.1788 71.5371 64.8065 69.3696 58.2957C67.0199 51.2339 70.4169 43.655 77.2677 40.6434C81.1587 38.9335 85.2546 38.2486 89.2913 39.5617C95.3293 41.5233 99.4776 45.6257 100.366 52.0616C101.54 60.5658 95.7619 67.4371 88.162 68.8817C87.0783 69.088 85.9877 69.1561 84.8903 69.1561V69.1538ZM84.8994 41.7319C83.67 41.6367 82.3745 41.8997 81.0836 42.1855C72.8712 44.0156 68.8459 52.5356 72.7506 59.8174C75.6352 65.1965 82.4724 67.8068 88.9111 65.9903C95.4933 64.133 99.2568 57.756 97.7495 51.1817C96.643 46.3536 90.9147 41.3464 84.8994 41.7319Z" fill="var(--fill-0, #22396A)"/>
<path id="Vector_6" d="M24.5194 69.3511C16.5029 69.3511 9.80691 64.1602 8.1813 56.6924C6.56251 49.2564 10.7654 41.9043 18.124 39.4936C23.1055 37.8608 28.0985 37.659 32.7613 40.4506C36.9529 42.961 39.9058 46.5464 40.6435 51.4901C41.7933 59.2051 37.2329 66.0946 30.3001 68.4417C28.4286 69.0744 26.5025 69.4169 24.5171 69.3534L24.5194 69.3511ZM38.1983 53.0118C37.9865 48.1837 35.2248 44.3081 30.398 42.0109C26.3909 40.1037 22.213 40.5345 18.1968 42.1832C10.6015 45.3037 7.93541 53.9121 12.5869 60.6066C15.8472 65.3031 20.51 67.2375 26.227 66.6638C33.0801 65.9767 38.2279 60.4025 38.2005 53.0095L38.1983 53.0118Z" fill="var(--fill-0, #22396A)"/>
<path id="Vector_7" d="M53.8738 46.4874C51.1668 46.4738 49.1268 44.3716 49.1564 41.6276C49.1837 39.0446 51.358 36.9356 53.9763 36.9492C56.5308 36.9628 58.5663 38.9902 58.5868 41.5392C58.6118 44.4034 56.6105 46.501 53.8716 46.4874H53.8738Z" fill="var(--fill-0, #22396A)"/>
<path id="Vector_8" d="M93.813 52.8032C93.6901 55.1753 92.9751 57.2616 91.2926 58.942C90.769 59.4659 90.1406 60.0034 89.453 59.3071C88.82 58.6654 88.8633 57.8739 89.4985 57.189C91.6273 54.8986 91.88 52.3632 90.4844 49.6306C90.1132 48.9049 90.177 48.2676 90.8714 47.8889C91.5544 47.5193 92.1737 47.7823 92.6018 48.4581C93.451 49.8029 93.7288 51.2974 93.813 52.8032Z" fill="var(--fill-0, #22396A)"/>
<path id="Vector_9" d="M14.3195 53.2522C14.2603 51.565 14.793 50.0637 15.6855 48.6758C16.109 48.0136 16.7078 47.5624 17.4774 48.0613C18.1991 48.5284 18.1581 49.2337 17.7665 49.9503C15.8449 53.4563 16.7647 56.6198 20.2869 58.5996C21.0246 59.0146 21.3547 59.5679 20.9244 60.3549C20.4941 61.1418 19.8498 61.3572 19.0278 60.9014C16.0157 59.2278 14.3992 56.706 14.3195 53.2522Z" fill="var(--fill-0, #22396A)"/>
<path id="Vector_10" d="M22.871 61.1531C23.4493 61.1554 24.8541 62.2689 24.7403 62.5773C24.5695 63.0422 24.1324 63.2485 23.6633 63.2009C22.9576 63.1283 22.4658 62.7632 22.4931 61.974C22.5045 61.6203 22.4772 61.2098 22.871 61.1531Z" fill="var(--fill-0, #22396A)"/>
</g>
</svg>
