<svg preserveAspectRatio="none" width="54" height="50" overflow="visible" style="display: block;" viewBox="0 0 54 50" fill="none" xmlns="http://www.w3.org/2000/svg">
<g id="Group">
<path id="Vector" d="M53.9959 16.9488C53.9915 20.62 52.9499 23.9502 50.8438 26.9238C50.6704 27.1686 50.6518 27.3352 50.8209 27.6035C51.8047 29.1629 52.7569 30.7425 53.7319 32.3087C53.9828 32.7122 54.1355 33.1203 53.841 33.5462C53.5487 33.9699 53.1332 33.9654 52.6696 33.857C50.2101 33.2857 47.7452 32.7391 45.2835 32.1756C45.037 32.1198 44.8276 32.1634 44.6062 32.2707C41.7169 33.6602 38.6804 34.1599 35.5142 33.7977C34.8521 33.7217 34.1912 33.5931 33.5466 33.4232C33.1681 33.3226 33.0972 33.3953 33.0765 33.7832C32.8267 38.4459 31.0543 42.4021 27.6939 45.5557C24.2659 48.7741 20.1769 50.2117 15.5458 49.9736C13.4354 49.8652 11.4132 49.3185 9.50234 48.3773C9.20894 48.2331 8.95045 48.2051 8.62324 48.2822C6.17792 48.8535 3.72605 49.3923 1.27636 49.9468C0.834635 50.0463 0.44635 50.0016 0.160589 49.6002C-0.12299 49.2023 0.011165 48.8345 0.238028 48.4667C1.21747 46.8838 2.186 45.293 3.17416 43.7157C3.34104 43.4485 3.36285 43.2864 3.16326 42.9969C0.764831 39.5191 -0.2975 35.6657 0.0831505 31.3987C0.709206 24.3817 5.72747 18.3484 12.4417 16.6068C15.1063 15.9159 17.7708 15.8924 20.4343 16.5576C20.851 16.6615 20.9262 16.5609 20.9426 16.1775C21.0615 13.3503 21.8075 10.6965 23.2428 8.28628C25.8888 3.84489 29.715 1.10158 34.7463 0.251978C39.5759 -0.564084 43.9572 0.604114 47.7811 3.72639C51.0663 6.40933 53.071 9.91393 53.7767 14.1765C53.9283 15.0931 54.0308 16.0132 53.9959 16.9477V16.9488ZM2.77061 47.6976C3.00838 47.6719 3.13381 47.6719 3.25378 47.6439C4.80038 47.2884 6.34152 46.9128 7.89248 46.5775C8.58071 46.4288 9.24275 46.1817 9.98442 46.5998C11.7666 47.6037 13.7233 48.0877 15.7422 48.1928C19.1429 48.3706 22.3016 47.5031 25.0479 45.4283C29.5776 42.0075 31.7186 37.3906 31.2463 31.5999C30.9027 27.3866 29.0857 23.8921 25.8703 21.2997C21.0822 17.4396 15.7716 16.751 10.2266 19.3568C4.26267 22.1582 1.06368 28.557 1.86534 34.9536C2.21872 37.7685 3.27232 40.3094 5.02179 42.524C5.39917 43.0013 5.41771 43.4239 5.09377 43.9348C4.32484 45.1443 3.58644 46.374 2.77279 47.6976H2.77061ZM51.2561 31.6972C50.4424 30.3714 49.7139 29.1797 48.982 27.9903C48.5108 27.2256 48.5152 27.1004 49.066 26.3615C51.4677 23.1453 52.5322 19.5356 52.1592 15.4844C51.917 12.8573 51.0805 10.4539 49.5917 8.31758C45.302 2.16693 37.7937 0.0339887 31.1449 3.28482C25.7263 5.93423 22.9571 10.5344 22.631 16.6828C22.6059 17.1556 22.7815 17.3434 23.1774 17.5324C28.7792 20.2064 32.0218 24.7048 32.9511 30.9516C33.0089 31.3395 33.1365 31.4848 33.468 31.5731C36.8939 32.4853 40.2532 32.2863 43.4751 30.7805C44.3978 30.349 45.2104 30.2786 46.1615 30.529C47.7953 30.9583 49.4543 31.2892 51.2561 31.6961V31.6972Z" fill="var(--fill-0, #22396A)"/>
<path id="Vector_2" d="M15.6756 34.2158C15.6756 33.5842 15.6723 32.9514 15.6756 32.3198C15.6799 31.6256 15.9711 31.3092 16.6463 31.2578C18.1209 31.1449 19.2301 29.9007 19.157 28.4419C19.085 26.9964 17.8548 25.845 16.4401 25.902C15.2109 25.9512 14.2326 26.8153 13.9774 28.1613C13.9076 28.529 13.7821 28.6218 13.4636 28.5782C13.3568 28.5637 13.2466 28.576 13.1375 28.5749C12.422 28.5741 12.1472 28.209 12.313 27.4793C12.7547 25.5286 14.5587 24.1111 16.5885 24.1178C18.5528 24.1245 20.3404 25.5778 20.7723 27.5196C21.2948 29.866 20.0798 32.0716 17.8318 32.8195C17.5003 32.9302 17.3923 33.0822 17.4043 33.4422C17.4337 34.3712 17.4043 35.3012 17.4174 36.2302C17.4217 36.5097 17.3574 36.6092 17.0596 36.6192C15.6723 36.664 15.6723 36.6751 15.6734 35.2766C15.6734 34.9234 15.6734 34.5701 15.6734 34.2169L15.6756 34.2158Z" fill="var(--fill-0, #22396A)"/>
<path id="Vector_3" d="M16.5579 41.0662C15.8566 41.0763 15.2415 40.4514 15.2436 39.7315C15.2458 39.0249 15.8195 38.4179 16.5045 38.4C17.2112 38.381 17.8308 38.9825 17.8493 39.7057C17.8689 40.4257 17.2701 41.0562 16.5579 41.0662Z" fill="var(--fill-0, #22396A)"/>
<path id="Vector_4" d="M37.5035 10.7266C39.6238 10.7266 41.7452 10.7355 43.8655 10.7188C44.2592 10.7154 44.4348 10.7736 44.4239 11.2487C44.3956 12.5085 44.4207 12.5096 43.1773 12.5096C39.1352 12.5096 35.0942 12.5029 31.0521 12.5175C30.6333 12.5186 30.4522 12.4627 30.4664 11.9608C30.5013 10.7311 30.4729 10.7277 31.6858 10.7277C33.625 10.7266 35.5643 10.7277 37.5035 10.7277V10.7266Z" fill="var(--fill-0, #22396A)"/>
<path id="Vector_5" d="M37.4141 17.8632C35.2752 17.8632 33.1364 17.8554 30.9976 17.8711C30.6256 17.8733 30.4609 17.8263 30.4686 17.3725C30.4893 16.0858 30.4653 16.0835 31.7403 16.0824C35.7824 16.0813 39.8234 16.0903 43.8655 16.069C44.3323 16.0668 44.4327 16.2076 44.4217 16.6593C44.3945 17.8666 44.4152 17.8655 43.2318 17.8643C41.2926 17.8632 39.3533 17.8643 37.4141 17.8632Z" fill="var(--fill-0, #22396A)"/>
<path id="Vector_6" d="M39.1821 23.2191C37.6235 23.2191 36.0649 23.2079 34.5074 23.2269C34.1147 23.2314 33.9424 23.1721 33.9511 22.6981C33.9762 21.4416 33.95 21.4394 35.1978 21.4383C38.0794 21.4371 40.9599 21.4461 43.8404 21.4282C44.2658 21.426 44.4381 21.4941 44.4239 21.9894C44.3901 23.2213 44.4163 23.2213 43.2034 23.2202C41.863 23.2202 40.5214 23.2202 39.181 23.2179L39.1821 23.2191Z" fill="var(--fill-0, #22396A)"/>
</g>
</svg>
