<svg preserveAspectRatio="none" width="48" height="48" overflow="visible" style="display: block;" viewBox="0 0 48 48" fill="none" xmlns="http://www.w3.org/2000/svg">
<g id="_0" clip-path="url(#clip0_81_145)">
<path id="Vector" d="M47.9998 0.00971638C47.9782 0.00863678 47.9523 0.00755718 47.9232 0.00755718C41.4647 0.0237512 34.8982 0.0226716 28.5476 0.021592H23.4655V0.010796H19.6905C13.327 0.0118756 6.74977 0.0129552 0.273991 0C0.121785 0 0.000883727 0.126313 0.00520163 0.278536C0.0149169 0.663953 0.012758 1.04937 0.00951954 1.42291C0.00844006 1.59888 0.00736059 1.77486 0.00736059 1.95191V1.95515C0.00736059 2.10306 0.127182 2.22289 0.275071 2.22397C0.281548 2.22397 0.286945 2.22397 0.293422 2.22397C0.40137 2.22397 0.487728 2.22397 0.563291 2.22397C0.925995 2.22073 1.21422 2.21749 1.44522 2.44961C1.67731 2.6828 1.67407 2.9635 1.66975 3.35323C1.66975 3.42664 1.6676 3.50869 1.6676 3.60262V3.99775C1.67191 7.0746 1.67515 10.2519 1.65788 13.3849C1.65788 13.5382 1.78418 13.6591 1.93639 13.6548C2.5193 13.6364 3.0612 13.6353 3.57611 13.6548C3.72832 13.6602 3.85354 13.5371 3.85246 13.3849C3.84166 10.9817 3.84274 8.54502 3.8449 6.1861C3.8449 5.43038 3.8449 4.67466 3.84598 3.91894C3.84598 3.24203 3.84598 2.83286 4.14391 2.53058C4.44509 2.22505 4.85205 2.22505 5.52457 2.22505C17.9677 2.22505 30.4108 2.22505 42.8539 2.22505C43.3235 2.22505 43.6333 2.22505 43.8859 2.47228C44.1428 2.72383 44.1428 3.04878 44.1428 3.50006C44.1428 6.1807 44.1428 8.86134 44.1428 11.5409C44.1407 19.7815 44.1396 28.3027 44.1623 36.6826C44.1644 37.475 43.9215 38.1357 43.4595 38.5924C42.9954 39.0512 42.325 39.2866 41.5283 39.2758C39.6781 39.2499 37.7955 39.252 35.9744 39.2542C34.8226 39.2553 33.6352 39.2574 32.4597 39.2509C32.3085 39.2509 32.1866 39.374 32.1898 39.5252C32.2006 40.0175 32.206 40.5918 32.1876 41.178C32.2945 41.2871 32.3506 41.3454 32.4575 41.4544C35.0979 41.4414 37.7761 41.4447 40.369 41.4468H41.985C41.985 41.4468 41.9871 41.4479 41.9882 41.4479C42.3606 41.4479 42.7406 41.3961 43.1163 41.2935C45.1435 40.7429 46.4043 39.0933 46.4043 36.9892C46.4043 31.3019 46.4043 25.6135 46.4043 19.9261C46.4043 14.6242 46.4043 9.32233 46.4043 4.01934C46.4043 3.93082 46.3957 3.82609 46.3871 3.71598C46.3558 3.33488 46.3212 2.90412 46.5727 2.55325C46.9095 2.0847 47.4709 2.15704 47.8433 2.20454C47.894 2.21102 47.9437 2.21749 47.989 2.22289C47.975 1.53843 47.9663 0.814017 47.9987 0.0842086C47.9998 0.0550595 48.0009 0.0313083 48.0009 0.010796L47.9998 0.00971638Z" fill="var(--fill-0, #22396A)"/>
<path id="Vector_2" d="M25.1421 29.5054C24.3972 29.69 23.6524 29.8736 22.9076 30.0571C20.631 30.6174 18.2766 31.1971 15.9752 31.8104C13.963 32.3469 11.5655 32.8759 9.02982 32.7259C8.45878 32.6924 7.86614 32.701 7.29294 32.7097C6.91836 32.7151 6.53083 32.7205 6.14654 32.7151C6.112 32.7151 6.07853 32.7151 6.04399 32.7151C5.3229 32.7151 4.64175 32.8284 4.01781 33.053C1.51774 33.9501 0.0183511 36.1719 0.00647686 38.9929C-0.00107948 40.7041 0 42.4455 0.00107948 44.1296C0.00107948 44.9296 0.00107948 45.7307 0.00107948 46.5307C0.00107948 47.0554 0.115504 47.4365 0.340035 47.661C0.565646 47.8866 0.94778 48.0011 1.47349 48.0011H12.8004C14.2297 48.0011 15.6589 48.0011 17.0881 48.0011C18.16 48.0011 18.5594 47.6027 18.5605 46.5339C18.5605 46.1345 18.5627 45.735 18.5648 45.3356C18.5702 44.3715 18.5756 43.375 18.554 42.4001C18.5325 41.395 18.9459 40.6317 19.8181 40.0671C21.8724 38.736 23.6675 37.5387 25.3062 36.4073C27.4176 34.9487 27.9638 32.3771 26.6339 30.1542C26.2529 29.5162 25.834 29.3348 25.141 29.5076L25.1421 29.5054ZM25.1831 32.9742C25.1129 33.6457 24.7632 34.1822 24.1155 34.6119C23.1191 35.2737 22.1249 35.9398 21.1308 36.6059C20.2186 37.217 19.3064 37.827 18.3932 38.4348C17.0806 39.3082 16.4286 40.527 16.4005 42.1626C16.3843 43.0954 16.3724 43.9364 16.3908 44.7785C16.3929 44.8983 16.4016 45.2611 16.1457 45.5212C15.9234 45.7469 15.6341 45.7793 15.402 45.7793C15.3966 45.7793 15.3912 45.7793 15.3847 45.7793C13.8551 45.7696 12.2996 45.7706 10.7948 45.7717C10.2799 45.7717 9.76602 45.7717 9.25111 45.7717L8.71137 45.7696C8.37566 45.7696 8.03886 45.7696 7.70314 45.7696C6.23614 45.7685 4.71839 45.7663 3.22763 45.7793C2.99015 45.7803 2.69006 45.7544 2.46337 45.5266C2.2356 45.2988 2.20969 44.9944 2.21185 44.7558C2.2248 43.5618 2.22372 42.3461 2.22264 41.1705C2.22264 40.3748 2.22048 39.5791 2.22372 38.7835C2.23344 36.5725 3.91526 34.9002 6.13682 34.8937C6.57617 34.8926 7.01444 34.8904 7.45379 34.8894C8.84091 34.884 10.2755 34.8786 11.6875 34.8915C12.7994 34.9012 13.8562 34.6324 14.9767 34.3463C15.1861 34.2934 15.3955 34.2394 15.6049 34.1887C18.7268 33.4233 21.5107 32.7248 24.1133 32.0543C24.2612 32.0166 24.6531 31.9151 24.9499 32.172C25.2403 32.4225 25.2015 32.7949 25.1831 32.9742Z" fill="var(--fill-0, #22396A)"/>
<path id="Vector_3" d="M9.3515 30.0225C9.36662 30.0225 9.38065 30.0225 9.39468 30.0225C11.192 30.0107 12.89 29.2906 14.1735 27.9929C15.457 26.6963 16.1587 24.9948 16.1479 23.2027V23.1941C16.1673 21.3771 15.4667 19.6627 14.1735 18.3672C12.8879 17.0792 11.1726 16.3721 9.33855 16.3721C9.31696 16.3721 9.29537 16.3721 9.27378 16.3721C7.45163 16.3883 5.75145 17.1138 4.48522 18.4147C3.21684 19.7178 2.50654 21.498 2.53785 23.2977C2.60262 27.0148 5.65538 30.0225 9.35043 30.0236L9.3515 30.0225ZM6.08933 19.9078C6.96154 19.0398 8.10579 18.5615 9.30617 18.5734C11.9347 18.5896 13.9868 20.6333 13.9771 23.2265C13.9673 25.7516 11.8937 27.7996 9.3515 27.8007H9.33639C6.78559 27.7921 4.71084 25.7322 4.70976 23.2092C4.70976 21.9655 5.19984 20.7931 6.09041 19.9078H6.08933Z" fill="var(--fill-0, #22396A)"/>
<path id="Vector_4" d="M34.9999 19.0186C36.508 19.0186 38.0322 19.0207 39.5435 19.0283C39.6957 19.0283 39.8176 18.9041 39.8133 18.7519C39.795 18.2197 39.7961 17.6712 39.8166 17.0893C39.822 16.936 39.7011 16.8097 39.5489 16.8097C33.8255 16.8184 27.7772 16.8151 21.5615 16.8C21.4104 16.8 21.2884 16.9231 21.2917 17.0742C21.3025 17.6529 21.3068 18.1992 21.2884 18.7508C21.3953 18.8599 21.4514 18.9171 21.5583 19.0272C23.8133 19.0143 26.0997 19.0153 28.3137 19.0175C29.065 19.0175 29.8163 19.0186 30.5665 19.0186L31.1063 19.0207C31.6676 19.0207 32.23 19.0207 32.7913 19.0207C33.5211 19.0207 34.2583 19.0207 34.9989 19.0207L34.9999 19.0186Z" fill="var(--fill-0, #22396A)"/>
<path id="Vector_5" d="M21.5582 13.6602C22.9475 13.6483 24.353 13.6504 25.7153 13.6526C26.2356 13.6526 26.7559 13.6537 27.2762 13.6537C27.8073 13.6537 28.3373 13.6537 28.8684 13.6537C30.2167 13.6526 31.6071 13.6515 32.9834 13.6602C33.1356 13.6602 33.2565 13.5371 33.2533 13.3849C33.2425 12.8073 33.2468 12.2426 33.2554 11.7514C33.2576 11.6003 33.1367 11.4783 32.9866 11.4783C29.1934 11.4858 25.3547 11.4869 21.5615 11.4804C21.4103 11.4804 21.2905 11.6035 21.2927 11.7536C21.3013 12.2804 21.3045 12.8267 21.2894 13.3816C21.2851 13.5349 21.4071 13.6612 21.5593 13.6591L21.5582 13.6602Z" fill="var(--fill-0, #22396A)"/>
</g>
<defs>
<clipPath id="clip0_81_145">
<rect width="48" height="48" fill="white"/>
</clipPath>
</defs>
</svg>
