<svg width="60" height="60" viewBox="0 0 60 60" fill="none" xmlns="http://www.w3.org/2000/svg">
<path d="M7.5 35C9.575 36.605 12.6925 37.5425 16.25 37.5C19.8075 37.5425 22.925 36.605 25 35C27.075 33.395 30.1925 32.4575 33.75 32.5C37.3075 32.4575 40.425 33.395 42.5 35M20 7.5C19.2088 8.06793 18.5677 8.81993 18.1321 9.69106C17.6966 10.5622 17.4796 11.5263 17.5 12.5C17.4796 13.4737 17.6966 14.4378 18.1321 15.3089C18.5677 16.1801 19.2088 16.9321 20 17.5M30 7.5C29.2088 8.06793 28.5677 8.81993 28.1321 9.69106C27.6966 10.5622 27.4796 11.5263 27.5 12.5C27.4796 13.4737 27.6966 14.4378 28.1321 15.3089C28.5677 16.1801 29.2088 16.9321 30 17.5" stroke="#22396A" stroke-width="2" stroke-linecap="round" stroke-linejoin="round"/>
<path d="M7.5 25H42.5V37.5C42.5 41.4782 40.9196 45.2936 38.1066 48.1066C35.2936 50.9196 31.4782 52.5 27.5 52.5H22.5C18.5218 52.5 14.7064 50.9196 11.8934 48.1066C9.08035 45.2936 7.5 41.4782 7.5 37.5V25Z" stroke="#22396A" stroke-width="4" stroke-linecap="round" stroke-linejoin="round"/>
<path d="M41.865 41.815C42.9815 42.3275 44.2068 42.558 45.4332 42.486C46.6596 42.4141 47.8496 42.042 48.8985 41.4024C49.9474 40.7629 50.8232 39.8754 51.4488 38.8181C52.0744 37.7608 52.4306 36.566 52.4863 35.3388C52.542 34.1115 52.2953 32.8894 51.768 31.7798C51.2407 30.6702 50.4489 29.7071 49.4622 28.9752C48.4755 28.2433 47.3242 27.765 46.1093 27.5823C44.8944 27.3996 43.6533 27.5181 42.495 27.9275" stroke="#22396A" stroke-width="4" stroke-linecap="round" stroke-linejoin="round"/>
</svg>
