<svg width="24" height="24" viewBox="0 0 24 24" fill="none" xmlns="http://www.w3.org/2000/svg">
<path d="M5.68425 9.00141C6.45698 13.5365 8.89436 17.62 12.5193 20.4527L13.0978 20.9213C13.7383 21.4401 14.5415 21.7162 15.3656 21.7008C16.1898 21.6855 16.9821 21.3798 17.603 20.8375L18.8043 19.7887C18.9925 19.6242 19.1121 19.3951 19.1398 19.1467C19.1675 18.8983 19.1011 18.6486 18.9538 18.4467L16.6733 15.3199C16.5939 15.2111 16.4933 15.1194 16.3776 15.0504C16.2618 14.9814 16.1333 14.9366 15.9998 14.9185C15.8663 14.9004 15.7305 14.9095 15.6006 14.9452C15.4706 14.9809 15.3493 15.0425 15.2437 15.1263L14.0182 16.0992C12.0131 14.3387 10.6439 11.9667 10.1223 9.34993L11.5767 8.77476C11.702 8.72528 11.816 8.65097 11.9119 8.55631C12.0078 8.46165 12.0836 8.34859 12.1347 8.22391C12.1858 8.09924 12.2112 7.96552 12.2093 7.83079C12.2074 7.69606 12.1784 7.5631 12.1238 7.43989L10.5562 3.90159C10.455 3.67306 10.2719 3.49072 10.0429 3.39047C9.81397 3.29023 9.55578 3.27935 9.31921 3.35998L7.80025 3.87852C7.0156 4.14634 6.3515 4.68401 5.92626 5.39575C5.50102 6.1075 5.34225 6.94709 5.47824 7.76496L5.68425 9.00141Z" fill="#22396A"/>
</svg>
