<svg width="58" height="52" viewBox="0 0 58 52" fill="none" xmlns="http://www.w3.org/2000/svg">
<g clip-path="url(#clip0_136_64)">
<mask id="path-1-outside-1_136_64" maskUnits="userSpaceOnUse" x="0" y="10" width="58" height="42" fill="black">
<rect fill="white" y="10" width="58" height="42"/>
<path d="M56.9989 29.3291C56.6703 30.3979 55.91 31.0448 54.9416 31.5227C54.1911 31.8928 53.4802 32.3421 52.7385 32.732C51.2716 33.5031 49.7544 33.0945 48.9448 31.6545C48.6885 31.1986 48.4781 31.2052 48.1243 31.4535C47.9457 31.5798 47.7529 31.6852 47.5776 31.8159C46.6596 32.4981 46.6585 32.508 47.1515 33.5306C48.1144 35.5298 47.0956 37.9661 44.9682 38.6274C44.4839 38.7778 44.3251 38.925 44.2681 39.4578C44.0874 41.1691 43.1409 42.3093 41.4582 42.7564C41.1164 42.8476 41.0057 42.9783 41.0233 43.3342C41.1164 45.1729 39.3077 47.3457 36.6237 46.8448C36.2885 46.7822 36.1768 46.7975 36.0574 47.1501C35.2171 49.6194 32.3623 50.4762 30.2808 48.9032C29.9314 48.6396 29.5852 48.3705 29.2554 48.0838C29.0561 47.9103 28.9421 47.907 28.7197 48.0948C27.8444 48.8384 26.9571 49.5722 26.0336 50.2543C24.8461 51.1309 23.5435 51.2319 22.23 50.5718C20.9351 49.9215 20.257 48.8121 20.188 47.3709C20.1694 46.9876 20.0302 46.8821 19.7224 46.7964C18.0397 46.323 17.0253 45.0027 16.9826 43.2243C16.976 42.9684 16.9256 42.875 16.6517 42.7948C14.7499 42.239 13.8626 41.1087 13.7268 39.0667C13.7059 38.7471 13.5274 38.7888 13.3499 38.7372C11.9279 38.3264 10.9705 37.4388 10.6166 35.9735C10.3701 34.952 10.5148 33.9667 11.1118 33.0978C11.3495 32.7529 11.2685 32.5508 11.0209 32.3113C10.5969 31.9027 10.1072 31.5919 9.60439 31.292C9.2626 31.0888 9.24069 31.3876 9.15086 31.5523C8.65131 32.4673 7.90966 33.0121 6.85908 33.0978C6.32009 33.1418 5.81397 33.0297 5.34072 32.7672C4.35368 32.2202 3.35677 31.6896 2.38178 31.1217C1.08362 30.3649 0.614742 28.7865 1.34434 27.4705C3.41483 23.7347 5.51709 20.0165 7.6073 16.2928C8.29528 15.067 8.98544 13.8422 9.67451 12.6174C10.5805 11.0082 12.0901 10.5645 13.6994 11.4454C14.6097 11.9441 15.5212 12.4406 16.4151 12.9679C17.6256 13.6807 18.1033 14.8407 17.7242 16.1841C17.6289 16.5213 17.6881 16.6235 18.0091 16.7058C18.6926 16.8805 19.3697 17.0826 20.0401 17.3001C20.245 17.366 20.3666 17.3363 20.5232 17.1968C21.416 16.4005 22.5181 16.0797 23.6596 15.9501C25.8605 15.6997 28.0679 15.5019 30.2764 15.3152C31.2898 15.2295 32.2494 15.5404 33.1926 15.8754C34.4393 16.3181 35.6871 16.7564 36.9283 17.2133C37.3194 17.3572 37.6853 17.3924 38.0906 17.2616C38.7446 17.0518 39.4107 16.8794 40.0746 16.7036C40.3309 16.6355 40.4131 16.5729 40.3134 16.2566C39.8796 14.8824 40.3725 13.6774 41.6269 12.958C42.5745 12.4142 43.5265 11.8771 44.4905 11.363C45.8741 10.6238 47.421 11.061 48.2163 12.4142C48.7805 13.3754 49.3195 14.3497 49.8574 15.3251C50.22 15.9831 50.0754 16.6092 49.5112 16.9343C48.9174 17.2759 48.3028 17.0639 47.9205 16.3862C47.41 15.48 46.8907 14.5782 46.3901 13.6654C46.1436 13.2161 45.8303 13.1447 45.3987 13.3886C44.5749 13.8543 43.7423 14.3057 42.9163 14.7682C42.2962 15.1153 42.2491 15.2735 42.5986 15.8963C44.3503 19.018 46.1064 22.1365 47.8592 25.2572C48.8079 26.9444 49.7511 28.6349 50.7042 30.3199C51.0777 30.98 51.2552 31.0229 51.9213 30.6582C52.7199 30.2199 53.5163 29.7783 54.3106 29.3324C54.8583 29.0248 54.9186 28.8282 54.6162 28.2823C54.0411 27.2442 53.4517 26.215 52.8755 25.177C52.6454 24.7629 52.6268 24.3301 52.9028 23.9347C53.1822 23.5348 53.5908 23.4239 54.063 23.5129C54.4639 23.5886 54.6743 23.8753 54.855 24.2038C55.5748 25.5076 56.3602 26.7752 57 28.123V29.3313L56.9989 29.3291ZM23.3124 30.7636C23.5643 30.7779 23.8152 30.7549 24.0704 30.8186C26.5693 31.4491 27.713 33.9579 26.52 36.2536C26.3721 36.537 26.4115 36.6304 26.6646 36.7952C28.4075 37.9287 28.9049 39.8796 27.9354 41.7601C27.8127 41.9985 27.794 42.1061 28.0548 42.2654C29.2346 42.986 29.8076 44.0745 29.8656 45.4454C29.8744 45.642 29.9094 45.7837 30.076 45.9122C30.5963 46.312 31.0926 46.7437 31.614 47.1413C32.279 47.6477 33.1729 47.5631 33.678 46.9678C34.2213 46.3274 34.1589 45.464 33.4917 44.8665C33.0448 44.4656 32.5649 44.0998 32.0928 43.7274C31.465 43.232 31.3139 42.54 31.7269 42.016C32.1432 41.4888 32.8311 41.48 33.461 41.9875C34.413 42.7542 35.3661 43.5198 36.3225 44.2799C36.7048 44.5842 37.1255 44.7918 37.6316 44.6786C38.2571 44.5391 38.6647 44.158 38.8082 43.5242C38.9418 42.9299 38.7381 42.4345 38.2823 42.06C37.2832 41.2372 36.2666 40.4354 35.262 39.6192C34.6376 39.1129 34.5281 38.4813 34.9597 37.9551C35.3683 37.4564 36.0059 37.4191 36.6073 37.887C37.5998 38.6603 38.5825 39.4457 39.563 40.2344C39.8248 40.4453 40.0987 40.6067 40.4372 40.6397C41.0912 40.7034 41.6828 40.3607 41.9314 39.773C42.2042 39.1293 42.0552 38.4516 41.4998 37.9936C40.5566 37.2159 39.5893 36.47 38.6493 35.689C37.9504 35.108 38.0479 34.1677 38.8323 33.8041C39.2716 33.5998 39.6824 33.702 40.0527 33.9974C40.9641 34.7268 41.8745 35.4562 42.7837 36.1877C43.7478 36.9621 44.9901 36.5821 45.2639 35.41C45.4118 34.7729 45.138 34.272 44.6461 33.8766C43.7368 33.1451 42.8308 32.4091 41.9172 31.6819C38.9517 29.3181 35.9807 26.9598 32.8257 24.8507C31.6118 24.039 30.2731 23.6139 28.8085 23.738C27.9419 23.8116 27.0874 24.0115 26.222 24.1049C23.3025 24.4202 20.3731 23.1734 19.7027 19.7913C19.6589 19.5728 19.5647 19.464 19.3302 19.4014C18.4571 19.1707 17.5873 18.9203 16.7284 18.6413C16.4907 18.5644 16.4129 18.6303 16.3132 18.8159C15.9999 19.3937 15.6724 19.9627 15.3503 20.5361C13.7925 23.3041 12.2391 26.0744 10.6736 28.8381C10.5049 29.1347 10.4874 29.2818 10.8434 29.4554C11.5851 29.8168 12.2402 30.3221 12.7759 30.9537C13.0158 31.236 13.1648 31.2151 13.4321 30.991C14.2285 30.3221 15.0424 29.6751 15.8641 29.038C18.0605 27.3387 20.7642 28.0867 21.771 30.6747C21.8751 30.9438 21.9572 31.0152 22.2388 30.8998C22.574 30.7625 22.941 30.7175 23.3102 30.7603L23.3124 30.7636ZM30.3674 17.5428C28.4853 17.7054 26.601 17.8504 24.7212 18.0404C23.9861 18.1151 23.2455 18.2195 22.551 18.5073C21.8849 18.7841 21.7666 19.0521 21.966 19.7375C22.2815 20.8206 23.01 21.4599 24.0683 21.751C24.9436 21.9915 25.8243 21.9564 26.7095 21.7982C27.9452 21.5785 29.1853 21.4181 30.443 21.5939C32.0303 21.8158 33.4052 22.5341 34.7011 23.4371C38.0972 25.802 41.3421 28.3668 44.553 30.9767C44.8696 31.2338 45.0262 31.2327 45.2891 30.9207C45.8106 30.3012 46.4591 29.8201 47.18 29.4587C47.4714 29.3126 47.5557 29.2148 47.375 28.8963C45.4863 25.5636 43.6108 22.2233 41.7419 18.8796C41.6083 18.6413 41.4768 18.5853 41.2215 18.6698C40.6716 18.8522 40.1129 19.0049 39.5575 19.1707C38.4729 19.4937 37.3917 19.7771 36.2622 19.3344C35.4034 18.9983 34.5368 18.6786 33.6582 18.4007C32.5792 18.0591 31.5549 17.4846 30.3674 17.5439V17.5428ZM6.64217 30.8746C6.97958 30.9009 7.11762 30.6725 7.25674 30.4209C7.82202 29.3994 8.39606 28.3822 8.96791 27.364C11.1326 23.515 13.2984 19.6672 15.4609 15.8183C15.76 15.2867 15.7085 15.112 15.1706 14.8099C14.3457 14.3464 13.5197 13.8861 12.6893 13.4325C12.0824 13.1019 11.9148 13.1568 11.5664 13.7763C8.84741 18.6116 6.12838 23.448 3.41045 28.2845C3.10481 28.8282 3.13877 29.0017 3.66351 29.3027C4.51581 29.7915 5.37906 30.2628 6.23903 30.7395C6.36501 30.8087 6.4888 30.8944 6.64217 30.8757V30.8746ZM15.9802 39.17C15.9594 39.5654 16.0832 39.9323 16.3899 40.2333C16.9453 40.7792 17.7253 40.81 18.4122 40.2651C20.3403 38.735 22.2618 37.1961 24.1756 35.6484C24.8548 35.0992 24.9687 34.1227 24.4604 33.5009C23.9401 32.8639 23.0253 32.7771 22.3133 33.3428C20.3731 34.8861 18.4451 36.4459 16.5148 38.0023C16.1555 38.2923 15.9539 38.6669 15.9791 39.17H15.9802ZM26.1858 39.9631C26.1957 39.3457 25.9481 38.9338 25.4584 38.6614C24.8866 38.3429 24.3279 38.3912 23.8283 38.7844C22.4546 39.8664 21.0863 40.9549 19.7388 42.0699C19.0531 42.6367 18.9819 43.5132 19.5022 44.1635C20.005 44.7929 20.899 44.9027 21.5968 44.3568C22.9596 43.2902 24.2983 42.1929 25.6447 41.1054C26.0226 40.8001 26.2187 40.4057 26.1869 39.9631H26.1858ZM19.7224 31.895C19.7662 31.2733 19.5 30.8263 18.9709 30.5472C18.4023 30.2463 17.8371 30.3056 17.3408 30.6999C15.9714 31.7852 14.6053 32.8748 13.2623 33.993C12.5951 34.5478 12.5338 35.4001 13.0388 36.0416C13.546 36.6842 14.4443 36.8028 15.1257 36.2679C16.4721 35.2112 17.7987 34.1315 19.1297 33.0561C19.4978 32.7595 19.7553 32.3948 19.7224 31.8961V31.895ZM22.4294 47.2018C22.4064 47.8158 22.631 48.264 23.1382 48.555C23.7056 48.8813 24.2654 48.8263 24.7716 48.443C25.5121 47.8806 26.233 47.2918 26.9538 46.7042C27.6746 46.1154 27.8335 45.1784 27.3361 44.5271C26.8234 43.8548 25.8682 43.7856 25.1068 44.381C24.4024 44.9313 23.71 45.497 23.0155 46.0583C22.6419 46.3593 22.4053 46.7327 22.4294 47.2018Z"/>
</mask>
<path d="M56.9989 29.3291C56.6703 30.3979 55.91 31.0448 54.9416 31.5227C54.1911 31.8928 53.4802 32.3421 52.7385 32.732C51.2716 33.5031 49.7544 33.0945 48.9448 31.6545C48.6885 31.1986 48.4781 31.2052 48.1243 31.4535C47.9457 31.5798 47.7529 31.6852 47.5776 31.8159C46.6596 32.4981 46.6585 32.508 47.1515 33.5306C48.1144 35.5298 47.0956 37.9661 44.9682 38.6274C44.4839 38.7778 44.3251 38.925 44.2681 39.4578C44.0874 41.1691 43.1409 42.3093 41.4582 42.7564C41.1164 42.8476 41.0057 42.9783 41.0233 43.3342C41.1164 45.1729 39.3077 47.3457 36.6237 46.8448C36.2885 46.7822 36.1768 46.7975 36.0574 47.1501C35.2171 49.6194 32.3623 50.4762 30.2808 48.9032C29.9314 48.6396 29.5852 48.3705 29.2554 48.0838C29.0561 47.9103 28.9421 47.907 28.7197 48.0948C27.8444 48.8384 26.9571 49.5722 26.0336 50.2543C24.8461 51.1309 23.5435 51.2319 22.23 50.5718C20.9351 49.9215 20.257 48.8121 20.188 47.3709C20.1694 46.9876 20.0302 46.8821 19.7224 46.7964C18.0397 46.323 17.0253 45.0027 16.9826 43.2243C16.976 42.9684 16.9256 42.875 16.6517 42.7948C14.7499 42.239 13.8626 41.1087 13.7268 39.0667C13.7059 38.7471 13.5274 38.7888 13.3499 38.7372C11.9279 38.3264 10.9705 37.4388 10.6166 35.9735C10.3701 34.952 10.5148 33.9667 11.1118 33.0978C11.3495 32.7529 11.2685 32.5508 11.0209 32.3113C10.5969 31.9027 10.1072 31.5919 9.60439 31.292C9.2626 31.0888 9.24069 31.3876 9.15086 31.5523C8.65131 32.4673 7.90966 33.0121 6.85908 33.0978C6.32009 33.1418 5.81397 33.0297 5.34072 32.7672C4.35368 32.2202 3.35677 31.6896 2.38178 31.1217C1.08362 30.3649 0.614742 28.7865 1.34434 27.4705C3.41483 23.7347 5.51709 20.0165 7.6073 16.2928C8.29528 15.067 8.98544 13.8422 9.67451 12.6174C10.5805 11.0082 12.0901 10.5645 13.6994 11.4454C14.6097 11.9441 15.5212 12.4406 16.4151 12.9679C17.6256 13.6807 18.1033 14.8407 17.7242 16.1841C17.6289 16.5213 17.6881 16.6235 18.0091 16.7058C18.6926 16.8805 19.3697 17.0826 20.0401 17.3001C20.245 17.366 20.3666 17.3363 20.5232 17.1968C21.416 16.4005 22.5181 16.0797 23.6596 15.9501C25.8605 15.6997 28.0679 15.5019 30.2764 15.3152C31.2898 15.2295 32.2494 15.5404 33.1926 15.8754C34.4393 16.3181 35.6871 16.7564 36.9283 17.2133C37.3194 17.3572 37.6853 17.3924 38.0906 17.2616C38.7446 17.0518 39.4107 16.8794 40.0746 16.7036C40.3309 16.6355 40.4131 16.5729 40.3134 16.2566C39.8796 14.8824 40.3725 13.6774 41.6269 12.958C42.5745 12.4142 43.5265 11.8771 44.4905 11.363C45.8741 10.6238 47.421 11.061 48.2163 12.4142C48.7805 13.3754 49.3195 14.3497 49.8574 15.3251C50.22 15.9831 50.0754 16.6092 49.5112 16.9343C48.9174 17.2759 48.3028 17.0639 47.9205 16.3862C47.41 15.48 46.8907 14.5782 46.3901 13.6654C46.1436 13.2161 45.8303 13.1447 45.3987 13.3886C44.5749 13.8543 43.7423 14.3057 42.9163 14.7682C42.2962 15.1153 42.2491 15.2735 42.5986 15.8963C44.3503 19.018 46.1064 22.1365 47.8592 25.2572C48.8079 26.9444 49.7511 28.6349 50.7042 30.3199C51.0777 30.98 51.2552 31.0229 51.9213 30.6582C52.7199 30.2199 53.5163 29.7783 54.3106 29.3324C54.8583 29.0248 54.9186 28.8282 54.6162 28.2823C54.0411 27.2442 53.4517 26.215 52.8755 25.177C52.6454 24.7629 52.6268 24.3301 52.9028 23.9347C53.1822 23.5348 53.5908 23.4239 54.063 23.5129C54.4639 23.5886 54.6743 23.8753 54.855 24.2038C55.5748 25.5076 56.3602 26.7752 57 28.123V29.3313L56.9989 29.3291ZM23.3124 30.7636C23.5643 30.7779 23.8152 30.7549 24.0704 30.8186C26.5693 31.4491 27.713 33.9579 26.52 36.2536C26.3721 36.537 26.4115 36.6304 26.6646 36.7952C28.4075 37.9287 28.9049 39.8796 27.9354 41.7601C27.8127 41.9985 27.794 42.1061 28.0548 42.2654C29.2346 42.986 29.8076 44.0745 29.8656 45.4454C29.8744 45.642 29.9094 45.7837 30.076 45.9122C30.5963 46.312 31.0926 46.7437 31.614 47.1413C32.279 47.6477 33.1729 47.5631 33.678 46.9678C34.2213 46.3274 34.1589 45.464 33.4917 44.8665C33.0448 44.4656 32.5649 44.0998 32.0928 43.7274C31.465 43.232 31.3139 42.54 31.7269 42.016C32.1432 41.4888 32.8311 41.48 33.461 41.9875C34.413 42.7542 35.3661 43.5198 36.3225 44.2799C36.7048 44.5842 37.1255 44.7918 37.6316 44.6786C38.2571 44.5391 38.6647 44.158 38.8082 43.5242C38.9418 42.9299 38.7381 42.4345 38.2823 42.06C37.2832 41.2372 36.2666 40.4354 35.262 39.6192C34.6376 39.1129 34.5281 38.4813 34.9597 37.9551C35.3683 37.4564 36.0059 37.4191 36.6073 37.887C37.5998 38.6603 38.5825 39.4457 39.563 40.2344C39.8248 40.4453 40.0987 40.6067 40.4372 40.6397C41.0912 40.7034 41.6828 40.3607 41.9314 39.773C42.2042 39.1293 42.0552 38.4516 41.4998 37.9936C40.5566 37.2159 39.5893 36.47 38.6493 35.689C37.9504 35.108 38.0479 34.1677 38.8323 33.8041C39.2716 33.5998 39.6824 33.702 40.0527 33.9974C40.9641 34.7268 41.8745 35.4562 42.7837 36.1877C43.7478 36.9621 44.9901 36.5821 45.2639 35.41C45.4118 34.7729 45.138 34.272 44.6461 33.8766C43.7368 33.1451 42.8308 32.4091 41.9172 31.6819C38.9517 29.3181 35.9807 26.9598 32.8257 24.8507C31.6118 24.039 30.2731 23.6139 28.8085 23.738C27.9419 23.8116 27.0874 24.0115 26.222 24.1049C23.3025 24.4202 20.3731 23.1734 19.7027 19.7913C19.6589 19.5728 19.5647 19.464 19.3302 19.4014C18.4571 19.1707 17.5873 18.9203 16.7284 18.6413C16.4907 18.5644 16.4129 18.6303 16.3132 18.8159C15.9999 19.3937 15.6724 19.9627 15.3503 20.5361C13.7925 23.3041 12.2391 26.0744 10.6736 28.8381C10.5049 29.1347 10.4874 29.2818 10.8434 29.4554C11.5851 29.8168 12.2402 30.3221 12.7759 30.9537C13.0158 31.236 13.1648 31.2151 13.4321 30.991C14.2285 30.3221 15.0424 29.6751 15.8641 29.038C18.0605 27.3387 20.7642 28.0867 21.771 30.6747C21.8751 30.9438 21.9572 31.0152 22.2388 30.8998C22.574 30.7625 22.941 30.7175 23.3102 30.7603L23.3124 30.7636ZM30.3674 17.5428C28.4853 17.7054 26.601 17.8504 24.7212 18.0404C23.9861 18.1151 23.2455 18.2195 22.551 18.5073C21.8849 18.7841 21.7666 19.0521 21.966 19.7375C22.2815 20.8206 23.01 21.4599 24.0683 21.751C24.9436 21.9915 25.8243 21.9564 26.7095 21.7982C27.9452 21.5785 29.1853 21.4181 30.443 21.5939C32.0303 21.8158 33.4052 22.5341 34.7011 23.4371C38.0972 25.802 41.3421 28.3668 44.553 30.9767C44.8696 31.2338 45.0262 31.2327 45.2891 30.9207C45.8106 30.3012 46.4591 29.8201 47.18 29.4587C47.4714 29.3126 47.5557 29.2148 47.375 28.8963C45.4863 25.5636 43.6108 22.2233 41.7419 18.8796C41.6083 18.6413 41.4768 18.5853 41.2215 18.6698C40.6716 18.8522 40.1129 19.0049 39.5575 19.1707C38.4729 19.4937 37.3917 19.7771 36.2622 19.3344C35.4034 18.9983 34.5368 18.6786 33.6582 18.4007C32.5792 18.0591 31.5549 17.4846 30.3674 17.5439V17.5428ZM6.64217 30.8746C6.97958 30.9009 7.11762 30.6725 7.25674 30.4209C7.82202 29.3994 8.39606 28.3822 8.96791 27.364C11.1326 23.515 13.2984 19.6672 15.4609 15.8183C15.76 15.2867 15.7085 15.112 15.1706 14.8099C14.3457 14.3464 13.5197 13.8861 12.6893 13.4325C12.0824 13.1019 11.9148 13.1568 11.5664 13.7763C8.84741 18.6116 6.12838 23.448 3.41045 28.2845C3.10481 28.8282 3.13877 29.0017 3.66351 29.3027C4.51581 29.7915 5.37906 30.2628 6.23903 30.7395C6.36501 30.8087 6.4888 30.8944 6.64217 30.8757V30.8746ZM15.9802 39.17C15.9594 39.5654 16.0832 39.9323 16.3899 40.2333C16.9453 40.7792 17.7253 40.81 18.4122 40.2651C20.3403 38.735 22.2618 37.1961 24.1756 35.6484C24.8548 35.0992 24.9687 34.1227 24.4604 33.5009C23.9401 32.8639 23.0253 32.7771 22.3133 33.3428C20.3731 34.8861 18.4451 36.4459 16.5148 38.0023C16.1555 38.2923 15.9539 38.6669 15.9791 39.17H15.9802ZM26.1858 39.9631C26.1957 39.3457 25.9481 38.9338 25.4584 38.6614C24.8866 38.3429 24.3279 38.3912 23.8283 38.7844C22.4546 39.8664 21.0863 40.9549 19.7388 42.0699C19.0531 42.6367 18.9819 43.5132 19.5022 44.1635C20.005 44.7929 20.899 44.9027 21.5968 44.3568C22.9596 43.2902 24.2983 42.1929 25.6447 41.1054C26.0226 40.8001 26.2187 40.4057 26.1869 39.9631H26.1858ZM19.7224 31.895C19.7662 31.2733 19.5 30.8263 18.9709 30.5472C18.4023 30.2463 17.8371 30.3056 17.3408 30.6999C15.9714 31.7852 14.6053 32.8748 13.2623 33.993C12.5951 34.5478 12.5338 35.4001 13.0388 36.0416C13.546 36.6842 14.4443 36.8028 15.1257 36.2679C16.4721 35.2112 17.7987 34.1315 19.1297 33.0561C19.4978 32.7595 19.7553 32.3948 19.7224 31.8961V31.895ZM22.4294 47.2018C22.4064 47.8158 22.631 48.264 23.1382 48.555C23.7056 48.8813 24.2654 48.8263 24.7716 48.443C25.5121 47.8806 26.233 47.2918 26.9538 46.7042C27.6746 46.1154 27.8335 45.1784 27.3361 44.5271C26.8234 43.8548 25.8682 43.7856 25.1068 44.381C24.4024 44.9313 23.71 45.497 23.0155 46.0583C22.6419 46.3593 22.4053 46.7327 22.4294 47.2018Z" fill="#22396A"/>
<path d="M56.9989 29.3291C56.6703 30.3979 55.91 31.0448 54.9416 31.5227C54.1911 31.8928 53.4802 32.3421 52.7385 32.732C51.2716 33.5031 49.7544 33.0945 48.9448 31.6545C48.6885 31.1986 48.4781 31.2052 48.1243 31.4535C47.9457 31.5798 47.7529 31.6852 47.5776 31.8159C46.6596 32.4981 46.6585 32.508 47.1515 33.5306C48.1144 35.5298 47.0956 37.9661 44.9682 38.6274C44.4839 38.7778 44.3251 38.925 44.2681 39.4578C44.0874 41.1691 43.1409 42.3093 41.4582 42.7564C41.1164 42.8476 41.0057 42.9783 41.0233 43.3342C41.1164 45.1729 39.3077 47.3457 36.6237 46.8448C36.2885 46.7822 36.1768 46.7975 36.0574 47.1501C35.2171 49.6194 32.3623 50.4762 30.2808 48.9032C29.9314 48.6396 29.5852 48.3705 29.2554 48.0838C29.0561 47.9103 28.9421 47.907 28.7197 48.0948C27.8444 48.8384 26.9571 49.5722 26.0336 50.2543C24.8461 51.1309 23.5435 51.2319 22.23 50.5718C20.9351 49.9215 20.257 48.8121 20.188 47.3709C20.1694 46.9876 20.0302 46.8821 19.7224 46.7964C18.0397 46.323 17.0253 45.0027 16.9826 43.2243C16.976 42.9684 16.9256 42.875 16.6517 42.7948C14.7499 42.239 13.8626 41.1087 13.7268 39.0667C13.7059 38.7471 13.5274 38.7888 13.3499 38.7372C11.9279 38.3264 10.9705 37.4388 10.6166 35.9735C10.3701 34.952 10.5148 33.9667 11.1118 33.0978C11.3495 32.7529 11.2685 32.5508 11.0209 32.3113C10.5969 31.9027 10.1072 31.5919 9.60439 31.292C9.2626 31.0888 9.24069 31.3876 9.15086 31.5523C8.65131 32.4673 7.90966 33.0121 6.85908 33.0978C6.32009 33.1418 5.81397 33.0297 5.34072 32.7672C4.35368 32.2202 3.35677 31.6896 2.38178 31.1217C1.08362 30.3649 0.614742 28.7865 1.34434 27.4705C3.41483 23.7347 5.51709 20.0165 7.6073 16.2928C8.29528 15.067 8.98544 13.8422 9.67451 12.6174C10.5805 11.0082 12.0901 10.5645 13.6994 11.4454C14.6097 11.9441 15.5212 12.4406 16.4151 12.9679C17.6256 13.6807 18.1033 14.8407 17.7242 16.1841C17.6289 16.5213 17.6881 16.6235 18.0091 16.7058C18.6926 16.8805 19.3697 17.0826 20.0401 17.3001C20.245 17.366 20.3666 17.3363 20.5232 17.1968C21.416 16.4005 22.5181 16.0797 23.6596 15.9501C25.8605 15.6997 28.0679 15.5019 30.2764 15.3152C31.2898 15.2295 32.2494 15.5404 33.1926 15.8754C34.4393 16.3181 35.6871 16.7564 36.9283 17.2133C37.3194 17.3572 37.6853 17.3924 38.0906 17.2616C38.7446 17.0518 39.4107 16.8794 40.0746 16.7036C40.3309 16.6355 40.4131 16.5729 40.3134 16.2566C39.8796 14.8824 40.3725 13.6774 41.6269 12.958C42.5745 12.4142 43.5265 11.8771 44.4905 11.363C45.8741 10.6238 47.421 11.061 48.2163 12.4142C48.7805 13.3754 49.3195 14.3497 49.8574 15.3251C50.22 15.9831 50.0754 16.6092 49.5112 16.9343C48.9174 17.2759 48.3028 17.0639 47.9205 16.3862C47.41 15.48 46.8907 14.5782 46.3901 13.6654C46.1436 13.2161 45.8303 13.1447 45.3987 13.3886C44.5749 13.8543 43.7423 14.3057 42.9163 14.7682C42.2962 15.1153 42.2491 15.2735 42.5986 15.8963C44.3503 19.018 46.1064 22.1365 47.8592 25.2572C48.8079 26.9444 49.7511 28.6349 50.7042 30.3199C51.0777 30.98 51.2552 31.0229 51.9213 30.6582C52.7199 30.2199 53.5163 29.7783 54.3106 29.3324C54.8583 29.0248 54.9186 28.8282 54.6162 28.2823C54.0411 27.2442 53.4517 26.215 52.8755 25.177C52.6454 24.7629 52.6268 24.3301 52.9028 23.9347C53.1822 23.5348 53.5908 23.4239 54.063 23.5129C54.4639 23.5886 54.6743 23.8753 54.855 24.2038C55.5748 25.5076 56.3602 26.7752 57 28.123V29.3313L56.9989 29.3291ZM23.3124 30.7636C23.5643 30.7779 23.8152 30.7549 24.0704 30.8186C26.5693 31.4491 27.713 33.9579 26.52 36.2536C26.3721 36.537 26.4115 36.6304 26.6646 36.7952C28.4075 37.9287 28.9049 39.8796 27.9354 41.7601C27.8127 41.9985 27.794 42.1061 28.0548 42.2654C29.2346 42.986 29.8076 44.0745 29.8656 45.4454C29.8744 45.642 29.9094 45.7837 30.076 45.9122C30.5963 46.312 31.0926 46.7437 31.614 47.1413C32.279 47.6477 33.1729 47.5631 33.678 46.9678C34.2213 46.3274 34.1589 45.464 33.4917 44.8665C33.0448 44.4656 32.5649 44.0998 32.0928 43.7274C31.465 43.232 31.3139 42.54 31.7269 42.016C32.1432 41.4888 32.8311 41.48 33.461 41.9875C34.413 42.7542 35.3661 43.5198 36.3225 44.2799C36.7048 44.5842 37.1255 44.7918 37.6316 44.6786C38.2571 44.5391 38.6647 44.158 38.8082 43.5242C38.9418 42.9299 38.7381 42.4345 38.2823 42.06C37.2832 41.2372 36.2666 40.4354 35.262 39.6192C34.6376 39.1129 34.5281 38.4813 34.9597 37.9551C35.3683 37.4564 36.0059 37.4191 36.6073 37.887C37.5998 38.6603 38.5825 39.4457 39.563 40.2344C39.8248 40.4453 40.0987 40.6067 40.4372 40.6397C41.0912 40.7034 41.6828 40.3607 41.9314 39.773C42.2042 39.1293 42.0552 38.4516 41.4998 37.9936C40.5566 37.2159 39.5893 36.47 38.6493 35.689C37.9504 35.108 38.0479 34.1677 38.8323 33.8041C39.2716 33.5998 39.6824 33.702 40.0527 33.9974C40.9641 34.7268 41.8745 35.4562 42.7837 36.1877C43.7478 36.9621 44.9901 36.5821 45.2639 35.41C45.4118 34.7729 45.138 34.272 44.6461 33.8766C43.7368 33.1451 42.8308 32.4091 41.9172 31.6819C38.9517 29.3181 35.9807 26.9598 32.8257 24.8507C31.6118 24.039 30.2731 23.6139 28.8085 23.738C27.9419 23.8116 27.0874 24.0115 26.222 24.1049C23.3025 24.4202 20.3731 23.1734 19.7027 19.7913C19.6589 19.5728 19.5647 19.464 19.3302 19.4014C18.4571 19.1707 17.5873 18.9203 16.7284 18.6413C16.4907 18.5644 16.4129 18.6303 16.3132 18.8159C15.9999 19.3937 15.6724 19.9627 15.3503 20.5361C13.7925 23.3041 12.2391 26.0744 10.6736 28.8381C10.5049 29.1347 10.4874 29.2818 10.8434 29.4554C11.5851 29.8168 12.2402 30.3221 12.7759 30.9537C13.0158 31.236 13.1648 31.2151 13.4321 30.991C14.2285 30.3221 15.0424 29.6751 15.8641 29.038C18.0605 27.3387 20.7642 28.0867 21.771 30.6747C21.8751 30.9438 21.9572 31.0152 22.2388 30.8998C22.574 30.7625 22.941 30.7175 23.3102 30.7603L23.3124 30.7636ZM30.3674 17.5428C28.4853 17.7054 26.601 17.8504 24.7212 18.0404C23.9861 18.1151 23.2455 18.2195 22.551 18.5073C21.8849 18.7841 21.7666 19.0521 21.966 19.7375C22.2815 20.8206 23.01 21.4599 24.0683 21.751C24.9436 21.9915 25.8243 21.9564 26.7095 21.7982C27.9452 21.5785 29.1853 21.4181 30.443 21.5939C32.0303 21.8158 33.4052 22.5341 34.7011 23.4371C38.0972 25.802 41.3421 28.3668 44.553 30.9767C44.8696 31.2338 45.0262 31.2327 45.2891 30.9207C45.8106 30.3012 46.4591 29.8201 47.18 29.4587C47.4714 29.3126 47.5557 29.2148 47.375 28.8963C45.4863 25.5636 43.6108 22.2233 41.7419 18.8796C41.6083 18.6413 41.4768 18.5853 41.2215 18.6698C40.6716 18.8522 40.1129 19.0049 39.5575 19.1707C38.4729 19.4937 37.3917 19.7771 36.2622 19.3344C35.4034 18.9983 34.5368 18.6786 33.6582 18.4007C32.5792 18.0591 31.5549 17.4846 30.3674 17.5439V17.5428ZM6.64217 30.8746C6.97958 30.9009 7.11762 30.6725 7.25674 30.4209C7.82202 29.3994 8.39606 28.3822 8.96791 27.364C11.1326 23.515 13.2984 19.6672 15.4609 15.8183C15.76 15.2867 15.7085 15.112 15.1706 14.8099C14.3457 14.3464 13.5197 13.8861 12.6893 13.4325C12.0824 13.1019 11.9148 13.1568 11.5664 13.7763C8.84741 18.6116 6.12838 23.448 3.41045 28.2845C3.10481 28.8282 3.13877 29.0017 3.66351 29.3027C4.51581 29.7915 5.37906 30.2628 6.23903 30.7395C6.36501 30.8087 6.4888 30.8944 6.64217 30.8757V30.8746ZM15.9802 39.17C15.9594 39.5654 16.0832 39.9323 16.3899 40.2333C16.9453 40.7792 17.7253 40.81 18.4122 40.2651C20.3403 38.735 22.2618 37.1961 24.1756 35.6484C24.8548 35.0992 24.9687 34.1227 24.4604 33.5009C23.9401 32.8639 23.0253 32.7771 22.3133 33.3428C20.3731 34.8861 18.4451 36.4459 16.5148 38.0023C16.1555 38.2923 15.9539 38.6669 15.9791 39.17H15.9802ZM26.1858 39.9631C26.1957 39.3457 25.9481 38.9338 25.4584 38.6614C24.8866 38.3429 24.3279 38.3912 23.8283 38.7844C22.4546 39.8664 21.0863 40.9549 19.7388 42.0699C19.0531 42.6367 18.9819 43.5132 19.5022 44.1635C20.005 44.7929 20.899 44.9027 21.5968 44.3568C22.9596 43.2902 24.2983 42.1929 25.6447 41.1054C26.0226 40.8001 26.2187 40.4057 26.1869 39.9631H26.1858ZM19.7224 31.895C19.7662 31.2733 19.5 30.8263 18.9709 30.5472C18.4023 30.2463 17.8371 30.3056 17.3408 30.6999C15.9714 31.7852 14.6053 32.8748 13.2623 33.993C12.5951 34.5478 12.5338 35.4001 13.0388 36.0416C13.546 36.6842 14.4443 36.8028 15.1257 36.2679C16.4721 35.2112 17.7987 34.1315 19.1297 33.0561C19.4978 32.7595 19.7553 32.3948 19.7224 31.8961V31.895ZM22.4294 47.2018C22.4064 47.8158 22.631 48.264 23.1382 48.555C23.7056 48.8813 24.2654 48.8263 24.7716 48.443C25.5121 47.8806 26.233 47.2918 26.9538 46.7042C27.6746 46.1154 27.8335 45.1784 27.3361 44.5271C26.8234 43.8548 25.8682 43.7856 25.1068 44.381C24.4024 44.9313 23.71 45.497 23.0155 46.0583C22.6419 46.3593 22.4053 46.7327 22.4294 47.2018Z" stroke="#22396A" mask="url(#path-1-outside-1_136_64)"/>
<path d="M30.141 4.15529C30.141 5.09768 30.1455 6.04007 30.1398 6.9813C30.1353 7.71234 29.669 8.19855 28.9938 8.19393C28.355 8.18931 27.8819 7.69849 27.8796 7.00786C27.8728 5.0665 27.8728 3.12397 27.8796 1.18261C27.883 0.481588 28.3505 0 28.995 0C29.678 0 30.1319 0.47004 30.1387 1.21379C30.1478 2.19429 30.141 3.17479 30.1421 4.15529H30.141Z" fill="#22396A"/>
<path d="M36.5462 10.6227C35.6952 10.6123 35.129 9.71034 35.5749 8.9458C36.5768 7.23079 37.6321 5.54697 38.6998 3.87353C39.0322 3.35383 39.7709 3.29955 40.2633 3.66334C40.7637 4.03291 40.8658 4.69235 40.4891 5.30906C39.5235 6.89126 38.5477 8.46652 37.5742 10.0441C37.337 10.4287 37.0103 10.6573 36.5451 10.6227H36.5462Z" fill="#22396A"/>
<path d="M22.575 9.40541C22.583 10.036 22.2959 10.3894 21.8137 10.5765C21.3224 10.767 20.814 10.5857 20.4907 10.081C19.8326 9.05201 19.1983 8.00684 18.555 6.96744C18.2134 6.4154 17.864 5.86799 17.5315 5.31017C17.1366 4.64958 17.2683 3.9578 17.8413 3.60325C18.395 3.2614 19.0576 3.43002 19.4479 4.05135C20.4328 5.62084 21.3995 7.20188 22.3765 8.77599C22.5126 8.99427 22.583 9.2264 22.575 9.40541Z" fill="#22396A"/>
<path d="M51.1406 19C51.7544 19.0023 52.3024 19.552 52.3104 20.1734C52.3172 20.7554 51.7181 21.3606 51.1383 21.3548C50.5642 21.349 49.9866 20.7346 50.0002 20.1433C50.0139 19.5532 50.5676 18.9988 51.1406 19.0012V19Z" fill="#22396A"/>
</g>
<defs>
<clipPath id="clip0_136_64">
<rect width="58" height="52" fill="white"/>
</clipPath>
</defs>
</svg>
