<svg width="100" height="100" viewBox="0 0 100 100" fill="none" xmlns="http://www.w3.org/2000/svg">
<rect width="100" height="100" rx="28" fill="white"/>
<path d="M24.1678 49.2155C24.0494 49.1842 23.9185 49.2031 23.8059 49.2623C23.6931 49.3219 23.6078 49.4169 23.5667 49.5321C23.5257 49.6472 23.5317 49.7748 23.5814 49.8922C23.6313 50.0093 23.7207 50.1068 23.8322 50.1574C24.8625 50.6696 25.8965 51.3492 26.8616 52.0594C29.0203 53.6579 30.9537 55.5406 32.6651 57.5748C32.6716 57.5824 32.678 57.5901 32.6844 57.5977C35.3767 60.8125 37.7276 64.5401 39.2508 68.1395C39.2507 68.1395 39.2507 68.1394 39.2507 68.1394C39.2507 68.1394 39.2507 68.1394 39.2507 68.1394C40.0967 70.1957 42.3322 70.1769 43.6849 68.4121C52.7982 56.3708 63.4578 47.2281 76.444 40.1876C77.4907 39.5903 78.5413 39.0005 79.6133 38.4032C81.1247 37.5621 82.187 36.1765 82.5214 34.4837C82.8584 32.7947 82.4399 30.937 81.4032 29.3867C80.3664 27.8364 78.8094 26.7401 77.1198 26.4064C75.4276 26.0687 73.7413 26.5213 72.3867 27.5968C71.3909 28.3824 70.4114 29.1641 69.4292 29.958C57.1413 39.3376 46.3971 52.1505 39.4076 65.5879L43.8419 65.8606C43.8419 65.8606 43.8419 65.8606 43.8419 65.8606C43.8418 65.8606 43.8418 65.8605 43.8418 65.8605C41.2532 61.7708 38.252 58.4698 34.8156 55.4792C34.8074 55.4721 34.7992 55.4651 34.791 55.4581C32.6131 53.5892 30.2406 51.958 27.7088 50.6765C26.5648 50.1036 25.4258 49.5955 24.1678 49.2155Z" fill="#22396A"/>
<path d="M65.4355 55.1969C66.7708 53.7966 70.78 51.7389 74.9999 52" stroke="#22396A" stroke-width="2" stroke-linecap="round"/>
<path d="M56.1184 65.2304C58.8195 62.5766 66.8584 58.7977 75.2397 59.5559" stroke="#22396A" stroke-width="2" stroke-linecap="round"/>
</svg>
